<svg width="119" height="119" viewBox="0 0 119 119" fill="none" xmlns="http://www.w3.org/2000/svg">
<g id="Computer troubleshooting-rafiki (1) 1">
<g id="freepik--background-complete--inject-106">
<path id="Vector" d="M119 91.0112H0V91.0707H119V91.0112Z" fill="#EBEBEB"/>
<path id="Vector_2" d="M107.076 94.8408H99.1936V94.9003H107.076V94.8408Z" fill="#EBEBEB"/>
<path id="Vector_3" d="M78.8303 95.488H76.7621V95.5475H78.8303V95.488Z" fill="#EBEBEB"/>
<path id="Vector_4" d="M98.9556 92.6321H94.3884V92.6916H98.9556V92.6321Z" fill="#EBEBEB"/>
<path id="Vector_5" d="M22.7647 93.032H12.4855V93.0915H22.7647V93.032Z" fill="#EBEBEB"/>
<path id="Vector_6" d="M26.3918 93.032H24.8853V93.0915H26.3918V93.032Z" fill="#EBEBEB"/>
<path id="Vector_7" d="M53.5858 94.0364H31.2899V94.0959H53.5858V94.0364Z" fill="#EBEBEB"/>
<path id="Vector_8" d="M56.406 80.3965H10.4506C10.0906 80.3959 9.74553 80.2524 9.49119 79.9976C9.23684 79.7428 9.09399 79.3975 9.09399 79.0375V14.4372C9.09713 14.0792 9.24136 13.737 9.49537 13.4847C9.74937 13.2325 10.0926 13.0907 10.4506 13.0901H56.406C56.7664 13.0901 57.1121 13.2333 57.367 13.4881C57.6218 13.743 57.765 14.0886 57.765 14.4491V79.0375C57.765 79.3979 57.6218 79.7436 57.367 79.9985C57.1121 80.2533 56.7664 80.3965 56.406 80.3965ZM10.4506 13.1377C10.1064 13.1383 9.77645 13.2755 9.53326 13.5191C9.29008 13.7628 9.15349 14.0929 9.15349 14.4372V79.0375C9.15349 79.3817 9.29008 79.7119 9.53326 79.9555C9.77645 80.1992 10.1064 80.3363 10.4506 80.337H56.406C56.7505 80.3363 57.0806 80.1992 57.3242 79.9557C57.5678 79.7121 57.7049 79.382 57.7055 79.0375V14.4372C57.7049 14.0927 57.5678 13.7626 57.3242 13.519C57.0806 13.2754 56.7505 13.1383 56.406 13.1377H10.4506Z" fill="#EBEBEB"/>
<path id="Vector_9" d="M107.888 80.3965H61.93C61.5698 80.3959 61.2245 80.2525 60.9698 79.9978C60.7151 79.743 60.5717 79.3977 60.571 79.0375V14.4372C60.5748 14.079 60.7196 13.7368 60.9739 13.4846C61.2283 13.2324 61.5718 13.0907 61.93 13.0901H107.888C108.245 13.0913 108.588 13.2334 108.842 13.4856C109.095 13.7377 109.239 14.0796 109.242 14.4372V79.0375C109.242 79.3971 109.1 79.742 108.846 79.9968C108.592 80.2515 108.247 80.3952 107.888 80.3965ZM61.93 13.1377C61.5856 13.1383 61.2554 13.2754 61.0118 13.519C60.7683 13.7626 60.6312 14.0927 60.6305 14.4372V79.0375C60.6312 79.382 60.7683 79.7121 61.0118 79.9557C61.2554 80.1992 61.5856 80.3363 61.93 80.337H107.888C108.232 80.3363 108.562 80.1992 108.806 79.9557C109.05 79.7121 109.187 79.382 109.187 79.0375V14.4372C109.187 14.0927 109.05 13.7626 108.806 13.519C108.562 13.2754 108.232 13.1383 107.888 13.1377H61.93Z" fill="#EBEBEB"/>
<path id="Vector_10" d="M54.1045 37.7992V43.2185L56.8939 43.4803C57.2679 45.2623 57.9744 46.9579 58.9764 48.4783L57.1842 50.6441L61.0136 54.4759L63.1794 52.6814C64.6993 53.6843 66.3951 54.3909 68.1774 54.7639L68.4392 57.5532H73.8585L74.1227 54.7639C75.9045 54.3892 77.6 53.6828 79.1207 52.6814L81.2841 54.4759L85.1159 50.6441L83.3238 48.4783C84.326 46.9583 85.0317 45.2625 85.4039 43.4803L88.1956 43.2185V37.7992L85.4039 37.535C85.032 35.7527 84.3262 34.0569 83.3238 32.537L85.1159 30.3712L81.2841 26.5394L79.135 28.3221C77.6147 27.3202 75.919 26.6145 74.137 26.2419L73.8728 23.4502H68.4464L68.1846 26.2419C66.4023 26.6141 64.7066 27.3198 63.1866 28.3221L61.0208 26.5299L57.1914 30.3617L58.9835 32.5251C57.9821 34.0458 57.2756 35.7413 56.901 37.5231L54.1045 37.7992ZM71.162 33.1725C72.6127 33.1725 74.0309 33.6027 75.2372 34.4087C76.4434 35.2147 77.3836 36.3603 77.9388 37.7006C78.4939 39.0409 78.6392 40.5158 78.3562 41.9387C78.0731 43.3616 77.3745 44.6686 76.3487 45.6944C75.3229 46.7202 74.0159 47.4188 72.593 47.7019C71.1701 47.9849 69.6952 47.8396 68.3549 47.2845C67.0146 46.7293 65.869 45.7891 65.063 44.5829C64.257 43.3766 63.8268 41.9584 63.8268 40.5077C63.8268 38.5623 64.5996 36.6965 65.9752 35.3209C67.3508 33.9453 69.2165 33.1725 71.162 33.1725Z" fill="#E0E0E0"/>
<path id="Vector_11" d="M44.9487 62.0467L46.5053 63.3343L49.2661 60.5806L47.9713 59.0241C48.6909 57.9299 49.198 56.7099 49.466 55.4279L51.4699 55.2399V51.3486L49.466 51.1582C49.1984 49.8769 48.6913 48.6576 47.9713 47.5644L49.2589 46.0079L46.5053 43.2542L44.9487 44.5418C43.8549 43.8214 42.6348 43.3143 41.3526 43.0472L41.1645 41.0432H37.2709L37.0828 43.0472C35.8009 43.3152 34.5809 43.8222 33.4867 44.5418L31.9301 43.2542L29.1789 46.0079L30.4664 47.5644C29.7455 48.6571 29.2383 49.8766 28.9718 51.1582L26.9655 51.3486V55.2423L28.9718 55.4303C29.2383 56.7116 29.7446 57.9309 30.4641 59.0241L29.1765 60.5783L31.9278 63.3319L33.4843 62.0443C34.5782 62.7677 35.7992 63.2773 37.0828 63.5461L37.2709 65.5525H41.1741L41.3621 63.5461C42.6416 63.2774 43.8587 62.7687 44.9487 62.0467ZM33.9484 53.2955C33.9479 52.2526 34.2567 51.2331 34.8358 50.3658C35.4149 49.4985 36.2382 48.8224 37.2016 48.4231C38.165 48.0238 39.2251 47.9192 40.2479 48.1226C41.2708 48.3259 42.2103 48.828 42.9477 49.5654C43.6851 50.3028 44.1873 51.2424 44.3906 52.2652C44.5939 53.288 44.4893 54.3482 44.09 55.3116C43.6907 56.2749 43.0147 57.0982 42.1474 57.6773C41.2801 58.2564 40.2605 58.5652 39.2177 58.5648C37.8204 58.5641 36.4805 58.0088 35.4924 57.0207C34.5044 56.0327 33.949 54.6928 33.9484 53.2955Z" fill="#E0E0E0"/>
<path id="Vector_12" d="M62.2536 88.4195C63.7803 88.099 65.2334 87.4952 66.5376 86.6392L68.3893 88.172L71.6665 84.8947L70.1338 83.0431C70.9907 81.7397 71.5939 80.2862 71.9117 78.7591L74.2917 78.533V73.9015L71.9117 73.6754C71.5939 72.1482 70.9907 70.6948 70.1338 69.3914L71.6665 67.5397L68.3869 64.2601L66.5352 65.7928C65.231 64.9369 63.7779 64.333 62.2512 64.0126L62.0251 61.6326H57.3937L57.1557 64.0126C55.6287 64.3322 54.1754 64.9361 52.8717 65.7928L51.0343 64.2601L47.757 67.5373L49.2898 69.389C48.4321 70.6922 47.8281 72.1457 47.5095 73.673L45.1295 73.8991V78.5401L47.5095 78.7662C47.8281 80.2935 48.4321 81.7469 49.2898 83.0502L47.757 84.9018L51.0343 88.1791L52.8859 86.6464C54.1897 87.5031 55.643 88.107 57.1699 88.4266L57.4079 90.8066H62.0418L62.2536 88.4195ZM53.4476 76.2172C53.4476 74.9758 53.8158 73.7623 54.5055 72.7302C55.1952 71.698 56.1755 70.8936 57.3225 70.4187C58.4694 69.9437 59.7314 69.8196 60.9489 70.0619C62.1664 70.3043 63.2847 70.9022 64.1624 71.7802C65.04 72.6582 65.6375 73.7767 65.8794 74.9943C66.1213 76.2119 65.9967 77.4738 65.5213 78.6206C65.0459 79.7674 64.2411 80.7474 63.2087 81.4367C62.1763 82.1261 60.9627 82.4937 59.7213 82.4933C58.8962 82.4948 58.0789 82.3336 57.3163 82.0189C56.5536 81.7042 55.8605 81.2421 55.2766 80.6591C54.6927 80.0762 54.2296 79.3837 53.9137 78.6215C53.5978 77.8593 53.4354 77.0423 53.4357 76.2172H53.4476Z" fill="#E0E0E0"/>
<path id="Vector_13" d="M95.5689 50.2727H100.688C100.799 50.2716 100.908 50.2418 101.004 50.186C101.101 50.1303 101.181 50.0506 101.237 49.9546C101.293 49.8587 101.323 49.7499 101.325 49.6388C101.326 49.5277 101.299 49.4181 101.245 49.3207L98.6843 44.8868C98.6283 44.7889 98.5474 44.7075 98.4498 44.6509C98.3522 44.5943 98.2414 44.5645 98.1286 44.5645C98.0158 44.5645 97.905 44.5943 97.8074 44.6509C97.7098 44.7075 97.6289 44.7889 97.5729 44.8868L95.0144 49.3207C94.9609 49.4179 94.9336 49.5273 94.935 49.6382C94.9364 49.7491 94.9664 49.8578 95.0223 49.9536C95.0781 50.0495 95.1578 50.1292 95.2536 50.1852C95.3494 50.2411 95.458 50.2712 95.5689 50.2727ZM98.4725 46.0839L98.3606 48.2926H97.8846L97.768 46.0839H98.4725ZM97.7585 49.0518C97.7581 49.0032 97.7676 48.955 97.7864 48.9101C97.8053 48.8653 97.833 48.8248 97.8679 48.7909C97.9028 48.7571 97.9443 48.7307 97.9897 48.7134C98.0351 48.696 98.0836 48.6881 98.1322 48.69C98.1812 48.6878 98.2301 48.6955 98.2761 48.7126C98.322 48.7298 98.3641 48.756 98.3996 48.7898C98.4352 48.8236 98.4636 48.8642 98.483 48.9092C98.5025 48.9542 98.5127 49.0027 98.513 49.0518C98.5133 49.1014 98.5036 49.1505 98.4845 49.1962C98.4653 49.2419 98.4371 49.2832 98.4015 49.3177C98.3659 49.3522 98.3237 49.3791 98.2774 49.3968C98.2311 49.4145 98.1817 49.4226 98.1322 49.4207C98.0826 49.423 98.033 49.4151 97.9866 49.3975C97.9401 49.3799 97.8978 49.353 97.8621 49.3185C97.8264 49.2839 97.7982 49.2424 97.7792 49.1966C97.7601 49.1507 97.7507 49.1015 97.7514 49.0518H97.7585Z" fill="#F0F0F0"/>
<path id="Vector_14" d="M20.706 30.2809H25.823C25.9341 30.2798 26.043 30.2499 26.1392 30.1942C26.2353 30.1384 26.3153 30.0587 26.3714 29.9628C26.4275 29.8669 26.4578 29.7581 26.4593 29.647C26.4608 29.5359 26.4334 29.4263 26.3799 29.3289L23.8 24.8831C23.7437 24.7852 23.6625 24.7039 23.5647 24.6473C23.467 24.5908 23.356 24.561 23.2431 24.561C23.1301 24.561 23.0192 24.5908 22.9214 24.6473C22.8237 24.7039 22.7425 24.7852 22.6862 24.8831L20.1372 29.317C20.0802 29.4156 20.0505 29.5275 20.051 29.6414C20.0516 29.7553 20.0823 29.8669 20.1402 29.965C20.1981 30.0631 20.281 30.144 20.3804 30.1995C20.4798 30.255 20.5922 30.2831 20.706 30.2809ZM23.6096 26.0945L23.4954 28.3007H23.0194L22.9004 26.0945H23.6096ZM22.8956 29.0623C22.8949 29.0137 22.9041 28.9655 22.9226 28.9205C22.9412 28.8756 22.9686 28.8348 23.0033 28.8008C23.038 28.7668 23.0793 28.7401 23.1246 28.7225C23.1699 28.7048 23.2183 28.6966 23.2669 28.6982C23.3173 28.6941 23.3681 28.7005 23.4159 28.717C23.4638 28.7336 23.5077 28.7598 23.5449 28.7941C23.5821 28.8284 23.6118 28.8701 23.6321 28.9165C23.6524 28.9628 23.6629 29.0129 23.6629 29.0635C23.6629 29.1141 23.6524 29.1642 23.6321 29.2106C23.6118 29.2569 23.5821 29.2986 23.5449 29.3329C23.5077 29.3672 23.4638 29.3935 23.4159 29.41C23.3681 29.4265 23.3173 29.4329 23.2669 29.4289C23.2166 29.4328 23.1661 29.4263 23.1185 29.4096C23.071 29.3929 23.0274 29.3664 22.9906 29.3319C22.9539 29.2974 22.9248 29.2556 22.9051 29.2092C22.8855 29.1628 22.8757 29.1127 22.8766 29.0623H22.8956Z" fill="#F0F0F0"/>
<path id="Vector_15" d="M34.4267 84.8209H39.5437C39.6565 84.821 39.7674 84.7914 39.8651 84.735C39.9629 84.6786 40.0441 84.5975 40.1005 84.4998C40.157 84.4021 40.1867 84.2913 40.1867 84.1784C40.1867 84.0656 40.157 83.9547 40.1006 83.857L37.5421 79.4231C37.4858 79.3252 37.4046 79.2439 37.3069 79.1874C37.2091 79.1308 37.0981 79.1011 36.9852 79.1011C36.8723 79.1011 36.7613 79.1308 36.6635 79.1874C36.5658 79.2439 36.4846 79.3252 36.4283 79.4231L33.8698 83.857C33.8134 83.9547 33.7837 84.0656 33.7837 84.1784C33.7837 84.2913 33.8134 84.4021 33.8699 84.4998C33.9263 84.5975 34.0075 84.6786 34.1053 84.735C34.203 84.7914 34.3139 84.821 34.4267 84.8209ZM37.3303 80.6321L37.2161 82.8408H36.7401L36.6211 80.6321H37.3303ZM36.6163 83.6C36.6159 83.5514 36.6255 83.5032 36.6443 83.4583C36.6631 83.4135 36.6908 83.3729 36.7257 83.3391C36.7606 83.3053 36.8021 83.2789 36.8475 83.2616C36.8929 83.2442 36.9414 83.2363 36.99 83.2382C37.0391 83.236 37.0881 83.2437 37.1342 83.2608C37.1803 83.2779 37.2225 83.3041 37.2583 83.3379C37.294 83.3716 37.3226 83.4122 37.3423 83.4572C37.3621 83.5023 37.3726 83.5508 37.3731 83.6C37.3732 83.6497 37.3632 83.6988 37.3438 83.7445C37.3243 83.7903 37.2959 83.8316 37.2601 83.866C37.2243 83.9005 37.1819 83.9273 37.1355 83.945C37.0891 83.9627 37.0396 83.9708 36.99 83.9689C36.9402 83.9715 36.8904 83.9639 36.8436 83.9464C36.7969 83.929 36.7543 83.9022 36.7183 83.8676C36.6824 83.833 36.654 83.7914 36.6348 83.7454C36.6156 83.6993 36.6061 83.6499 36.6068 83.6H36.6163Z" fill="#F0F0F0"/>
<path id="Vector_16" d="M82.348 78.4069H87.4674C87.58 78.4065 87.6906 78.3766 87.788 78.32C87.8854 78.2635 87.9663 78.1823 88.0224 78.0847C88.0786 77.9871 88.1081 77.8764 88.108 77.7638C88.108 77.6511 88.0783 77.5405 88.022 77.443L85.4658 73.009C85.4095 72.9112 85.3283 72.8298 85.2306 72.7733C85.1328 72.7168 85.0219 72.687 84.9089 72.687C84.796 72.687 84.685 72.7168 84.5873 72.7733C84.4895 72.8298 84.4083 72.9112 84.352 73.009L81.7935 77.443C81.7372 77.5405 81.7075 77.6511 81.7074 77.7638C81.7073 77.8764 81.7368 77.9871 81.793 78.0847C81.8492 78.1823 81.93 78.2635 82.0274 78.32C82.1248 78.3766 82.2354 78.4065 82.348 78.4069ZM85.2516 74.2181L85.1374 76.4267H84.6614L84.5424 74.2181H85.2516ZM84.5376 77.1859C84.5369 77.1374 84.5462 77.0893 84.5647 77.0445C84.5832 76.9996 84.6107 76.959 84.6455 76.9252C84.6802 76.8913 84.7215 76.8649 84.7668 76.8475C84.8121 76.8302 84.8604 76.8222 84.9089 76.8242C84.958 76.8219 85.0071 76.8296 85.0532 76.8467C85.0993 76.8638 85.1415 76.89 85.1772 76.9238C85.213 76.9576 85.2416 76.9982 85.2613 77.0432C85.281 77.0882 85.2915 77.1368 85.2921 77.1859C85.2921 77.2356 85.2821 77.2848 85.2627 77.3305C85.2433 77.3762 85.2148 77.4175 85.179 77.452C85.1433 77.4864 85.1009 77.5133 85.0545 77.531C85.0081 77.5486 84.9585 77.5567 84.9089 77.5548C84.8596 77.5568 84.8104 77.5486 84.7644 77.5309C84.7184 77.5131 84.6764 77.4861 84.6412 77.4516C84.606 77.417 84.5782 77.3757 84.5596 77.33C84.541 77.2843 84.5319 77.2353 84.5329 77.1859H84.5376Z" fill="#F0F0F0"/>
<path id="Vector_17" d="M86.0299 22.3221H88.8644C88.9268 22.3219 88.988 22.3054 89.042 22.2742C89.0959 22.243 89.1408 22.1982 89.1721 22.1443C89.2034 22.0904 89.22 22.0292 89.2203 21.9669C89.2206 21.9046 89.2046 21.8432 89.1738 21.789L87.7458 19.3352C87.7149 19.2808 87.67 19.2356 87.6159 19.2041C87.5618 19.1726 87.5003 19.156 87.4376 19.156C87.375 19.156 87.3135 19.1726 87.2594 19.2041C87.2052 19.2356 87.1604 19.2808 87.1294 19.3352L85.7133 21.789C85.6815 21.8436 85.6648 21.9058 85.665 21.9691C85.6653 22.0323 85.6824 22.0943 85.7147 22.1487C85.747 22.2031 85.7933 22.2478 85.8487 22.2783C85.9041 22.3088 85.9666 22.324 86.0299 22.3221ZM87.6387 20.004L87.584 21.2273H87.3246L87.2579 20.004H87.6387ZM87.2389 21.6581C87.2386 21.631 87.2437 21.6042 87.2541 21.5792C87.2644 21.5542 87.2797 21.5315 87.2991 21.5126C87.3185 21.4937 87.3415 21.4789 87.3667 21.4691C87.3919 21.4594 87.4189 21.4548 87.446 21.4558C87.4996 21.4558 87.5511 21.4771 87.589 21.5151C87.6269 21.553 87.6483 21.6045 87.6483 21.6581C87.6483 21.7118 87.6269 21.7632 87.589 21.8012C87.5511 21.8391 87.4996 21.8604 87.446 21.8604C87.4189 21.8614 87.3919 21.8568 87.3667 21.8471C87.3415 21.8373 87.3185 21.8225 87.2991 21.8036C87.2797 21.7847 87.2644 21.7621 87.2541 21.737C87.2437 21.712 87.2386 21.6852 87.2389 21.6581Z" fill="#F0F0F0"/>
<path id="Vector_18" d="M15.3367 59.8572H18.1713C18.2339 59.8577 18.2956 59.8416 18.35 59.8106C18.4044 59.7796 18.4496 59.7347 18.481 59.6805C18.5125 59.6264 18.529 59.5649 18.5289 59.5022C18.5289 59.4396 18.5122 59.3781 18.4807 59.324L17.0527 56.8703C17.0221 56.8158 16.9775 56.7704 16.9235 56.7389C16.8696 56.7073 16.8082 56.6907 16.7457 56.6907C16.6832 56.6907 16.6218 56.7073 16.5679 56.7389C16.5139 56.7704 16.4693 56.8158 16.4387 56.8703L15.0107 59.324C14.9783 59.3794 14.9615 59.4425 14.9622 59.5066C14.9628 59.5707 14.9808 59.6334 15.0143 59.6881C15.0477 59.7428 15.0954 59.7874 15.1522 59.8172C15.2089 59.847 15.2727 59.8608 15.3367 59.8572ZM16.9456 57.539L16.8837 58.7624H16.6243L16.5601 57.539H16.9456ZM16.5458 59.1836C16.5454 59.1565 16.5506 59.1297 16.561 59.1047C16.5713 59.0797 16.5866 59.057 16.606 59.0381C16.6253 59.0192 16.6483 59.0044 16.6736 58.9946C16.6988 58.9849 16.7258 58.9803 16.7528 58.9813C16.8065 58.9813 16.858 59.0026 16.8959 59.0406C16.9338 59.0785 16.9551 59.13 16.9551 59.1836C16.9551 59.2373 16.9338 59.2887 16.8959 59.3267C16.858 59.3646 16.8065 59.3859 16.7528 59.3859C16.7258 59.3869 16.6988 59.3823 16.6736 59.3726C16.6483 59.3628 16.6253 59.348 16.606 59.3291C16.5866 59.3102 16.5713 59.2876 16.561 59.2625C16.5506 59.2375 16.5454 59.2107 16.5458 59.1836Z" fill="#F0F0F0"/>
<path id="Vector_19" d="M69.6102 41.719H72.4448C72.5073 41.7187 72.5686 41.7019 72.6226 41.6704C72.6765 41.6389 72.7213 41.5938 72.7524 41.5396C72.7835 41.4854 72.7998 41.424 72.7997 41.3615C72.7996 41.299 72.7831 41.2377 72.7518 41.1835L71.3357 38.7298C71.3048 38.6753 71.2599 38.6301 71.2058 38.5986C71.1517 38.5671 71.0901 38.5505 71.0275 38.5505C70.9649 38.5505 70.9034 38.5671 70.8493 38.5986C70.7951 38.6301 70.7503 38.6753 70.7193 38.7298L69.2913 41.1835C69.2595 41.2385 69.243 41.301 69.2434 41.3645C69.2438 41.428 69.2612 41.4903 69.2937 41.5449C69.3262 41.5994 69.3726 41.6443 69.4283 41.675C69.4839 41.7056 69.5467 41.7208 69.6102 41.719ZM71.2167 39.3985L71.1549 40.6219H70.8954L70.8312 39.3985H71.2167ZM70.8193 41.0431C70.8189 41.0163 70.824 40.9896 70.8342 40.9648C70.8444 40.9399 70.8595 40.9174 70.8786 40.8985C70.8977 40.8796 70.9205 40.8648 70.9454 40.8549C70.9704 40.845 70.9971 40.8402 71.024 40.8408C71.0645 40.8408 71.1042 40.8529 71.1379 40.8755C71.1716 40.8981 71.1979 40.9302 71.2133 40.9677C71.2287 41.0053 71.2326 41.0466 71.2245 41.0863C71.2164 41.1261 71.1967 41.1626 71.1678 41.1911C71.139 41.2196 71.1023 41.2389 71.0624 41.2465C71.0225 41.2542 70.9813 41.2498 70.944 41.2339C70.9066 41.2181 70.8748 41.1915 70.8526 41.1575C70.8304 41.1235 70.8188 41.0837 70.8193 41.0431Z" fill="#F0F0F0"/>
<path id="Vector_20" d="M46.4219 21.0227H39.0582V25.8898H46.4219V21.0227Z" fill="#E0E0E0"/>
<path id="Vector_21" d="M46.4362 21.0227H39.0582V21.8224H46.4362V21.0227Z" fill="#F0F0F0"/>
<path id="Vector_22" d="M30.3308 39.0701H22.967V43.9372H30.3308V39.0701Z" fill="#E0E0E0"/>
<path id="Vector_23" d="M30.345 39.0701H22.967V39.8697H30.345V39.0701Z" fill="#F0F0F0"/>
<path id="Vector_24" d="M29.3121 73.7134H21.9484V78.5805H29.3121V73.7134Z" fill="#E0E0E0"/>
<path id="Vector_25" d="M29.3264 73.7134H21.9484V74.5131H29.3264V73.7134Z" fill="#F0F0F0"/>
<path id="Vector_26" d="M86.0085 61.1709H78.6448V66.038H86.0085V61.1709Z" fill="#E0E0E0"/>
<path id="Vector_27" d="M86.0228 61.1709H78.6448V61.9706H86.0228V61.1709Z" fill="#F0F0F0"/>
<path id="Vector_28" d="M102.147 67.4851H94.7834V72.3522H102.147V67.4851Z" fill="#E0E0E0"/>
<path id="Vector_29" d="M102.161 67.4851H94.7834V68.2848H102.161V67.4851Z" fill="#F0F0F0"/>
<path id="Vector_30" d="M99.4388 31.1208H92.0751V35.988H99.4388V31.1208Z" fill="#E0E0E0"/>
<path id="Vector_31" d="M99.4531 31.1208H92.0751V31.9205H99.4531V31.1208Z" fill="#F0F0F0"/>
</g>
<g id="freepik--Shadow--inject-106">
<path id="freepik--path--inject-106" d="M59.4999 101.759C84.9856 101.759 105.646 100.553 105.646 99.065C105.646 97.5771 84.9856 96.3708 59.4999 96.3708C34.0143 96.3708 13.3541 97.5771 13.3541 99.065C13.3541 100.553 34.0143 101.759 59.4999 101.759Z" fill="#F5F5F5"/>
</g>
<g id="freepik--speech-bubble--inject-106">
<path id="Vector_32" d="M50.8082 28.4219H43.9729C43.4142 28.4219 42.8785 28.6438 42.4835 29.0388C42.0885 29.4338 41.8666 29.9696 41.8666 30.5282V36.4782C41.8666 36.7547 41.9211 37.0285 42.027 37.2839C42.1328 37.5393 42.288 37.7713 42.4836 37.9667C42.6793 38.1621 42.9115 38.3171 43.167 38.4227C43.4225 38.5283 43.6964 38.5824 43.9729 38.5821H45.2533L44.7773 40.4623L46.6813 38.5821H50.8225C51.0988 38.5821 51.3724 38.5277 51.6277 38.422C51.8829 38.3162 52.1148 38.1613 52.3102 37.9659C52.5056 37.7705 52.6606 37.5386 52.7663 37.2833C52.872 37.0281 52.9264 36.7545 52.9264 36.4782V30.5282C52.9264 30.2506 52.8716 29.9757 52.765 29.7194C52.6584 29.4631 52.5022 29.2304 52.3053 29.0346C52.1085 28.8389 51.8749 28.684 51.6179 28.5788C51.361 28.4737 51.0858 28.4203 50.8082 28.4219Z" fill="#C53F3F"/>
<path id="Vector_33" opacity="0.7" d="M50.8082 28.4219H43.9729C43.4142 28.4219 42.8785 28.6438 42.4835 29.0388C42.0885 29.4338 41.8666 29.9696 41.8666 30.5282V36.4782C41.8666 36.7547 41.9211 37.0285 42.027 37.2839C42.1328 37.5393 42.288 37.7713 42.4836 37.9667C42.6793 38.1621 42.9115 38.3171 43.167 38.4227C43.4225 38.5283 43.6964 38.5824 43.9729 38.5821H45.2533L44.7773 40.4623L46.6813 38.5821H50.8225C51.0988 38.5821 51.3724 38.5277 51.6277 38.422C51.8829 38.3162 52.1148 38.1613 52.3102 37.9659C52.5056 37.7705 52.6606 37.5386 52.7663 37.2833C52.872 37.0281 52.9264 36.7545 52.9264 36.4782V30.5282C52.9264 30.2506 52.8716 29.9757 52.765 29.7194C52.6584 29.4631 52.5022 29.2304 52.3053 29.0346C52.1085 28.8389 51.8749 28.684 51.6179 28.5788C51.361 28.4737 51.0858 28.4203 50.8082 28.4219Z" fill="white"/>
<path id="Vector_34" d="M47.3906 37.078C46.6939 37.078 46.0129 36.8714 45.4336 36.4844C44.8544 36.0973 44.4029 35.5472 44.1363 34.9036C43.8697 34.2599 43.7999 33.5517 43.9358 32.8684C44.0718 32.1851 44.4072 31.5575 44.8999 31.0649C45.3925 30.5723 46.0201 30.2368 46.7034 30.1009C47.3867 29.965 48.0949 30.0347 48.7385 30.3013C49.3822 30.5679 49.9323 31.0194 50.3193 31.5987C50.7064 32.1779 50.913 32.8589 50.913 33.5556C50.9117 34.4894 50.5402 35.3846 49.8799 36.0449C49.2196 36.7052 48.3244 37.0767 47.3906 37.078ZM47.3906 30.5092C46.788 30.5092 46.1991 30.6879 45.6981 31.0226C45.1971 31.3574 44.8066 31.8331 44.5761 32.3898C44.3455 32.9465 44.2852 33.559 44.4027 34.1499C44.5202 34.7409 44.8104 35.2837 45.2364 35.7097C45.6625 36.1358 46.2053 36.4259 46.7962 36.5435C47.3872 36.661 47.9997 36.6007 48.5564 36.3701C49.113 36.1395 49.5888 35.7491 49.9236 35.2481C50.2583 34.7471 50.437 34.1581 50.437 33.5556C50.4363 32.7478 50.1152 31.9733 49.544 31.4022C48.9728 30.831 48.1983 30.5098 47.3906 30.5092Z" fill="#C53F3F"/>
<path id="Vector_35" d="M46.8503 34.917C46.8177 34.9169 46.7854 34.9101 46.7555 34.897C46.7256 34.8839 46.6988 34.8648 46.6766 34.8408L45.6389 33.7175C45.6175 33.6944 45.6009 33.6674 45.59 33.6378C45.5791 33.6083 45.5742 33.5769 45.5755 33.5455C45.5769 33.5141 45.5844 33.4832 45.5977 33.4548C45.6111 33.4263 45.6299 33.4007 45.6532 33.3795C45.6996 33.337 45.761 33.3147 45.8239 33.3174C45.8868 33.32 45.9461 33.3475 45.9887 33.3938L46.8527 34.3315L48.79 32.2728C48.8346 32.2285 48.8949 32.2036 48.9578 32.2036C49.0207 32.2036 49.081 32.2285 49.1256 32.2728C49.1479 32.2949 49.1656 32.3213 49.1777 32.3503C49.1898 32.3793 49.196 32.4104 49.196 32.4418C49.196 32.4732 49.1898 32.5043 49.1777 32.5333C49.1656 32.5623 49.1479 32.5887 49.1256 32.6108L47.0098 34.8527C46.9665 34.8933 46.9096 34.9162 46.8503 34.917Z" fill="#C53F3F"/>
</g>
<g id="freepik--Character--inject-106">
<path id="Vector_36" d="M38.8654 97.8847L40.5218 97.8561L40.9336 94.0291L39.2771 94.0576L38.8654 97.8847Z" fill="#E4897B"/>
<path id="Vector_37" opacity="0.2" d="M40.9336 94.0315L40.7218 96.0021L39.0653 96.0307L39.2771 94.0577L40.9336 94.0315Z" fill="black"/>
<path id="Vector_38" d="M42.7496 80.218C42.7496 85.454 41.2764 95.4238 41.2764 95.4238L38.506 95.8546C38.506 95.8546 38.2371 86.5583 38.1324 81.4128C38.1157 80.6559 36.0047 76.9955 33.8293 73.4207C32.7084 71.5786 31.5707 69.7555 30.6901 68.3632C29.75 66.8734 29.1074 65.8738 29.1074 65.8738L35.6834 63.4128C35.6834 63.4128 42.7448 75.1772 42.7496 80.218Z" fill="#C53F3F"/>
<path id="Vector_39" d="M41.6643 95.5856L38.3275 95.7974L38.2704 94.724L41.9332 94.436L41.6643 95.5856Z" fill="#263238"/>
<path id="Vector_40" d="M40.6028 97.6252C40.6024 97.6169 40.6045 97.6086 40.6087 97.6014C40.6129 97.5943 40.6192 97.5885 40.6266 97.5848C40.7028 97.5491 41.3811 97.2325 41.5786 97.3468C41.5973 97.3575 41.6127 97.3732 41.6232 97.3921C41.6337 97.4109 41.6389 97.4323 41.6381 97.4539C41.6408 97.4894 41.6348 97.5251 41.6207 97.5578C41.6066 97.5905 41.5848 97.6194 41.5572 97.6419C41.3692 97.7942 40.898 97.7157 40.6338 97.6538C40.6264 97.6526 40.6195 97.6492 40.614 97.6442C40.6085 97.6391 40.6046 97.6325 40.6028 97.6252ZM40.767 97.6062C41.1288 97.68 41.4025 97.6728 41.5072 97.5848C41.526 97.5705 41.5406 97.5515 41.5498 97.5298C41.559 97.5081 41.5624 97.4844 41.5596 97.461C41.5602 97.4529 41.5585 97.4448 41.5547 97.4377C41.5509 97.4305 41.5452 97.4246 41.5382 97.4205H41.5239C41.412 97.3658 41.0336 97.4919 40.767 97.6062Z" fill="#C53F3F"/>
<path id="Vector_41" d="M40.6171 97.6514C40.6119 97.6471 40.6079 97.6416 40.6054 97.6354C40.6029 97.6291 40.602 97.6224 40.6028 97.6157C40.6295 97.3826 40.7286 97.1637 40.886 96.9898C40.9168 96.9649 40.9523 96.9467 40.9903 96.936C41.0284 96.9254 41.0682 96.9226 41.1074 96.9279C41.2145 96.9446 41.243 96.9993 41.2478 97.0421C41.2716 97.2302 40.8598 97.5729 40.6575 97.6562C40.6531 97.6585 40.6482 97.6597 40.6433 97.6597C40.6383 97.6597 40.6334 97.6585 40.629 97.6562L40.6171 97.6514ZM41.0931 97.0064C41.0645 97.0025 41.0353 97.0045 41.0075 97.0123C40.9797 97.0201 40.9537 97.0335 40.9312 97.0517C40.802 97.1896 40.7188 97.3642 40.6932 97.5515C40.9003 97.4372 41.1692 97.1659 41.1692 97.0517C41.1668 97.0432 41.1622 97.0355 41.156 97.0292C41.1497 97.023 41.142 97.0184 41.1335 97.016C41.1213 97.0111 41.1085 97.0079 41.0955 97.0064H41.0931Z" fill="#C53F3F"/>
<path id="Vector_42" d="M40.4743 97.4229L38.6655 97.3658C38.6329 97.365 38.6009 97.3752 38.5746 97.3945C38.5484 97.4139 38.5293 97.4415 38.5203 97.4729L38.1324 98.927C38.1225 98.9622 38.1209 98.9991 38.1276 99.035C38.1343 99.0708 38.1491 99.1047 38.171 99.1339C38.1928 99.1631 38.2211 99.1869 38.2536 99.2034C38.2861 99.22 38.322 99.2288 38.3585 99.2293C39.013 99.2293 39.9555 99.2293 40.7766 99.2579C41.7286 99.2888 42.345 99.2436 43.4683 99.2817C44.1466 99.3031 44.3656 98.6248 44.0824 98.5534C42.7996 98.2297 41.9594 98.2892 40.867 97.5657C40.752 97.4823 40.616 97.4328 40.4743 97.4229Z" fill="#263238"/>
<path id="Vector_43" opacity="0.2" d="M33.8293 73.4206C32.7083 71.5785 31.5707 69.7554 30.6901 68.3631C31.0411 67.916 31.4482 67.5161 31.9015 67.1731C31.9015 67.1731 33.8221 70.5146 33.8293 73.4206Z" fill="black"/>
<path id="Vector_44" d="M20.1824 97.6847L21.7817 98.1179L23.2431 94.5574L21.6437 94.1243L20.1824 97.6847Z" fill="#E4897B"/>
<path id="Vector_45" opacity="0.2" d="M23.2407 94.5598L22.4886 96.3948L20.8893 95.9592L21.6414 94.1243L23.2407 94.5598Z" fill="black"/>
<path id="Vector_46" d="M35.8499 61.9918L35.7166 64.2933L31.7277 67.4754C31.7277 67.4754 31.454 78.1854 30.3188 80.532C29.1835 82.8787 23.7238 95.169 23.7238 95.169L20.7393 94.248C20.7393 94.248 25.4826 79.8014 25.961 78.947C26.4394 78.0925 23.9261 65.6356 27.2914 59.7451L35.8499 61.9918Z" fill="#C53F3F"/>
<path id="Vector_47" d="M40.7693 51.7222C40.9383 52.7955 41.0787 53.8642 41.2025 54.9423C41.3262 56.0204 41.4405 57.0986 41.5071 58.2005L41.55 58.9145C41.5696 59.0898 41.612 59.2619 41.6761 59.4262C41.8357 59.8201 42.0602 60.1846 42.3401 60.5044C42.653 60.8714 42.9979 61.2099 43.3707 61.5159C43.5634 61.6729 43.761 61.8348 43.9657 61.9919C44.1703 62.1489 44.3893 62.2894 44.5773 62.4179L44.1013 63.5579C43.8182 63.4739 43.5401 63.3738 43.2683 63.258C43.0042 63.1438 42.7376 63.02 42.4806 62.8867C41.9476 62.6065 41.4478 62.2672 40.9907 61.8752C40.4863 61.4502 40.0651 60.9354 39.7483 60.3568C39.5739 60.0367 39.4449 59.6939 39.3651 59.3382C39.3413 59.2501 39.3294 59.1549 39.3128 59.0621L39.2794 58.8241L39.2247 58.4361L38.7487 55.266C38.5893 54.2045 38.4393 53.1383 38.306 52.0744L40.7693 51.7222Z" fill="#DC897C"/>
<path id="Vector_48" d="M37.3065 48.79C36.3807 50.0752 37.9705 54.978 37.9705 54.978L41.65 54.0902C41.5249 52.6594 41.2456 51.2462 40.817 49.8753C40.1315 47.8975 38.318 47.3763 37.3065 48.79Z" fill="#C53F3F"/>
<path id="Vector_49" opacity="0.7" d="M37.3065 48.79C36.3807 50.0752 37.9705 54.978 37.9705 54.978L41.65 54.0902C41.5249 52.6594 41.2456 51.2462 40.817 49.8753C40.1315 47.8975 38.318 47.3763 37.3065 48.79Z" fill="white"/>
<path id="Vector_50" opacity="0.2" d="M38.5559 51.4081C39.1938 52.0174 39.5627 53.5882 39.3294 54.6473L37.9704 54.9781C37.6 53.7933 37.3184 52.5825 37.1279 51.3558C37.473 51.0702 37.8229 50.7156 38.5559 51.4081Z" fill="black"/>
<path id="Vector_51" d="M30.5591 45.7676C30.4319 47.6095 30.167 49.4393 29.7666 51.2416C29.4929 52.5006 29.1787 53.6835 28.8693 54.7497C28.1553 57.2463 27.4413 59.098 27.2914 59.7477L35.8594 61.9873C40.091 53.4931 39.5127 48.1833 39.5127 48.1833C38.8972 47.8381 38.2614 47.5305 37.6087 47.2622C37.4706 47.2051 37.3278 47.1527 37.1827 47.1004C35.9891 46.7128 34.7741 46.3949 33.5436 46.1484C33.3056 46.0984 33.0676 46.0556 32.8296 46.0151C31.6396 45.8271 30.5591 45.7676 30.5591 45.7676Z" fill="#C53F3F"/>
<path id="Vector_52" opacity="0.7" d="M30.5591 45.7676C30.4319 47.6095 30.167 49.4393 29.7666 51.2416C29.4929 52.5006 29.1787 53.6835 28.8693 54.7497C28.1553 57.2463 27.4413 59.098 27.2914 59.7477L35.8594 61.9873C40.091 53.4931 39.5127 48.1833 39.5127 48.1833C38.8972 47.8381 38.2614 47.5305 37.6087 47.2622C37.4706 47.2051 37.3278 47.1527 37.1827 47.1004C35.9891 46.7128 34.7741 46.3949 33.5436 46.1484C33.3056 46.0984 33.0676 46.0556 32.8296 46.0151C31.6396 45.8271 30.5591 45.7676 30.5591 45.7676Z" fill="white"/>
<path id="Vector_53" d="M36.602 47.6668C36.1617 46.8814 36.6496 46.2055 37.2374 45.6414L36.3211 42.7664C35.8785 43.9135 34.8931 45.9103 33.7507 46.1483C33.8696 46.7024 34.1138 47.2218 34.4647 47.6668H36.602Z" fill="#E4897B"/>
<path id="Vector_54" opacity="0.2" d="M36.6948 43.9397L37.2375 45.639C37.0723 45.7937 36.921 45.9625 36.7853 46.1436C36.3854 45.8104 36.0832 44.9536 36.3235 44.4776C36.4126 44.2767 36.5385 44.0942 36.6948 43.9397Z" fill="black"/>
<path id="Vector_55" d="M42.2449 42.9091C42.1997 43.128 40.2505 42.6711 39.9482 42.2379C39.646 41.8048 40.6313 41.581 41.2453 41.9C41.6591 42.1456 42.0032 42.493 42.2449 42.9091Z" fill="#C53F3F"/>
<path id="Vector_56" opacity="0.3" d="M42.2449 42.9091C42.1997 43.128 40.2505 42.6711 39.9482 42.2379C39.646 41.8048 40.6313 41.581 41.2453 41.9C41.6591 42.1456 42.0032 42.493 42.2449 42.9091Z" fill="black"/>
<path id="Vector_57" d="M41.3358 41.8047C41.3358 42.4711 40.8193 43.6801 40.1053 42.9947C39.3913 42.3092 41.3477 40.6599 41.3358 41.8047Z" fill="#263238"/>
<path id="Vector_58" d="M40.2743 44.6179C40.1573 44.8183 40.0261 45.01 39.8816 45.1915C38.901 46.4267 36.9399 46.3648 36.2092 44.9773C36.1585 44.8847 36.1147 44.7884 36.0783 44.6893C35.6809 43.5874 36.1117 42.7258 36.7114 41.2026C36.8478 40.846 37.0725 40.5297 37.3644 40.2836C37.6563 40.0374 38.0059 39.8694 38.3804 39.7952C38.755 39.721 39.1422 39.7431 39.5059 39.8594C39.8696 39.9756 40.1979 40.1823 40.4599 40.46C41.4786 41.531 41.0192 43.3684 40.2743 44.6179Z" fill="#E4897B"/>
<path id="Vector_59" d="M37.8182 38.5562C37.4792 38.6617 37.1701 38.846 36.9161 39.094C36.0308 39.908 35.3858 41.1266 36.5068 42.357C37.3184 42.0524 37.7182 40.929 37.8182 40.6077V38.5562Z" fill="#263238"/>
<path id="Vector_60" d="M35.5619 42.1689C35.5363 42.3708 35.5511 42.5758 35.6054 42.7719C35.6598 42.968 35.7526 43.1514 35.8784 43.3113C36.2188 43.7374 36.7114 43.5113 36.8852 43.0257C37.0446 42.5878 37.0589 41.8357 36.5877 41.5977C36.4841 41.5468 36.3697 41.5217 36.2543 41.5246C36.1389 41.5276 36.026 41.5585 35.9251 41.6146C35.8243 41.6708 35.7385 41.7505 35.6753 41.8471C35.612 41.9436 35.5731 42.0541 35.5619 42.1689Z" fill="#E4897B"/>
<path id="Vector_61" d="M38.7798 42.6449C38.7226 42.7639 38.7417 42.8829 38.8226 42.9282C38.9035 42.9734 39.0106 42.8948 39.0606 42.7735C39.1106 42.6521 39.0987 42.5355 39.0178 42.4902C38.9368 42.445 38.8369 42.5235 38.7798 42.6449Z" fill="#263238"/>
<path id="Vector_62" d="M40.1529 43.2684C40.0958 43.3874 40.1149 43.5064 40.1934 43.5516C40.2719 43.5968 40.3838 43.5183 40.4314 43.3993C40.479 43.2803 40.4671 43.1613 40.3886 43.1137C40.31 43.0661 40.2077 43.147 40.1529 43.2684Z" fill="#263238"/>
<path id="Vector_63" d="M39.6888 43.1304C39.6712 43.5553 39.7129 43.9807 39.8126 44.3942C39.7032 44.4113 39.5913 44.4054 39.4843 44.3767C39.3773 44.348 39.2776 44.2972 39.1914 44.2276L39.6888 43.1304Z" fill="#DE5753"/>
<path id="Vector_64" d="M38.318 44.3943C38.3671 44.425 38.418 44.4528 38.4703 44.4776C38.4799 44.4812 38.4904 44.4813 38.5 44.4778C38.5096 44.4743 38.5176 44.4675 38.5227 44.4586C38.525 44.4539 38.5264 44.4488 38.5267 44.4436C38.5271 44.4384 38.5263 44.4332 38.5245 44.4283C38.5227 44.4234 38.52 44.4189 38.5164 44.4151C38.5128 44.4113 38.5084 44.4083 38.5036 44.4062C38.3513 44.3417 38.2165 44.2417 38.1105 44.1146C38.0046 43.9876 37.9305 43.837 37.8943 43.6756C37.8912 43.6667 37.8851 43.6592 37.877 43.6544C37.8689 43.6496 37.8594 43.6477 37.8502 43.6491C37.8409 43.6505 37.8324 43.6551 37.8261 43.6621C37.8198 43.6691 37.8162 43.6781 37.8158 43.6875C37.8464 43.8335 37.9068 43.9716 37.9932 44.0932C38.0796 44.2148 38.1902 44.3173 38.318 44.3943Z" fill="#263238"/>
<path id="Vector_65" d="M38.556 42.0118C38.5683 42.0189 38.5822 42.0226 38.5965 42.0226C38.6107 42.0226 38.6246 42.0189 38.6369 42.0118C38.7224 41.9628 38.8181 41.9344 38.9165 41.9291C39.0148 41.9237 39.1131 41.9414 39.2034 41.9809C39.2124 41.9859 39.2224 41.9891 39.2327 41.9903C39.243 41.9914 39.2534 41.9906 39.2633 41.9877C39.2733 41.9848 39.2826 41.98 39.2907 41.9735C39.2988 41.967 39.3055 41.959 39.3105 41.9499C39.3154 41.941 39.3186 41.9313 39.3197 41.9211C39.3209 41.911 39.32 41.9008 39.3171 41.891C39.3142 41.8813 39.3094 41.8722 39.3029 41.8643C39.2965 41.8564 39.2885 41.8499 39.2795 41.8452C39.1667 41.7932 39.0432 41.7686 38.9191 41.7736C38.795 41.7785 38.6738 41.8129 38.5655 41.8738C38.5563 41.8783 38.5481 41.8846 38.5414 41.8924C38.5347 41.9002 38.5296 41.9092 38.5265 41.919C38.5234 41.9288 38.5223 41.9391 38.5233 41.9493C38.5243 41.9595 38.5273 41.9695 38.5322 41.9785C38.5373 41.9913 38.5455 42.0028 38.556 42.0118Z" fill="#263238"/>
<path id="Vector_66" d="M40.9621 43.0781C40.975 43.0879 40.9913 43.0921 41.0073 43.09C41.0175 43.09 41.0276 43.088 41.037 43.084C41.0464 43.08 41.0549 43.0742 41.062 43.0669C41.0691 43.0596 41.0747 43.0509 41.0784 43.0414C41.0821 43.0318 41.0838 43.0217 41.0835 43.0115C41.0836 42.8876 41.0541 42.7655 40.9974 42.6553C40.9407 42.5452 40.8584 42.4502 40.7574 42.3784C40.7392 42.3683 40.7179 42.3654 40.6976 42.3702C40.6773 42.3751 40.6596 42.3873 40.6479 42.4046C40.6374 42.4223 40.6342 42.4435 40.6391 42.4635C40.644 42.4835 40.6566 42.5008 40.6741 42.5117C40.7535 42.5688 40.818 42.6444 40.8619 42.7318C40.9058 42.8193 40.928 42.916 40.9264 43.0139C40.926 43.0268 40.9291 43.0396 40.9354 43.0509C40.9416 43.0623 40.9509 43.0717 40.9621 43.0781Z" fill="#263238"/>
<path id="Vector_67" d="M41.2739 42.2379C40.1791 41.3883 38.782 41.0027 37.6896 40.8266C37.1022 40.7274 36.5074 40.6788 35.9117 40.6814C35.9593 40.0674 36.7447 38.6632 37.2374 38.5608C38.0651 38.4625 38.9029 38.4906 39.7221 38.6441C40.2981 38.8583 41.4429 39.689 41.5285 40.0388C41.707 40.7695 41.2739 42.2379 41.2739 42.2379Z" fill="#C53F3F"/>
<path id="Vector_68" d="M37.6873 40.8241C37.6873 40.8241 39.1391 40.5004 40.41 40.9931C41.6809 41.4857 42.245 42.8971 42.245 42.8971C42.245 42.8971 42.1331 42.6043 41.0835 42.2259C39.9197 41.8189 38.9344 41.8118 37.6873 40.8241Z" fill="#C53F3F"/>
<path id="Vector_69" opacity="0.1" d="M39.7221 38.6441C39.7221 38.6441 38.425 39.2034 38.3346 39.2939C38.2441 39.3843 37.6896 40.8266 37.6896 40.8266C37.1022 40.7274 36.5074 40.6788 35.9117 40.6814C35.9593 40.0674 36.7447 38.6632 37.2374 38.5608C38.0651 38.4625 38.9029 38.4906 39.7221 38.6441Z" fill="black"/>
<path id="Vector_70" opacity="0.1" d="M37.6873 40.8241C37.6873 40.8241 39.1391 40.5004 40.41 40.9931C41.6809 41.4857 42.245 42.8971 42.245 42.8971C42.245 42.8971 42.1331 42.6043 41.0835 42.2259C39.9197 41.8189 38.9344 41.8118 37.6873 40.8241Z" fill="black"/>
<path id="Vector_71" opacity="0.3" d="M40.2743 44.618C40.1574 44.8183 40.0261 45.01 39.8816 45.1915C38.9011 46.4268 36.94 46.3649 36.2093 44.9773C36.1649 43.9372 36.4353 42.9078 36.9852 42.0238L37.2375 41.7524C37.2375 41.7524 36.9233 42.9639 37.0161 43.2019C37.1089 43.4399 37.7825 43.1352 38.0943 43.3328C38.2999 43.4834 38.4518 43.6962 38.5274 43.9397L38.3346 44.061C38.3346 44.061 37.9562 43.4565 37.8182 43.4399C37.6801 43.4232 37.0209 44.0253 37.0804 44.2324C37.1399 44.4395 37.0399 44.5442 37.2375 44.637C37.435 44.7298 37.9158 44.4133 37.9158 44.4133L38.1776 44.6513C38.1776 44.6513 37.7587 45.0987 37.8229 45.1892C37.9334 45.2713 38.0616 45.3262 38.1973 45.3494C38.3329 45.3725 38.4722 45.3633 38.6036 45.3224C38.9035 45.2011 38.8916 44.5466 38.9487 44.4799C39.0058 44.4133 38.487 44.1872 38.487 44.1872L38.6464 43.9492C38.6464 43.9492 39.3009 44.3657 39.3247 44.4894C39.3485 44.6132 39.22 44.9892 39.3247 44.9892C39.6636 44.9327 39.987 44.8062 40.2743 44.618Z" fill="black"/>
<path id="Vector_72" d="M40.8526 40.741L40.8169 40.6006L40.9193 40.5006L41.1573 40.5625C41.1466 40.5151 41.1232 40.4714 41.0897 40.4362C41.0562 40.401 41.0137 40.3756 40.9669 40.3626C40.9223 40.35 40.8752 40.3495 40.8305 40.3612C40.7857 40.3729 40.7449 40.3964 40.7122 40.4292C40.7023 40.4221 40.6909 40.4172 40.6789 40.4149L40.0506 40.2364H40.0173C40.0048 40.1906 39.9803 40.1489 39.9463 40.1157C39.9124 40.0825 39.8701 40.059 39.824 40.0476C39.7779 40.0362 39.7296 40.0373 39.6841 40.0508C39.6385 40.0644 39.5974 40.0898 39.5651 40.1246L39.8031 40.1888L39.8388 40.3269L39.7364 40.4268L39.4984 40.365C39.5094 40.4123 39.5328 40.4558 39.5663 40.491C39.5998 40.5261 39.6421 40.5517 39.6888 40.5649C39.7332 40.5773 39.78 40.5779 39.8247 40.5666C39.8694 40.5554 39.9103 40.5326 39.9435 40.5006H39.9768L40.6051 40.6791C40.6161 40.6814 40.6274 40.6814 40.6384 40.6791C40.6509 40.725 40.6754 40.7666 40.7093 40.7998C40.7433 40.833 40.7855 40.8566 40.8317 40.868C40.8778 40.8794 40.9261 40.8783 40.9716 40.8647C41.0172 40.8512 41.0582 40.8257 41.0906 40.791L40.8526 40.741Z" fill="white"/>
<path id="Vector_73" d="M44.2823 62.2705L45.8864 62.7822L44.6083 64.1436C44.6083 64.1436 43.2041 63.6009 43.5135 62.8893L44.2823 62.2705Z" fill="#E4897B"/>
<path id="Vector_74" d="M46.6979 64.5527L46.2172 65.4214L44.6083 64.1433L45.8863 62.782L46.6979 64.5527Z" fill="#E4897B"/>
<path id="Vector_75" d="M30.4639 49.1946C29.7285 50.0371 28.9788 50.9082 28.2672 51.7745C27.9054 52.2053 27.5532 52.6456 27.2319 53.0787C26.9191 53.4832 26.6344 53.9086 26.3798 54.352C26.337 54.429 26.2989 54.5085 26.2656 54.59C26.2656 54.6138 26.2489 54.6329 26.2513 54.6114C26.2537 54.59 26.2513 54.6114 26.2513 54.59V54.4829C26.2397 54.3699 26.2091 54.2597 26.1609 54.1569C26.1381 54.111 26.1127 54.0665 26.0847 54.0236C26.0562 53.9831 26.0205 53.9427 26.0014 53.9189C25.9824 53.8951 25.9491 53.8689 25.9229 53.8451L25.861 53.7975C25.8317 53.7773 25.8006 53.7598 25.7682 53.7451L25.7158 53.7213H25.6896C25.6706 53.7213 25.6896 53.7213 25.7253 53.7356C25.8207 53.7583 25.9179 53.7726 26.0157 53.7784C26.2537 53.7975 26.5179 53.8022 26.7868 53.7975C27.0558 53.7927 27.3342 53.7975 27.6151 53.7761C28.7337 53.7237 29.8856 53.638 31.0304 53.569L31.2684 54.7852C30.144 55.1627 28.9959 55.4656 27.8316 55.692C27.2181 55.8178 26.596 55.8973 25.9705 55.93C25.7791 55.9369 25.5875 55.9313 25.3969 55.9133C25.2656 55.8994 25.1358 55.8739 25.009 55.8371C24.9652 55.8258 24.9223 55.8114 24.8804 55.7943C24.8328 55.7753 24.79 55.761 24.7281 55.73C24.6631 55.6983 24.601 55.6608 24.5425 55.6182C24.5064 55.5947 24.4722 55.5684 24.4401 55.5396C24.3973 55.5039 24.3592 55.4659 24.3211 55.4278C24.2786 55.3816 24.2396 55.3323 24.2045 55.2802C24.1647 55.2242 24.1304 55.1644 24.1022 55.1017C24.0375 54.9664 23.998 54.8204 23.9856 54.6709C23.9832 54.6345 23.9832 54.5979 23.9856 54.5615V54.4544C23.9828 54.4116 23.9828 54.3686 23.9856 54.3258C24.0003 54.1898 24.0265 54.0552 24.0641 53.9236C24.1207 53.7287 24.1907 53.5378 24.2735 53.3524C24.5489 52.7708 24.873 52.2135 25.2422 51.6864C25.5849 51.17 25.9419 50.694 26.3037 50.218C27.0367 49.266 27.7888 48.3877 28.6004 47.5095L30.4639 49.1946Z" fill="#DC897C"/>
<path id="Vector_76" d="M30.0547 45.7865C28.4886 46.0245 26.0325 50.0705 26.0325 50.0705L29.4311 52.2791C30.3028 51.1886 31.0732 50.0207 31.7326 48.7901C32.7584 46.8194 31.9492 45.4866 30.0547 45.7865Z" fill="#C53F3F"/>
<path id="Vector_77" opacity="0.7" d="M30.0547 45.7865C28.4886 46.0245 26.0325 50.0705 26.0325 50.0705L29.4311 52.2791C30.3028 51.1886 31.0732 50.0207 31.7326 48.7901C32.7584 46.8194 31.9492 45.4866 30.0547 45.7865Z" fill="white"/>
<path id="Vector_78" d="M33.5247 46.1554L34.3624 45.5461L35.9237 47.6358L36.5259 46.591L37.1637 47.1074C37.3308 47.3969 37.4188 47.7252 37.4188 48.0594C37.4188 48.3936 37.3308 48.722 37.1637 49.0114L35.9118 47.9856L34.5647 48.8496C34.5647 48.8496 33.132 47.1812 33.5247 46.1554Z" fill="#C53F3F"/>
<path id="Vector_79" d="M31.6302 43.0591C32.1034 43.6602 32.4084 44.3763 32.5139 45.1341C32.6194 45.8918 32.5217 46.6639 32.2308 47.3715C31.9398 48.079 31.466 48.6966 30.858 49.1609C30.25 49.6252 29.5295 49.9195 28.7703 50.0139C28.0111 50.1082 27.2404 49.9992 26.5373 49.6978C25.8341 49.3965 25.2236 48.9137 24.7683 48.2988C24.313 47.684 24.0293 46.9593 23.9461 46.1988C23.863 45.4383 23.9834 44.6693 24.2951 43.9707L26.6536 46.9695L28.9527 46.6386L29.8167 44.4824L27.4581 41.4836C28.2311 41.3405 29.0285 41.4117 29.7639 41.6894C30.4993 41.9671 31.1447 42.4408 31.6302 43.0591Z" fill="#C53F3F"/>
<path id="Vector_80" d="M48.314 78.2164C47.8418 77.6154 47.5377 76.8998 47.4328 76.1427C47.3279 75.3857 47.426 74.6144 47.717 73.9077C48.008 73.2009 48.4814 72.5842 49.089 72.1205C49.6965 71.6568 50.4163 71.3628 51.1748 71.2685C51.9332 71.1743 52.7031 71.2832 53.4057 71.5841C54.1082 71.885 54.7183 72.3671 55.1734 72.981C55.6285 73.595 55.9124 74.3189 55.996 75.0786C56.0796 75.8383 55.9599 76.6066 55.6491 77.3048L53.2906 74.306L50.9915 74.6369L50.1275 76.7955L52.4861 79.7919C51.7131 79.935 50.9157 79.8638 50.1803 79.5861C49.4449 79.3084 48.7994 78.8347 48.314 78.2164Z" fill="#C53F3F"/>
<g id="Group" opacity="0.2">
<path id="Vector_81" d="M31.6302 43.0591C32.1034 43.6602 32.4084 44.3763 32.5139 45.1341C32.6194 45.8918 32.5217 46.6639 32.2308 47.3715C31.9398 48.079 31.466 48.6966 30.858 49.1609C30.25 49.6252 29.5295 49.9195 28.7703 50.0139C28.0111 50.1082 27.2404 49.9992 26.5373 49.6978C25.8341 49.3965 25.2236 48.9137 24.7683 48.2988C24.313 47.684 24.0293 46.9593 23.9461 46.1988C23.863 45.4383 23.9834 44.6693 24.2951 43.9707L26.6536 46.9695L28.9527 46.6386L29.8167 44.4824L27.4581 41.4836C28.2311 41.3405 29.0285 41.4117 29.7639 41.6894C30.4993 41.9671 31.1447 42.4408 31.6302 43.0591Z" fill="white"/>
<path id="Vector_82" d="M48.314 78.2164C47.8418 77.6154 47.5377 76.8998 47.4328 76.1427C47.3279 75.3857 47.426 74.6144 47.717 73.9077C48.008 73.2009 48.4814 72.5842 49.089 72.1205C49.6965 71.6568 50.4163 71.3628 51.1748 71.2685C51.9332 71.1743 52.7031 71.2832 53.4057 71.5841C54.1082 71.885 54.7183 72.3671 55.1734 72.981C55.6285 73.595 55.9124 74.3189 55.996 75.0786C56.0796 75.8383 55.9599 76.6066 55.6491 77.3048L53.2906 74.306L50.9915 74.6369L50.1275 76.7955L52.4861 79.7919C51.7131 79.935 50.9157 79.8638 50.1803 79.5861C49.4449 79.3084 48.7994 78.8347 48.314 78.2164Z" fill="white"/>
</g>
<path id="Vector_83" d="M50.4774 74.0015C50.2422 74.1864 49.9729 74.3231 49.6849 74.404C49.3968 74.4848 49.0957 74.5081 48.7986 74.4725C48.5016 74.4369 48.2145 74.3431 47.9537 74.1966C47.6929 74.05 47.4635 73.8535 47.2787 73.6183L29.074 50.4752C28.889 50.2401 28.7521 49.971 28.6711 49.683C28.59 49.395 28.5665 49.094 28.6019 48.7969C28.6373 48.4999 28.7308 48.2127 28.8771 47.9518C29.0235 47.691 29.2198 47.4615 29.4548 47.2764C29.6899 47.0914 29.959 46.9545 30.247 46.8734C30.535 46.7924 30.836 46.7689 31.1331 46.8043C31.4301 46.8397 31.7173 46.9332 31.9782 47.0795C32.239 47.2259 32.4685 47.4222 32.6536 47.6572L50.8606 70.8027C51.0455 71.0379 51.1823 71.3072 51.2631 71.5953C51.3439 71.8833 51.3672 72.1844 51.3316 72.4815C51.296 72.7785 51.2023 73.0656 51.0557 73.3264C50.9091 73.5872 50.7126 73.8166 50.4774 74.0015Z" fill="#C53F3F"/>
<path id="Vector_84" opacity="0.2" d="M50.4774 74.0015C50.2422 74.1864 49.9729 74.3231 49.6849 74.404C49.3968 74.4848 49.0957 74.5081 48.7986 74.4725C48.5016 74.4369 48.2145 74.3431 47.9537 74.1966C47.6929 74.05 47.4635 73.8535 47.2787 73.6183L29.074 50.4752C28.889 50.2401 28.7521 49.971 28.6711 49.683C28.59 49.395 28.5665 49.094 28.6019 48.7969C28.6373 48.4999 28.7308 48.2127 28.8771 47.9518C29.0235 47.691 29.2198 47.4615 29.4548 47.2764C29.6899 47.0914 29.959 46.9545 30.247 46.8734C30.535 46.7924 30.836 46.7689 31.1331 46.8043C31.4301 46.8397 31.7173 46.9332 31.9782 47.0795C32.239 47.2259 32.4685 47.4222 32.6536 47.6572L50.8606 70.8027C51.0455 71.0379 51.1823 71.3072 51.2631 71.5953C51.3439 71.8833 51.3672 72.1844 51.3316 72.4815C51.296 72.7785 51.2023 73.0656 51.0557 73.3264C50.9091 73.5872 50.7126 73.8166 50.4774 74.0015Z" fill="white"/>
<path id="Vector_85" opacity="0.2" d="M49.4112 72.6449C49.2906 72.74 49.1524 72.8104 49.0046 72.8521C48.8567 72.8938 48.7021 72.9059 48.5496 72.8878C48.3971 72.8697 48.2496 72.8216 48.1157 72.7465C47.9817 72.6713 47.8639 72.5705 47.769 72.4498L30.3259 50.2753C30.1343 50.0311 30.0473 49.7209 30.0839 49.4127C30.1204 49.1045 30.2777 48.8233 30.5211 48.6307C30.7658 48.44 31.076 48.3537 31.3841 48.3907C31.6922 48.4277 31.9731 48.585 32.1657 48.8283L49.6087 71.0027C49.7999 71.2468 49.8865 71.5568 49.8495 71.8647C49.8125 72.1725 49.6548 72.4531 49.4112 72.6449Z" fill="black"/>
<path id="Vector_86" d="M30.6567 53.8619L31.9039 52.741L32.5203 54.7711C32.5203 54.7711 31.2494 55.4851 30.7972 54.8473L30.6567 53.8619Z" fill="#E4897B"/>
<path id="Vector_87" d="M33.2724 52.6458L33.7055 54.3451L32.5203 54.7711L31.9015 52.741L33.2724 52.6458Z" fill="#E4897B"/>
<path id="Vector_88" d="M23.4811 96.0213L20.33 94.9051L20.6989 93.8936L24.1808 95.0693L23.4811 96.0213Z" fill="#263238"/>
<path id="Vector_89" d="M22.0269 97.6252C22.0265 97.6169 22.0285 97.6086 22.0328 97.6014C22.037 97.5943 22.0432 97.5885 22.0507 97.5848C22.1269 97.5491 22.8052 97.2325 23.0027 97.3468C23.0214 97.3575 23.0368 97.3732 23.0473 97.3921C23.0578 97.4109 23.0629 97.4323 23.0622 97.4539C23.0648 97.4894 23.0589 97.5251 23.0448 97.5578C23.0307 97.5905 23.0089 97.6194 22.9813 97.6419C22.7933 97.7942 22.322 97.7157 22.0578 97.6538C22.0505 97.6526 22.0436 97.6492 22.0381 97.6442C22.0326 97.6391 22.0287 97.6325 22.0269 97.6252ZM22.1911 97.6062C22.5529 97.68 22.8266 97.6728 22.9313 97.5848C22.95 97.5705 22.9647 97.5515 22.9739 97.5298C22.9831 97.5081 22.9864 97.4844 22.9837 97.461C22.9843 97.4529 22.9826 97.4448 22.9788 97.4377C22.975 97.4305 22.9693 97.4246 22.9622 97.4205H22.948C22.8242 97.3658 22.4577 97.4919 22.1911 97.6062Z" fill="#C53F3F"/>
<path id="Vector_90" d="M22.0436 97.6514C22.0381 97.6472 22.0338 97.6418 22.0309 97.6356C22.028 97.6294 22.0266 97.6226 22.0269 97.6157C22.0536 97.3826 22.1527 97.1637 22.3101 96.9898C22.3409 96.9649 22.3763 96.9467 22.4144 96.936C22.4525 96.9254 22.4923 96.9226 22.5315 96.9279C22.6386 96.9446 22.6671 96.9993 22.6719 97.0421C22.6957 97.2302 22.2839 97.5729 22.0816 97.6562C22.0772 97.6585 22.0723 97.6597 22.0674 97.6597C22.0624 97.6597 22.0575 97.6585 22.0531 97.6562L22.0436 97.6514ZM22.5196 97.0064C22.4909 97.0025 22.4618 97.0045 22.434 97.0123C22.4061 97.0201 22.3802 97.0335 22.3577 97.0517C22.2285 97.1896 22.1453 97.3642 22.1197 97.5515C22.3268 97.4372 22.5957 97.1659 22.5957 97.0517C22.5933 97.0432 22.5887 97.0355 22.5824 97.0292C22.5762 97.023 22.5685 97.0184 22.56 97.016C22.5471 97.0109 22.5334 97.0077 22.5196 97.0064Z" fill="#C53F3F"/>
<path id="Vector_91" d="M21.896 97.4229L20.0872 97.3658C20.0545 97.365 20.0226 97.3752 19.9963 97.3945C19.97 97.4139 19.9509 97.4415 19.942 97.4729L19.5541 98.927C19.5439 98.9631 19.5424 99.0011 19.5497 99.0379C19.5571 99.0747 19.573 99.1092 19.5962 99.1387C19.6194 99.1682 19.6492 99.1917 19.6833 99.2075C19.7173 99.2232 19.7546 99.2307 19.7921 99.2293C20.4466 99.2293 21.389 99.2293 22.2101 99.2579C23.1621 99.2888 23.7786 99.2436 24.9019 99.2817C25.5802 99.3031 25.7992 98.6248 25.516 98.5534C24.2331 98.2297 23.393 98.2892 22.3006 97.5657C22.1822 97.4802 22.0418 97.4306 21.896 97.4229Z" fill="#263238"/>
<path id="Vector_92" d="M27.0059 59.8689L29.3502 60.502L29.1407 61.3612L26.656 60.7638L27.0059 59.8689Z" fill="#263238"/>
<path id="Vector_93" d="M29.6167 60.571L35.1502 62.0633L35.0216 62.7821L29.3787 61.4207L29.6167 60.571Z" fill="#263238"/>
<path id="Vector_94" d="M35.9284 62.2729L35.8499 62.9797L35.2073 62.8274L35.3525 62.1182L35.9284 62.2729Z" fill="#263238"/>
<path id="Vector_95" d="M31.8777 61.2376L31.7301 61.9326C31.7237 61.9613 31.7288 61.9913 31.7444 62.0163C31.76 62.0412 31.7848 62.059 31.8134 62.0658L33.1177 62.3729C33.1323 62.376 33.1475 62.3762 33.1623 62.3735C33.1771 62.3708 33.1912 62.3651 33.2038 62.357C33.2164 62.3488 33.2272 62.3382 33.2357 62.3258C33.2442 62.3134 33.2502 62.2995 33.2533 62.2848L33.389 61.6303C33.3948 61.6023 33.3897 61.5731 33.3746 61.5487C33.3596 61.5244 33.3357 61.5067 33.3081 61.4994L32.0181 61.1519C32.0032 61.148 31.9878 61.1472 31.9726 61.1494C31.9574 61.1516 31.9428 61.1569 31.9297 61.1649C31.9166 61.1729 31.9052 61.1835 31.8963 61.196C31.8873 61.2084 31.881 61.2226 31.8777 61.2376Z" fill="white"/>
<path id="Vector_96" d="M38.2228 52.5599L38.187 52.4218L38.2894 52.3195L38.5274 52.3838C38.5169 52.3374 38.4943 52.2947 38.462 52.2599C38.4296 52.2252 38.3886 52.1996 38.3431 52.1858C38.2977 52.172 38.2494 52.1705 38.2031 52.1815C38.1569 52.1924 38.1144 52.2154 38.0799 52.2481L38.049 52.2338L37.4207 52.0553H37.3874C37.3747 52.0108 37.3507 51.9703 37.3177 51.9378C37.2848 51.9053 37.244 51.8818 37.1994 51.8697C37.1526 51.8569 37.1032 51.8573 37.0566 51.8707C37.01 51.8841 36.968 51.9101 36.9352 51.9458L37.1613 52.0077L37.1994 52.1458L37.097 52.2481L36.859 52.1838C36.8684 52.2306 36.8903 52.274 36.9223 52.3094C36.9543 52.3447 36.9954 52.3707 37.041 52.3846C37.0867 52.3985 37.1352 52.3998 37.1815 52.3884C37.2278 52.3769 37.2702 52.3531 37.3041 52.3195C37.3139 52.3252 37.3243 52.33 37.335 52.3338L37.9657 52.5123H37.999C38.0115 52.5581 38.036 52.5998 38.0699 52.633C38.1039 52.6662 38.1461 52.6897 38.1922 52.7011C38.2384 52.7125 38.2867 52.7114 38.3322 52.6979C38.3778 52.6843 38.4188 52.6589 38.4512 52.6241L38.2228 52.5599Z" fill="#C53F3F"/>
</g>
<g id="freepik--Device--inject-106">
<path id="Vector_97" d="M64.1909 98.4037V99.1177C64.1909 99.1606 64.208 99.2018 64.2383 99.2321C64.2687 99.2625 64.3099 99.2795 64.3528 99.2795H84.6185C84.7912 99.2792 84.9613 99.2365 85.1138 99.1553C85.2662 99.074 85.3964 98.9566 85.4929 98.8133C85.5895 98.67 85.6494 98.5052 85.6675 98.3334C85.6856 98.1616 85.6613 97.988 85.5967 97.8277L79.1707 81.9246L68.7939 81.996L69.1485 84.0594L71.438 97.416C71.4541 97.5171 71.4482 97.6205 71.4208 97.7191C71.3934 97.8177 71.3451 97.9093 71.2792 97.9876C71.2133 98.066 71.1313 98.1292 71.0388 98.1731C70.9463 98.2169 70.8454 98.2404 70.7431 98.2418H64.3528C64.3314 98.2415 64.3102 98.2455 64.2905 98.2535C64.2707 98.2615 64.2527 98.2734 64.2376 98.2885C64.2225 98.3036 64.2106 98.3216 64.2026 98.3414C64.1946 98.3611 64.1906 98.3823 64.1909 98.4037Z" fill="#C53F3F"/>
<path id="Vector_98" opacity="0.6" d="M64.1909 98.4037V99.1177C64.1909 99.1606 64.208 99.2018 64.2383 99.2321C64.2687 99.2625 64.3099 99.2795 64.3528 99.2795H84.6185C84.7912 99.2792 84.9613 99.2365 85.1138 99.1553C85.2662 99.074 85.3964 98.9566 85.4929 98.8133C85.5895 98.67 85.6494 98.5052 85.6675 98.3334C85.6856 98.1616 85.6613 97.988 85.5967 97.8277L81.6173 87.9698L79.1754 81.9246L68.7986 81.996L69.1532 84.0594L70.1481 89.8666L71.4428 97.416C71.4588 97.5171 71.453 97.6205 71.4256 97.7191C71.3981 97.8177 71.3498 97.9093 71.2839 97.9876C71.218 98.066 71.136 98.1292 71.0435 98.1731C70.951 98.2169 70.8502 98.2404 70.7478 98.2418H64.3528C64.3314 98.2415 64.3102 98.2455 64.2905 98.2535C64.2707 98.2615 64.2527 98.2734 64.2376 98.2885C64.2225 98.3036 64.2106 98.3216 64.2026 98.3414C64.1946 98.3611 64.1906 98.3823 64.1909 98.4037Z" fill="white"/>
<path id="Vector_99" opacity="0.2" d="M70.7478 98.2442H83.9306C84.0057 98.2413 84.079 98.2207 84.1446 98.184C84.2102 98.1474 84.2662 98.0957 84.308 98.0332C84.3498 97.9708 84.3762 97.8994 84.385 97.8247C84.3939 97.7501 84.385 97.6745 84.359 97.604L78.7279 84.0618H69.1532L71.4428 97.4183C71.4588 97.5194 71.4529 97.6228 71.4255 97.7214C71.3981 97.8201 71.3498 97.9116 71.2839 97.99C71.218 98.0683 71.136 98.1315 71.0435 98.1754C70.951 98.2193 70.8502 98.2427 70.7478 98.2442Z" fill="black"/>
<path id="Vector_100" opacity="0.1" d="M68.7986 81.9982L69.1532 84.0616L70.148 89.8688L81.6173 87.972L79.1754 81.9268L68.7986 81.9982Z" fill="black"/>
<path id="Vector_101" d="M48.621 52.3604H96.6636C96.8251 52.3604 96.985 52.3922 97.1342 52.4541C97.2833 52.5159 97.4188 52.6066 97.5329 52.7209C97.6469 52.8352 97.7374 52.9708 97.7989 53.1201C97.8605 53.2694 97.892 53.4293 97.8917 53.5908V86.104C97.8917 86.4299 97.7624 86.7425 97.5322 86.9732C97.3019 87.2039 96.9896 87.3338 96.6636 87.3345H48.621C48.2946 87.3345 47.9817 87.2048 47.7509 86.9741C47.5201 86.7433 47.3905 86.4303 47.3905 86.104V53.5813C47.3924 53.2564 47.5229 52.9455 47.7536 52.7167C47.9842 52.4878 48.2961 52.3597 48.621 52.3604Z" fill="#C53F3F"/>
<path id="Vector_102" opacity="0.7" d="M48.621 52.3604H96.6636C96.8251 52.3604 96.985 52.3922 97.1342 52.4541C97.2833 52.5159 97.4188 52.6066 97.5329 52.7209C97.6469 52.8352 97.7374 52.9708 97.7989 53.1201C97.8605 53.2694 97.892 53.4293 97.8917 53.5908V86.104C97.8917 86.4299 97.7624 86.7425 97.5322 86.9732C97.3019 87.2039 96.9896 87.3338 96.6636 87.3345H48.621C48.2946 87.3345 47.9817 87.2048 47.7509 86.9741C47.5201 86.7433 47.3905 86.4303 47.3905 86.104V53.5813C47.3924 53.2564 47.5229 52.9455 47.7536 52.7167C47.9842 52.4878 48.2961 52.3597 48.621 52.3604Z" fill="white"/>
<path id="Vector_103" opacity="0.2" d="M95.645 87.3318H96.6637C96.9894 87.3318 97.3017 87.2024 97.532 86.9721C97.7624 86.7418 97.8917 86.4295 97.8917 86.1037V53.581C97.8921 53.4196 97.8605 53.2596 97.7989 53.1103C97.7374 52.9611 97.647 52.8254 97.5329 52.7111C97.4188 52.5968 97.2833 52.5062 97.1342 52.4443C96.985 52.3824 96.8251 52.3506 96.6637 52.3506H95.645C95.8065 52.3506 95.9664 52.3824 96.1155 52.4443C96.2647 52.5062 96.4002 52.5968 96.5142 52.7111C96.6283 52.8254 96.7187 52.9611 96.7803 53.1103C96.8419 53.2596 96.8734 53.4196 96.8731 53.581V86.1037C96.8731 86.4295 96.7437 86.7418 96.5134 86.9721C96.2831 87.2024 95.9707 87.3318 95.645 87.3318Z" fill="black"/>
<path id="Vector_104" d="M95.764 53.5549H48.4972V84.9162H95.764V53.5549Z" fill="#263238"/>
<path id="Vector_105" d="M95.764 53.5549H48.4972V55.9611H95.764V53.5549Z" fill="#C53F3F"/>
<path id="Vector_106" opacity="0.2" d="M94.6597 54.8449C94.6597 54.9612 94.6252 55.0749 94.5607 55.1715C94.4961 55.2682 94.4043 55.3436 94.2968 55.3881C94.1894 55.4325 94.0712 55.4442 93.9572 55.4215C93.8432 55.3988 93.7384 55.3428 93.6562 55.2606C93.574 55.1784 93.518 55.0737 93.4953 54.9596C93.4726 54.8456 93.4843 54.7274 93.5288 54.62C93.5733 54.5126 93.6486 54.4207 93.7453 54.3562C93.8419 54.2916 93.9556 54.2571 94.0719 54.2571C94.2276 54.2577 94.3767 54.3198 94.4869 54.43C94.597 54.5401 94.6591 54.6892 94.6597 54.8449Z" fill="black"/>
<path id="Vector_107" opacity="0.2" d="M92.7176 54.8449C92.719 54.9614 92.6857 55.0758 92.622 55.1734C92.5582 55.271 92.4669 55.3475 92.3596 55.3931C92.2524 55.4386 92.1339 55.4513 92.0194 55.4294C91.9049 55.4076 91.7995 55.3522 91.7166 55.2702C91.6337 55.1883 91.577 55.0836 91.5537 54.9694C91.5304 54.8551 91.5417 54.7366 91.5859 54.6287C91.6302 54.5209 91.7055 54.4287 91.8024 54.3637C91.8992 54.2988 92.0131 54.2642 92.1297 54.2642C92.2844 54.2641 92.4328 54.3251 92.5429 54.4338C92.6529 54.5425 92.7157 54.6902 92.7176 54.8449Z" fill="black"/>
<path id="Vector_108" opacity="0.2" d="M90.7779 54.8448C90.7793 54.9618 90.7457 55.0766 90.6814 55.1745C90.6171 55.2723 90.5251 55.3488 90.4171 55.394C90.3091 55.4392 90.1901 55.4512 90.0753 55.4283C89.9605 55.4055 89.8551 55.3489 89.7726 55.2657C89.6902 55.1826 89.6345 55.0768 89.6126 54.9618C89.5907 54.8468 89.6036 54.7278 89.6497 54.6202C89.6958 54.5126 89.773 54.4212 89.8714 54.3578C89.9698 54.2943 90.0848 54.2617 90.2019 54.264C90.3543 54.2677 90.4994 54.3302 90.6068 54.4385C90.7141 54.5467 90.7754 54.6923 90.7779 54.8448Z" fill="black"/>
<path id="Vector_109" opacity="0.4" d="M95.764 55.9729H48.4972V64.1149H95.764V55.9729Z" fill="white"/>
<path id="Vector_110" d="M49.5801 56.3347L48.4972 58.2744V56.3347H49.5801Z" fill="#263238"/>
<path id="Vector_111" d="M55.4182 56.3347L51.2699 63.7794H48.4972V62.8678L52.1386 56.3347H55.4182Z" fill="#263238"/>
<path id="Vector_112" d="M57.0914 63.8102H53.8118L57.9791 56.3323H61.2564L57.0914 63.8102Z" fill="#263238"/>
<path id="Vector_113" d="M62.9295 63.8102H59.6499L63.8173 56.3323H67.0969L62.9295 63.8102Z" fill="#263238"/>
<path id="Vector_114" d="M68.7677 63.8102H65.488L69.6554 56.3323H72.9351L68.7677 63.8102Z" fill="#263238"/>
<path id="Vector_115" d="M74.6057 63.8102H71.3285L75.4935 56.3323H78.7731L74.6057 63.8102Z" fill="#263238"/>
<path id="Vector_116" d="M80.4464 63.7555H77.1667L81.3341 56.2776H84.6114L80.4464 63.7555Z" fill="#263238"/>
<path id="Vector_117" d="M86.2845 63.7555H83.0049L87.1723 56.2776H90.4519L86.2845 63.7555Z" fill="#263238"/>
<path id="Vector_118" d="M95.7641 56.3086V57.2225L92.1227 63.7556H88.843L92.9937 56.3086H95.7641Z" fill="#263238"/>
<path id="Vector_119" d="M95.7641 61.8706V63.7794H94.7002L95.7641 61.8706Z" fill="#263238"/>
<path id="Vector_120" opacity="0.4" d="M95.764 76.7432H48.4972V84.8851H95.764V76.7432Z" fill="white"/>
<path id="Vector_121" d="M49.5801 77.1716L48.4972 79.0947V77.1716H49.5801Z" fill="#263238"/>
<path id="Vector_122" d="M55.4182 77.1716L51.2699 84.5544H48.4972V83.65L52.1386 77.1716H55.4182Z" fill="#263238"/>
<path id="Vector_123" d="M57.0914 84.5853H53.8118L57.9791 77.1716H61.2564L57.0914 84.5853Z" fill="#263238"/>
<path id="Vector_124" d="M62.9295 84.5853H59.6499L63.8173 77.1716H67.0969L62.9295 84.5853Z" fill="#263238"/>
<path id="Vector_125" d="M68.7677 84.5853H65.488L69.6554 77.1716H72.9351L68.7677 84.5853Z" fill="#263238"/>
<path id="Vector_126" d="M74.6057 84.5853H71.3285L75.4935 77.1716H78.7731L74.6057 84.5853Z" fill="#263238"/>
<path id="Vector_127" d="M80.4464 84.5306H77.1667L81.3341 77.1169H84.6114L80.4464 84.5306Z" fill="#263238"/>
<path id="Vector_128" d="M86.2845 84.5306H83.0049L87.1723 77.1169H90.4519L86.2845 84.5306Z" fill="#263238"/>
<path id="Vector_129" d="M95.7641 77.1455V78.0499L92.1227 84.5283H88.843L92.9937 77.1455H95.7641Z" fill="#263238"/>
<path id="Vector_130" d="M95.7641 82.6599V84.5544H94.7002L95.7641 82.6599Z" fill="#263238"/>
<path id="Vector_131" d="M64.3004 71.6382V72.3165H61.0398V67.9683H64.2147V68.6442H61.849V69.7747H63.9482V70.4482H61.849V71.6382H64.3004Z" fill="white"/>
<path id="Vector_132" d="M68.0465 72.3165L67.1588 71.0432C67.1016 71.0432 67.0469 71.0432 66.9898 71.0432H66.0092V72.3118H65.2119V67.9683H67.0017C68.1441 67.9683 68.8533 68.5514 68.8533 69.5153C68.8664 69.8131 68.7835 70.1073 68.6168 70.3545C68.4501 70.6017 68.2085 70.7889 67.9275 70.8885L68.9271 72.3165H68.0465ZM66.9517 68.6513H65.9997V70.384H66.9517C67.6657 70.384 68.0275 70.0603 68.0275 69.5153C68.0275 68.9702 67.6609 68.6513 66.9517 68.6513Z" fill="white"/>
<path id="Vector_133" d="M72.5899 72.3165L71.7021 71.0432C71.645 71.0432 71.5903 71.0432 71.5332 71.0432H70.5526V72.3118H69.7339V67.9683H71.5213C72.666 67.9683 73.3729 68.5514 73.3729 69.5153C73.386 69.8131 73.3031 70.1073 73.1364 70.3545C72.9697 70.6017 72.7281 70.7889 72.4471 70.8885L73.4467 72.3165H72.5899ZM71.4975 68.6513H70.5455V70.384H71.4975C72.2115 70.384 72.5708 70.0603 72.5708 69.5153C72.5708 68.9702 72.1996 68.6513 71.4927 68.6513H71.4975Z" fill="white"/>
<path id="Vector_134" d="M73.968 70.1411C73.968 68.8559 74.9629 67.9062 76.3099 67.9062C77.657 67.9062 78.6519 68.8582 78.6519 70.1411C78.6519 71.4239 77.6594 72.3783 76.3099 72.3783C74.9605 72.3783 73.968 71.4286 73.968 70.1411ZM77.8379 70.1411C77.8379 69.8389 77.7483 69.5435 77.5804 69.2922C77.4125 69.0409 77.1739 68.8451 76.8947 68.7294C76.6155 68.6138 76.3082 68.5835 76.0118 68.6425C75.7155 68.7014 75.4432 68.8469 75.2295 69.0606C75.0158 69.2743 74.8703 69.5466 74.8113 69.843C74.7524 70.1394 74.7826 70.4466 74.8983 70.7258C75.0139 71.005 75.2098 71.2436 75.461 71.4115C75.7123 71.5794 76.0077 71.669 76.3099 71.669C76.5123 71.6753 76.7138 71.6401 76.902 71.5655C77.0902 71.4909 77.2612 71.3786 77.4043 71.2355C77.5475 71.0923 77.6598 70.9213 77.7344 70.7331C77.8089 70.5449 77.8442 70.3434 77.8379 70.1411Z" fill="white"/>
<path id="Vector_135" d="M82.3479 72.3165L81.4601 71.0432C81.403 71.0432 81.3483 71.0432 81.2935 71.0432H80.3106V72.3118H79.5038V67.9683H81.2935C82.4359 67.9683 83.1428 68.5514 83.1428 69.5153C83.1559 69.8131 83.073 70.1073 82.9063 70.3545C82.7396 70.6017 82.498 70.7889 82.217 70.8885L83.219 72.3165H82.3479ZM81.2555 68.6513H80.3035V70.384H81.2555C81.9695 70.384 82.3289 70.0603 82.3289 69.5153C82.3289 68.9702 81.9671 68.6513 81.2602 68.6513H81.2555Z" fill="white"/>
<path id="Vector_136" opacity="0.4" d="M87.0151 73.0019H92.1345C92.2473 73.002 92.3582 72.9724 92.4559 72.916C92.5537 72.8596 92.6348 72.7785 92.6913 72.6808C92.7477 72.5831 92.7775 72.4723 92.7775 72.3594C92.7775 72.2466 92.7478 72.1357 92.6914 72.038L90.1305 67.6041C90.0745 67.5061 89.9936 67.4248 89.896 67.3682C89.7984 67.3115 89.6876 67.2817 89.5748 67.2817C89.462 67.2817 89.3511 67.3115 89.2535 67.3682C89.156 67.4248 89.0751 67.5061 89.019 67.6041L86.4582 72.038C86.4017 72.1357 86.3721 72.2466 86.3721 72.3594C86.3721 72.4723 86.4018 72.5831 86.4583 72.6808C86.5147 72.7785 86.5959 72.8596 86.6936 72.916C86.7914 72.9724 86.9022 73.002 87.0151 73.0019ZM89.9187 68.8131L89.8068 71.0218H89.3308L89.2142 68.8131H89.9187ZM89.2047 71.781C89.204 71.7325 89.2132 71.6843 89.2317 71.6395C89.2503 71.5947 89.2778 71.5541 89.3125 71.5202C89.3473 71.4864 89.3885 71.46 89.4338 71.4426C89.4791 71.4252 89.5275 71.4173 89.576 71.4192C89.6255 71.416 89.6753 71.4229 89.7221 71.4396C89.7689 71.4563 89.8118 71.4824 89.8481 71.5163C89.8844 71.5502 89.9135 71.5911 89.9334 71.6366C89.9533 71.6822 89.9637 71.7313 89.9639 71.781C89.9639 71.8307 89.9539 71.8798 89.9345 71.9255C89.9151 71.9712 89.8866 72.0126 89.8509 72.047C89.8151 72.0815 89.7727 72.1083 89.7263 72.126C89.6799 72.1437 89.6304 72.1518 89.5807 72.1499C89.5308 72.1529 89.4809 72.1455 89.434 72.1282C89.3871 72.1109 89.3443 72.084 89.3083 72.0494C89.2723 72.0147 89.2439 71.973 89.2248 71.9268C89.2058 71.8806 89.1965 71.8309 89.1975 71.781H89.2047Z" fill="white"/>
<path id="Vector_137" opacity="0.4" d="M52.1219 73.0019H57.2413C57.3539 73.0016 57.4645 72.9716 57.5619 72.9151C57.6593 72.8586 57.7401 72.7774 57.7963 72.6798C57.8525 72.5821 57.882 72.4715 57.8819 72.3588C57.8818 72.2462 57.8521 72.1356 57.7958 72.038L55.2373 67.6041C55.1813 67.5061 55.1004 67.4248 55.0028 67.3682C54.9052 67.3115 54.7944 67.2817 54.6816 67.2817C54.5688 67.2817 54.458 67.3115 54.3604 67.3682C54.2628 67.4248 54.1819 67.5061 54.1259 67.6041L51.565 72.038C51.5086 72.1357 51.4789 72.2466 51.4789 72.3594C51.4789 72.4723 51.5086 72.5831 51.5651 72.6808C51.6215 72.7785 51.7027 72.8596 51.8005 72.916C51.8982 72.9724 52.0091 73.002 52.1219 73.0019ZM55.0255 68.8131L54.9113 71.0218H54.4353L54.3186 68.8131H55.0255ZM54.3115 71.781C54.3108 71.7325 54.32 71.6843 54.3386 71.6395C54.3571 71.5947 54.3846 71.5541 54.4193 71.5202C54.4541 71.4864 54.4953 71.46 54.5406 71.4426C54.5859 71.4252 54.6343 71.4173 54.6828 71.4192C54.732 71.4166 54.7812 71.4241 54.8274 71.4411C54.8737 71.4581 54.916 71.4843 54.9518 71.5181C54.9876 71.5519 55.0162 71.5926 55.0358 71.6378C55.0555 71.683 55.0657 71.7317 55.066 71.781C55.066 71.8307 55.056 71.8798 55.0366 71.9255C55.0171 71.9712 54.9887 72.0126 54.9529 72.047C54.9171 72.0815 54.8748 72.1083 54.8283 72.126C54.7819 72.1437 54.7324 72.1518 54.6828 72.1499C54.6339 72.1512 54.5852 72.1425 54.5397 72.1245C54.4943 72.1064 54.4529 72.0794 54.4182 72.0449C54.3835 72.0104 54.3561 71.9692 54.3378 71.9239C54.3195 71.8785 54.3105 71.8299 54.3115 71.781Z" fill="white"/>
<path id="Vector_138" opacity="0.1" d="M53.4238 53.55C59.9593 60.0974 76.7478 74.6678 95.764 73.592V53.55H53.4238Z" fill="white"/>
<path id="Vector_139" opacity="0.1" d="M48.4972 65.5882V84.9186H76.9549C75.8624 81.013 73.6824 75.6675 69.4507 71.8476C61.8371 64.9742 53.0025 64.9932 48.4972 65.5882Z" fill="white"/>
</g>
<g id="freepik--tool-box--inject-106">
<path id="Vector_140" d="M89.012 97.8179L89.8593 98.1892C89.6834 98.3604 89.4624 98.4779 89.2222 98.528C88.9819 98.5782 88.7324 98.5589 88.5027 98.4724C88.2396 98.3537 88.0287 98.1434 87.9092 97.8807C87.7897 97.618 87.7697 97.3208 87.853 97.0444C87.9051 96.8505 88.0126 96.676 88.1624 96.5423L85.8585 90.6565C85.0303 90.6898 84.6804 89.914 84.6995 89.3808L85.542 89.7545C85.5896 89.7798 85.6419 89.795 85.6956 89.7991C85.7493 89.8032 85.8033 89.7961 85.8542 89.7783C85.905 89.7605 85.9516 89.7324 85.9911 89.6957C86.0305 89.659 86.062 89.6145 86.0834 89.5651C86.1048 89.5156 86.1158 89.4623 86.1156 89.4084C86.1154 89.3545 86.104 89.3013 86.0822 89.252C86.0604 89.2027 86.0287 89.1585 85.9889 89.1221C85.9492 89.0857 85.9024 89.0579 85.8514 89.0405L85.0041 88.6692C85.1798 88.4978 85.4008 88.3801 85.6411 88.33C85.8814 88.2798 86.1311 88.2992 86.3607 88.386C86.6253 88.5011 86.8398 88.7073 86.9652 88.9672C87.0906 89.2271 87.1185 89.5234 87.0438 89.8021C87.0045 89.9894 86.908 90.1599 86.7677 90.29L89.0715 96.1781C89.7165 96.2138 90.2163 96.9326 90.1973 97.4657L89.3381 97.1039C89.2414 97.0623 89.1323 97.0604 89.0342 97.0987C88.9362 97.137 88.8573 97.2125 88.8145 97.3086C88.7749 97.4025 88.7733 97.5082 88.8102 97.6033C88.847 97.6983 88.9194 97.7753 89.012 97.8179Z" fill="#C53F3F"/>
<path id="Vector_141" opacity="0.2" d="M89.012 97.8179L89.8593 98.1892C89.6834 98.3604 89.4624 98.4779 89.2222 98.528C88.9819 98.5782 88.7324 98.5589 88.5027 98.4724C88.2396 98.3537 88.0287 98.1434 87.9092 97.8807C87.7897 97.618 87.7697 97.3208 87.853 97.0444C87.9051 96.8505 88.0126 96.676 88.1624 96.5423L85.8585 90.6565C85.0303 90.6898 84.6804 89.914 84.6995 89.3808L85.542 89.7545C85.5896 89.7798 85.6419 89.795 85.6956 89.7991C85.7493 89.8032 85.8033 89.7961 85.8542 89.7783C85.905 89.7605 85.9516 89.7324 85.9911 89.6957C86.0305 89.659 86.062 89.6145 86.0834 89.5651C86.1048 89.5156 86.1158 89.4623 86.1156 89.4084C86.1154 89.3545 86.104 89.3013 86.0822 89.252C86.0604 89.2027 86.0287 89.1585 85.9889 89.1221C85.9492 89.0857 85.9024 89.0579 85.8514 89.0405L85.0041 88.6692C85.1798 88.4978 85.4008 88.3801 85.6411 88.33C85.8814 88.2798 86.1311 88.2992 86.3607 88.386C86.6253 88.5011 86.8398 88.7073 86.9652 88.9672C87.0906 89.2271 87.1185 89.5234 87.0438 89.8021C87.0045 89.9894 86.908 90.1599 86.7677 90.29L89.0715 96.1781C89.7165 96.2138 90.2163 96.9326 90.1973 97.4657L89.3381 97.1039C89.2414 97.0623 89.1323 97.0604 89.0342 97.0987C88.9362 97.137 88.8573 97.2125 88.8145 97.3086C88.7749 97.4025 88.7733 97.5082 88.8102 97.6033C88.847 97.6983 88.9194 97.7753 89.012 97.8179Z" fill="white"/>
<path id="Vector_142" d="M82.4408 92.6153L81.5436 92.8391C81.5777 92.5959 81.6808 92.3675 81.8407 92.1811C82.0005 91.9947 82.2105 91.8579 82.4456 91.7871C82.7267 91.7203 83.0226 91.7581 83.2779 91.8934C83.5332 92.0288 83.7306 92.2524 83.8331 92.5225C83.9101 92.7084 83.9307 92.9128 83.8926 93.1104L89.3095 96.3686C89.945 95.8355 90.6947 96.2377 91.0065 96.6709L90.1116 96.8898C90.0613 96.9018 90.0138 96.9237 89.9721 96.9542C89.9304 96.9847 89.8951 97.0233 89.8685 97.0677C89.8419 97.112 89.8245 97.1612 89.8171 97.2125C89.8098 97.2637 89.8128 97.3158 89.826 97.3658C89.8518 97.4663 89.9163 97.5526 90.0055 97.6056C90.0947 97.6587 90.2013 97.6743 90.302 97.649L91.2016 97.4253C91.1675 97.6685 91.0644 97.8969 90.9045 98.0833C90.7447 98.2697 90.5347 98.4064 90.2996 98.4773C90.0185 98.5474 89.7215 98.5138 89.4631 98.3826C89.2048 98.2515 89.0024 98.0316 88.893 97.7633C88.811 97.5907 88.7828 97.3975 88.8121 97.2087L83.3976 93.9481C82.8621 94.3147 82.0291 94.0505 81.7197 93.6149L82.6241 93.3769C82.7246 93.3505 82.811 93.2862 82.8651 93.1974C82.9193 93.1087 82.9369 93.0024 82.9145 92.9009C82.8891 92.8005 82.8252 92.7141 82.7365 92.6606C82.6477 92.6071 82.5415 92.5909 82.4408 92.6153Z" fill="#C53F3F"/>
<path id="Vector_143" opacity="0.2" d="M82.4408 92.6153L81.5436 92.8391C81.5777 92.5959 81.6808 92.3675 81.8407 92.1811C82.0005 91.9947 82.2105 91.8579 82.4456 91.7871C82.7267 91.7203 83.0226 91.7581 83.2779 91.8934C83.5332 92.0288 83.7306 92.2524 83.8331 92.5225C83.9101 92.7084 83.9307 92.9128 83.8926 93.1104L89.3095 96.3686C89.945 95.8355 90.6947 96.2377 91.0065 96.6709L90.1116 96.8898C90.0613 96.9018 90.0138 96.9237 89.9721 96.9542C89.9304 96.9847 89.8951 97.0233 89.8685 97.0677C89.8419 97.112 89.8245 97.1612 89.8171 97.2125C89.8098 97.2637 89.8128 97.3158 89.826 97.3658C89.8518 97.4663 89.9163 97.5526 90.0055 97.6056C90.0947 97.6587 90.2013 97.6743 90.302 97.649L91.2016 97.4253C91.1675 97.6685 91.0644 97.8969 90.9045 98.0833C90.7447 98.2697 90.5347 98.4064 90.2996 98.4773C90.0185 98.5474 89.7215 98.5138 89.4631 98.3826C89.2048 98.2515 89.0024 98.0316 88.893 97.7633C88.811 97.5907 88.7828 97.3975 88.8121 97.2087L83.3976 93.9481C82.8621 94.3147 82.0291 94.0505 81.7197 93.6149L82.6241 93.3769C82.7246 93.3505 82.811 93.2862 82.8651 93.1974C82.9193 93.1087 82.9369 93.0024 82.9145 92.9009C82.8891 92.8005 82.8252 92.7141 82.7365 92.6606C82.6477 92.6071 82.5415 92.5909 82.4408 92.6153Z" fill="white"/>
<path id="Vector_144" d="M100.648 89.9067L100.662 89.8687H92.2916L90.3281 95.0547H98.6629L98.6581 95.069H99.3459L101.112 90.4446L100.648 89.9067Z" fill="#263238"/>
<path id="Vector_145" opacity="0.2" d="M100.648 89.9067L100.662 89.8687H92.2916L90.3281 95.0547H98.6629L98.6581 95.069H99.3459L101.112 90.4446L100.648 89.9067Z" fill="white"/>
<path id="Vector_146" opacity="0.4" d="M100.662 89.8687L98.6986 95.0547H90.3281L92.2916 89.8687H100.662Z" fill="black"/>
<path id="Vector_147" d="M86.1322 93.4983L88.0695 95.9878L88.7645 95.883L86.7201 93.4983H86.1322Z" fill="#263238"/>
<path id="Vector_148" opacity="0.1" d="M86.1322 93.4983L88.0695 95.9878L88.7645 95.883L86.7201 93.4983H86.1322Z" fill="white"/>
<path id="Vector_149" d="M86.7201 91.1445L88.6574 93.634L89.3524 93.5293L87.308 91.1445H86.7201Z" fill="#263238"/>
<path id="Vector_150" opacity="0.1" d="M86.7201 91.1445L88.6574 93.634L89.3524 93.5293L87.308 91.1445H86.7201Z" fill="white"/>
<path id="Vector_151" d="M84.2234 99.2817H98.6986V95.0549H84.2234V99.2817Z" fill="#263238"/>
<path id="Vector_152" opacity="0.2" d="M84.2234 99.2817H98.6986V95.0549H84.2234V99.2817Z" fill="white"/>
<path id="Vector_153" d="M85.7943 93.7625H99.0913V93.0937H85.7943V93.7625Z" fill="#263238"/>
<path id="Vector_154" opacity="0.2" d="M85.7943 93.7625H99.0913V93.0937H85.7943V93.7625Z" fill="white"/>
<path id="Vector_155" opacity="0.2" d="M93.9862 93.7625H99.0913V93.0937H93.9862V93.7625Z" fill="black"/>
<path id="Vector_156" d="M86.5796 91.7966H99.8767V91.1279H86.5796V91.7966Z" fill="#263238"/>
<path id="Vector_157" opacity="0.2" d="M86.5796 91.7966H99.8767V91.1279H86.5796V91.7966Z" fill="white"/>
<path id="Vector_158" opacity="0.2" d="M94.7716 91.7966H99.8767V91.1279H94.7716V91.7966Z" fill="black"/>
<path id="Vector_159" opacity="0.2" d="M93.0056 99.2817H98.6986V95.0549H93.0056V99.2817Z" fill="black"/>
</g>
</g>
</svg>
