<svg width="125" height="125" viewBox="0 0 125 125" fill="none" xmlns="http://www.w3.org/2000/svg">
<g id="High five-pana 1">
<g id="freepik--background-simple--inject-41">
<path id="Vector" d="M109.602 34.3025C107.06 29.11 103.102 24.435 97.8525 22.0025C88.8525 17.825 77.6925 21.19 70.4025 27.935C66.5325 31.5175 63.415 36.01 58.8825 38.7125C51.21 43.2875 41.255 41.7325 33.0525 45.2775C25.63 48.485 20.3475 55.8875 19.12 63.88C17.8925 71.8725 20.54 80.2525 25.6575 86.515C30.775 92.7775 38.2075 96.965 46.095 98.7425L55.455 99.015C64.4659 99.3115 73.4361 97.6792 81.765 94.2275C90 90.78 97.425 85.63 103.072 78.75C113.11 66.52 116.56 48.5125 109.602 34.3025Z" fill="#EBEBEB"/>
</g>
<g id="freepik--Floor--inject-41">
<path id="Vector_2" d="M115.483 109.25C115.483 109.288 91.1275 109.315 61.095 109.315C31.0625 109.315 6.70251 109.298 6.70251 109.25C6.70251 109.203 31.05 109.185 61.095 109.185C91.14 109.185 115.483 109.225 115.483 109.25Z" fill="#263238"/>
</g>
<g id="freepik--character-2--inject-41">
<path id="Vector_3" d="M84.9251 66C85.1107 66.7549 85.0891 67.5459 84.8625 68.2896C84.6358 69.0332 84.2127 69.7019 83.6375 70.225C82.875 70.9 81.8876 71.29 81.1876 72.0325C80.7543 72.5263 80.4563 73.1238 80.3227 73.767C80.189 74.4102 80.2243 75.077 80.4251 75.7025C80.6375 76.3234 80.9737 76.8948 81.4133 77.3821C81.8528 77.8694 82.3867 78.2624 82.9826 78.5375C83.7939 78.9166 84.6835 79.0983 85.5786 79.0679C86.4736 79.0375 87.3488 78.7958 88.1326 78.3625C90.0651 77.27 91.1901 75.0775 91.4751 72.875C91.7601 70.6725 91.3126 68.4425 90.7251 66.3" fill="#263238"/>
<path id="Vector_4" d="M109.298 104.838C111.298 104.51 113.173 105.12 115.153 105.558C115.679 105.714 116.235 105.744 116.775 105.645C117.633 105.425 118.243 104.59 118.375 103.715C118.482 102.948 118.304 102.169 117.875 101.525C117.703 101.247 117.468 101.014 117.19 100.843C116.892 100.693 116.566 100.608 116.233 100.593C115.019 100.495 113.802 100.724 112.708 101.258C111.616 101.788 110.626 102.506 109.783 103.378C109.363 103.798 109.488 104.28 109.303 104.845" fill="#263238"/>
<path id="Vector_5" d="M68.75 72.5576C68.4293 70.6506 68.4683 68.7003 68.865 66.8076C69.0327 65.8821 69.3719 64.9961 69.865 64.1951C70.0331 63.8964 70.2888 63.6564 70.5975 63.5076C70.8218 63.4331 71.0624 63.4224 71.2924 63.4767C71.5224 63.531 71.7327 63.6482 71.9 63.8151C72.1136 64.0375 72.2776 64.3027 72.381 64.5932C72.4845 64.8836 72.525 65.1928 72.5 65.5001C72.4554 66.1147 72.3049 66.7169 72.055 67.2801C71.2825 69.2551 70.055 70.8951 68.7425 72.5551" fill="#263238"/>
<path id="Vector_6" d="M107.5 79.7849C107.953 80.1074 118 101.75 118 101.75C117.192 101.405 116.297 101.317 115.438 101.5L114.893 101.645C113.917 101.907 112.992 102.33 112.155 102.895L109.288 104.835C109.174 104.77 109.078 104.678 109.007 104.568C108.936 104.458 108.893 104.333 108.88 104.202V104.12L101.09 90.7499L107.5 79.7849Z" fill="#9D0208"/>
<path id="Vector_7" d="M69.7725 45.3301L72.4525 60.5626C73.315 62.6126 83.3725 75.0326 83.3725 75.0326L80.0475 85.7176L66.8375 67.6551C65.6109 66.3435 64.9437 64.6055 64.9775 62.8101L65.4925 46.5351L69.7725 45.3301Z" fill="#FFBE9D"/>
<path id="Vector_8" d="M84.0351 72.645L90.9326 73.1675L96.9476 74.1C96.9476 74.1 107.5 76.8725 107.5 78.0275C107.5 78.4125 104.62 87.585 103 93.08C102.603 94.4147 102.279 95.77 102.03 97.14L107.5 109.25H81.5426V98.1475C81.5426 98.1475 79.7926 83.565 80.1001 81.5725C80.4076 79.58 84.0351 72.645 84.0351 72.645Z" fill="#9D0208"/>
<path id="Vector_9" d="M66.5 39.1751C66.5406 37.6236 66.6994 36.0774 66.975 34.5501C67.0125 34.3326 67.1025 34.0701 67.32 34.0501C67.59 34.0151 67.7275 34.3626 67.7625 34.6326C68.0022 36.4746 67.9253 38.344 67.535 40.1601" fill="#EB996E"/>
<path id="Vector_10" d="M69.5751 71.4299C72.5351 68.7849 72.6351 64.2024 72.3826 60.5549C72.3332 60.2885 72.3736 60.0133 72.4976 59.7724C72.7801 59.3699 73.4676 59.5224 73.7476 59.9274C74.0276 60.3324 73.9976 60.8649 73.9826 61.3549C74.1351 60.9399 74.7851 60.9424 75.0901 61.2624C75.3951 61.5824 75.4476 62.0649 75.4826 62.5124L75.5801 63.7324L84.2276 71.9824C84.2276 71.9824 84.4651 71.2324 85.1001 71.6649C85.7351 72.0974 86.1451 73.0099 86.1451 73.0099L80.0526 86.3074L68.7451 72.5574C68.9625 72.1414 69.2424 71.7611 69.5751 71.4299Z" fill="#9D0208"/>
<path id="Vector_11" d="M81.3101 80.6326C80.4078 81.7833 79.7341 83.0961 79.3251 84.5001C78.9175 85.9132 78.9621 87.4185 79.4526 88.8051C79.832 89.7644 80.4536 90.6091 81.2568 91.2566C82.0599 91.9042 83.0171 92.3326 84.0351 92.5001" fill="#9D0208"/>
<path id="Vector_12" d="M109.298 104.838L108.97 109.25H115.378L116.878 101.438C114.926 101.329 113.001 101.932 111.46 103.135L109.298 104.838Z" fill="#FFBE9D"/>
<path id="Vector_13" d="M72.5875 70.4525C72.6237 70.3312 72.6706 70.2132 72.7275 70.1C72.8275 69.88 72.9625 69.5551 73.115 69.1501C73.2675 68.7451 73.43 68.2551 73.5825 67.7051C73.741 67.1048 73.867 66.4964 73.96 65.8825C74.0464 65.2684 74.099 64.65 74.1175 64.03C74.1175 63.4575 74.1175 62.9425 74.0825 62.51C74.0475 62.0775 74.015 61.7301 73.9825 61.4901C73.961 61.3653 73.9493 61.2391 73.9475 61.1125C73.9882 61.2327 74.0166 61.3567 74.0325 61.4825C74.0974 61.8199 74.1449 62.1603 74.175 62.5025C74.2238 63.011 74.2447 63.5218 74.2375 64.0326C74.2185 65.2849 74.037 66.5295 73.6975 67.7351C73.5579 68.2265 73.391 68.7097 73.1975 69.1826C73.0325 69.5876 72.885 69.9075 72.77 70.1225C72.7176 70.237 72.6566 70.3473 72.5875 70.4525Z" fill="#263238"/>
<path id="Vector_14" d="M74.4701 68.1301C74.5516 67.9151 74.6451 67.7047 74.7501 67.5001C75.1878 66.4854 75.4417 65.4011 75.5001 64.2976C75.4997 64.0679 75.5122 63.8384 75.5376 63.6101C75.5867 63.8366 75.6052 64.0687 75.5926 64.3001C75.584 65.4213 75.3279 66.5268 74.8426 67.5376C74.7471 67.7518 74.6217 67.9512 74.4701 68.1301Z" fill="#263238"/>
<path id="Vector_15" d="M84.625 75.045C84.605 75.0325 84.71 74.87 84.77 74.575C84.8401 74.1895 84.8178 73.7928 84.705 73.4175C84.5862 73.0398 84.4417 72.6706 84.2725 72.3125C84.1936 72.1643 84.1347 72.0063 84.0975 71.8425C84.1965 71.9762 84.2803 72.1204 84.3475 72.2725C84.5454 72.6247 84.7054 72.9967 84.825 73.3825C84.9446 73.7775 84.9541 74.1976 84.8525 74.5975C84.8211 74.7654 84.7421 74.9207 84.625 75.045Z" fill="#263238"/>
<path id="Vector_16" d="M83.1225 92.655C83.0834 92.6388 83.0465 92.6178 83.0125 92.5925L82.7175 92.3975C82.4675 92.225 82.095 91.9725 81.66 91.63C81.1458 91.234 80.6756 90.7839 80.2575 90.2875C79.743 89.673 79.3723 88.9512 79.1725 88.175C78.9816 87.3985 78.9325 86.594 79.0275 85.8C79.1042 85.1561 79.2475 84.5219 79.455 83.9075C79.5926 83.4935 79.752 83.0871 79.9325 82.69C79.9975 82.55 80.0475 82.44 80.085 82.37C80.1016 82.3311 80.1226 82.2942 80.1475 82.26C80.1002 82.413 80.0443 82.5633 79.98 82.71C79.8675 82.995 79.705 83.41 79.5425 83.935C79.3506 84.5466 79.2183 85.1754 79.1475 85.8125C79.0605 86.592 79.1112 87.3807 79.2975 88.1425C79.4921 88.9014 79.8515 89.6082 80.35 90.2125C80.7593 90.7058 81.2175 91.1565 81.7175 91.5575C82.1425 91.9075 82.5 92.17 82.7475 92.3575L83.0275 92.5725C83.0925 92.6225 83.125 92.65 83.1225 92.655Z" fill="#263238"/>
<path id="Vector_17" d="M97.285 95.1274C97.2504 95.1457 97.2134 95.1592 97.175 95.1674C97.1 95.1874 96.9925 95.2249 96.85 95.2524C96.4472 95.3397 96.0371 95.3891 95.625 95.3999C94.2512 95.4421 92.8962 95.072 91.7346 94.3372C90.5731 93.6025 89.6581 92.5368 89.1075 91.2774C88.9397 90.9008 88.8083 90.509 88.715 90.1074C88.68 89.9649 88.6675 89.8574 88.6525 89.7774C88.6439 89.7388 88.6397 89.6994 88.64 89.6599C88.6912 89.8012 88.7329 89.9456 88.765 90.0924C89.163 91.6018 90.054 92.9349 91.2965 93.8798C92.539 94.8247 94.0617 95.3272 95.6225 95.3074C96.0305 95.3054 96.4377 95.2703 96.84 95.2024C96.9869 95.1696 97.1355 95.1446 97.285 95.1274Z" fill="#263238"/>
<path id="Vector_18" d="M101.263 99.9999C101.228 99.9999 101.558 98.6074 102.013 96.9124C102.468 95.2174 102.843 93.8499 102.875 93.8599C102.908 93.8699 102.58 95.2499 102.138 96.9449C101.695 98.6399 101.298 99.9999 101.263 99.9999Z" fill="#263238"/>
<path id="Vector_19" d="M104.75 97.0526C104.72 97.0701 103.715 95.4276 102.5 93.3826C101.285 91.3376 100.335 89.6651 100.368 89.6476C100.4 89.6301 101.403 91.2701 102.618 93.3151C103.833 95.3601 104.793 97.0326 104.75 97.0526Z" fill="#263238"/>
<path id="Vector_20" d="M114.348 101.1C114.348 101.125 113.983 101.155 113.413 101.3C113.08 101.385 112.753 101.492 112.435 101.622C112.047 101.787 111.673 101.98 111.315 102.202C110.962 102.43 110.628 102.685 110.315 102.965C110.06 103.198 109.822 103.449 109.603 103.715C109.228 104.167 109.043 104.485 109.02 104.465C109.05 104.384 109.09 104.307 109.138 104.235C109.253 104.03 109.385 103.835 109.53 103.65C109.744 103.374 109.979 103.115 110.233 102.875C110.547 102.584 110.887 102.321 111.248 102.09C111.612 101.864 111.995 101.67 112.393 101.51C112.717 101.382 113.051 101.281 113.393 101.207C113.621 101.154 113.853 101.119 114.088 101.102C114.174 101.089 114.261 101.088 114.348 101.1Z" fill="#263238"/>
<path id="Vector_21" d="M115.573 99.595C115.573 99.6225 115.17 99.5725 114.528 99.6275C114.153 99.6614 113.781 99.7266 113.418 99.8225C112.525 100.059 111.691 100.477 110.968 101.05C110.673 101.284 110.399 101.543 110.148 101.823C109.72 102.303 109.52 102.653 109.498 102.64C109.531 102.552 109.576 102.468 109.63 102.39C109.684 102.294 109.744 102.201 109.81 102.113C109.893 101.991 109.983 101.875 110.078 101.763C110.323 101.469 110.596 101.2 110.893 100.958C111.259 100.664 111.655 100.407 112.073 100.193C112.493 99.9866 112.934 99.8241 113.388 99.7075C113.76 99.6141 114.14 99.5563 114.523 99.535C114.668 99.5277 114.814 99.5277 114.96 99.535C115.071 99.5355 115.182 99.5421 115.293 99.555C115.387 99.5565 115.481 99.5699 115.573 99.595Z" fill="#263238"/>
<g id="Group" opacity="0.3">
<path id="Vector_22" d="M88.9075 90.1926C88.32 91.3076 88.81 92.6676 89.3475 93.8101C89.765 94.6951 90.23 95.5926 90.99 96.2101C91.3634 96.5154 91.796 96.7402 92.2604 96.8704C92.7248 97.0006 93.2112 97.0334 93.6889 96.9667C94.1666 96.9 94.6254 96.7353 95.0364 96.483C95.4475 96.2306 95.8019 95.896 96.0775 95.5001C94.4839 95.4765 92.9347 94.9712 91.6336 94.0507C90.3324 93.1302 89.3403 91.8375 88.7875 90.3426" fill="black"/>
</g>
<g id="Group_2" opacity="0.3">
<path id="Vector_23" d="M100.385 89.6475C99.9351 90.72 100.275 92.1875 100.745 93.25C101.215 94.3125 101.715 95.5 101.338 96.6025C101.24 96.7982 101.19 97.0139 101.19 97.2325C101.215 97.4475 101.44 97.655 101.643 97.555C101.747 97.4814 101.82 97.3704 101.845 97.245C102.2 96.175 102.556 95.1058 102.913 94.0375" fill="black"/>
</g>
<path id="Vector_24" d="M76.7351 75.5249C76.7754 74.8536 76.8589 74.1855 76.9851 73.5249C77.07 72.8607 77.1978 72.2027 77.3676 71.5549C77.3298 72.2265 77.2463 72.8947 77.1176 73.5549C77.0335 74.2193 76.9057 74.8774 76.7351 75.5249Z" fill="#FAFAFA"/>
<path id="Vector_25" d="M74.1026 74.9725C74.0701 74.9925 73.6401 74.3925 73.0451 73.7025C72.4501 73.0125 71.9251 72.495 71.9501 72.4675C72.3983 72.7953 72.8003 73.1822 73.1451 73.6175C73.5217 74.0258 73.8435 74.4812 74.1026 74.9725Z" fill="#FAFAFA"/>
<path id="Vector_26" d="M76.3626 68.5324C76.2874 68.6935 76.1925 68.8447 76.0801 68.9824C75.8901 69.2499 75.6126 69.6074 75.2901 69.9824C74.9676 70.3574 74.6576 70.6949 74.4251 70.9249C74.3085 71.0585 74.1749 71.1762 74.0276 71.2749C74.0001 71.2499 74.5476 70.6574 75.1901 69.8974C75.8326 69.1374 76.3326 68.4999 76.3626 68.5324Z" fill="#FAFAFA"/>
<path id="Vector_27" d="M75.4801 65.385C75.4426 65.4 75.3001 65.0825 75.0251 64.765C74.7501 64.4475 74.4551 64.265 74.4751 64.2275C74.7351 64.3024 74.9629 64.4616 75.1226 64.68C75.3149 64.8702 75.4403 65.1176 75.4801 65.385Z" fill="#FAFAFA"/>
<path id="Vector_28" d="M73.2 67.325C72.9958 67.4212 72.7753 67.4781 72.55 67.4925C72.3315 67.5496 72.1038 67.5632 71.88 67.5325C72.3026 67.3792 72.7508 67.3088 73.2 67.325Z" fill="#FAFAFA"/>
<path id="Vector_29" d="M78.9525 70.1024C78.9582 69.7133 78.9306 69.3244 78.87 68.9399C78.7665 68.5645 78.6301 68.1989 78.4625 67.8474C78.746 68.1387 78.9321 68.5108 78.995 68.9124C79.102 69.3042 79.0872 69.7193 78.9525 70.1024Z" fill="#FAFAFA"/>
<path id="Vector_30" d="M82.025 73.4076C81.5639 72.6715 80.9448 72.0473 80.2125 71.5801C80.626 71.7405 81.001 71.9861 81.3133 72.3009C81.6255 72.6158 81.8681 72.9928 82.025 73.4076Z" fill="#FAFAFA"/>
<path id="Vector_31" d="M77.0925 79.1426C76.3483 79.4214 75.5238 79.3936 74.8 79.0651C74.8125 79.0276 75.3 79.1851 75.9425 79.2026C76.585 79.2201 77.0825 79.1051 77.0925 79.1426Z" fill="#FAFAFA"/>
<path id="Vector_32" d="M79.4076 80.33C79.3726 80.315 79.5676 79.74 79.7301 79.01C79.8926 78.28 79.9651 77.675 80.0026 77.68C80.0283 78.1373 79.9793 78.5958 79.8576 79.0375C79.7781 79.4897 79.6262 79.9262 79.4076 80.33Z" fill="#FAFAFA"/>
<path id="Vector_33" d="M84.4651 80.5224C84.0696 80.1882 83.704 79.8202 83.3726 79.4224C83.0067 79.0542 82.6722 78.6562 82.3726 78.2324C82.7665 78.5683 83.1312 78.9372 83.4626 79.3349C83.8281 79.7032 84.1633 80.1003 84.4651 80.5224Z" fill="#FAFAFA"/>
<path id="Vector_34" d="M86.82 86.3649C86.5202 86.1473 86.2467 85.8957 86.005 85.6149C85.734 85.3631 85.4925 85.0813 85.285 84.7749C85.5849 84.9925 85.8584 85.2442 86.1 85.5249C86.3734 85.7744 86.6153 86.0565 86.82 86.3649Z" fill="#FAFAFA"/>
<path id="Vector_35" d="M82.4426 86.9226C82.1551 87.2285 81.8168 87.4823 81.4426 87.6726C81.0906 87.9069 80.6994 88.0763 80.2876 88.1726C80.2876 88.1376 80.7876 87.9226 81.3776 87.5701C81.9676 87.2176 82.4176 86.8926 82.4426 86.9226Z" fill="#FAFAFA"/>
<path id="Vector_36" d="M84.4576 92.4799C84.4201 92.4799 84.5701 91.8149 84.6451 90.9924C84.7201 90.1699 84.6976 89.4924 84.7351 89.4924C84.8269 89.9872 84.8404 90.4934 84.7751 90.9924C84.7501 91.5021 84.6429 92.0045 84.4576 92.4799Z" fill="#FAFAFA"/>
<path id="Vector_37" d="M92.035 87.9624C91.622 87.7097 91.2558 87.3874 90.9525 87.0099C90.6181 86.6609 90.3482 86.2555 90.155 85.8124C90.1875 85.7899 90.53 86.3324 91.05 86.9249C91.57 87.5174 92.06 87.9299 92.035 87.9624Z" fill="#FAFAFA"/>
<path id="Vector_38" d="M94.8026 90.3201C94.7726 90.2976 95.1526 89.7776 95.5776 89.1101C96.0026 88.4426 96.3151 87.8826 96.3476 87.9001C96.1853 88.3546 95.9625 88.7851 95.6851 89.1801C95.4451 89.5991 95.1481 89.9827 94.8026 90.3201Z" fill="#FAFAFA"/>
<path id="Vector_39" d="M94.3976 84.55C93.544 84.4082 92.7065 84.1821 91.8976 83.875C92.3286 83.9264 92.7539 84.0185 93.1676 84.15C93.59 84.2415 94.0021 84.3755 94.3976 84.55Z" fill="#FAFAFA"/>
<path id="Vector_40" d="M92.38 94.705C92.3357 94.3113 92.3357 93.9138 92.38 93.52C92.3832 93.1239 92.4285 92.7291 92.515 92.3425C92.56 92.7362 92.56 93.1338 92.515 93.5275C92.5126 93.9237 92.4673 94.3185 92.38 94.705Z" fill="#FAFAFA"/>
<path id="Vector_41" d="M94.125 98.1825C94.2559 97.7787 94.3611 97.3671 94.44 96.95C94.4746 96.5267 94.4813 96.1016 94.46 95.6775C94.589 96.0935 94.6259 96.5327 94.568 96.9644C94.5102 97.3961 94.359 97.8101 94.125 98.1775V98.1825Z" fill="#FAFAFA"/>
<path id="Vector_42" d="M89.6025 97.415C89.475 96.5514 89.6442 95.67 90.0825 94.915C90.1175 94.93 89.8875 95.4575 89.7575 96.15C89.6275 96.8425 89.64 97.4125 89.6025 97.415Z" fill="#FAFAFA"/>
<path id="Vector_43" d="M85.4775 99.1775C85.07 98.8944 84.6777 98.5898 84.3025 98.265C83.901 97.9742 83.5147 97.6629 83.145 97.3325C83.5944 97.5564 84.0143 97.8352 84.395 98.1625C84.7943 98.4574 85.1576 98.7981 85.4775 99.1775Z" fill="#FAFAFA"/>
<path id="Vector_44" d="M88.27 94.2725C87.3132 94.8795 86.3101 95.4103 85.27 95.86C85.7407 95.536 86.2355 95.2485 86.75 95C87.2372 94.7187 87.7454 94.4754 88.27 94.2725Z" fill="#FAFAFA"/>
<path id="Vector_45" d="M96.9476 105.28C96.8945 105.297 96.8402 105.311 96.7851 105.32C96.6776 105.34 96.5201 105.38 96.3151 105.407C95.7361 105.496 95.1506 105.534 94.5651 105.52C93.0526 105.498 91.562 105.156 90.1916 104.515C88.8212 103.875 87.6022 102.951 86.6151 101.805C86.0417 101.145 85.5505 100.418 85.1526 99.64C84.8813 99.1184 84.6571 98.5738 84.4826 98.0125C84.4151 97.815 84.3826 97.6575 84.3526 97.5525C84.3359 97.4988 84.325 97.4435 84.3201 97.3875C84.344 97.4381 84.3633 97.4908 84.3776 97.545C84.4151 97.6475 84.4551 97.795 84.5301 97.9975C85.0094 99.3679 85.7478 100.633 86.7051 101.725C87.6947 102.845 88.9025 103.751 90.2544 104.387C91.6064 105.024 93.074 105.378 94.5676 105.427C95.1518 105.449 95.7369 105.426 96.3176 105.357C96.5251 105.337 96.6826 105.305 96.7901 105.295C96.8418 105.284 96.8947 105.279 96.9476 105.28Z" fill="#263238"/>
<path id="Vector_46" d="M89.4776 103.985C89.3923 103.588 89.4334 103.175 89.5951 102.802C89.7172 102.415 89.9587 102.077 90.2851 101.835C90.0643 102.155 89.8743 102.494 89.7176 102.85C89.6031 103.22 89.5228 103.6 89.4776 103.985Z" fill="#FAFAFA"/>
<path id="Vector_47" d="M87.4201 103.125C87.1827 103.309 86.9649 103.517 86.7701 103.745C86.6076 103.997 86.4703 104.264 86.3601 104.543C86.3685 104.226 86.4749 103.919 86.6648 103.665C86.8546 103.411 87.1185 103.223 87.4201 103.125Z" fill="#FAFAFA"/>
<path id="Vector_48" d="M95.3325 107.835C94.9234 107.802 94.5281 107.672 94.18 107.454C93.8319 107.236 93.5413 106.938 93.3325 106.585C93.8762 107.172 94.5666 107.604 95.3325 107.835Z" fill="#FAFAFA"/>
<path id="Vector_49" d="M96.5626 100.91C96.5101 101.277 96.3547 101.623 96.1146 101.906C95.8744 102.189 95.5591 102.398 95.2051 102.51C95.4973 102.308 95.7686 102.078 96.0151 101.822C96.2285 101.538 96.412 101.232 96.5626 100.91Z" fill="#FAFAFA"/>
<path id="Vector_50" d="M100.06 106.073C100.03 106.048 100.36 105.63 100.665 105.055C100.97 104.48 101.133 103.973 101.165 103.985C101.023 104.78 100.635 105.511 100.055 106.073H100.06Z" fill="#FAFAFA"/>
<path id="Vector_51" d="M104.683 106.75C104.698 106.788 104.243 106.968 103.785 107.345C103.328 107.723 103.053 108.128 103.02 108.095C103.164 107.75 103.4 107.452 103.703 107.232C103.978 106.984 104.317 106.817 104.683 106.75Z" fill="#FAFAFA"/>
<path id="Vector_52" d="M101.158 100.832C101.118 100.845 100.908 100.115 100.44 99.3049C99.9725 98.4949 99.4725 97.9249 99.505 97.8999C99.6423 97.9966 99.763 98.1148 99.8625 98.2499C100.389 98.8647 100.79 99.5763 101.043 100.345C101.105 100.501 101.144 100.665 101.158 100.832Z" fill="#FAFAFA"/>
<path id="Vector_53" d="M101.848 93.3901C101.069 93.6589 100.265 93.8441 99.4475 93.9426C100.226 93.6746 101.03 93.4894 101.848 93.3901Z" fill="#FAFAFA"/>
<path id="Vector_54" d="M99.7201 91.1649C99.4346 90.8995 99.1782 90.6045 98.9551 90.2849C98.7006 89.9904 98.4785 89.6694 98.2926 89.3274C98.5808 89.5893 98.8375 89.8837 99.0576 90.2049C99.3145 90.4984 99.5368 90.8206 99.7201 91.1649Z" fill="#FAFAFA"/>
<path id="Vector_55" d="M105 89.8299C104.19 89.8098 103.393 89.6207 102.66 89.2749C103.056 89.3426 103.447 89.4335 103.833 89.5474C104.227 89.6178 104.617 89.7122 105 89.8299Z" fill="#FAFAFA"/>
<path id="Vector_56" d="M108.75 89.7624C108.858 89.4087 108.985 89.0615 109.132 88.7224C109.238 88.3673 109.366 88.0191 109.515 87.6799C109.495 88.0541 109.41 88.4219 109.265 88.7674C109.153 89.1269 108.979 89.4638 108.75 89.7624Z" fill="#FAFAFA"/>
<path id="Vector_57" d="M107.895 94.8426C107.12 94.6694 106.419 94.2545 105.895 93.6576C105.92 93.6276 106.315 93.9726 106.863 94.2951C107.41 94.6176 107.908 94.8051 107.895 94.8426Z" fill="#FAFAFA"/>
<path id="Vector_58" d="M110.33 94.6875C110.38 94.1857 110.472 93.689 110.605 93.2025C110.695 92.7081 110.828 92.2222 111 91.75C110.86 92.7478 110.633 93.7315 110.323 94.69L110.33 94.6875Z" fill="#FAFAFA"/>
<path id="Vector_59" d="M108.298 100.368C107.674 99.6614 107.116 98.899 106.633 98.0901C106.96 98.4293 107.256 98.7975 107.518 99.1901C107.813 99.5577 108.074 99.9519 108.298 100.368Z" fill="#FAFAFA"/>
<path id="Vector_60" d="M111.768 98.195C111.733 98.2125 111.505 97.76 111.145 97.255C110.785 96.75 110.438 96.3825 110.465 96.355C110.779 96.5752 111.047 96.8556 111.253 97.18C111.491 97.4798 111.667 97.8252 111.768 98.195Z" fill="#FAFAFA"/>
<path id="Vector_61" d="M115.023 97.7075C114.738 97.3727 114.471 97.0231 114.223 96.66C113.939 96.3254 113.671 95.9766 113.423 95.615C114.088 96.2011 114.631 96.912 115.023 97.7075Z" fill="#FAFAFA"/>
<path id="Vector_62" d="M114.25 99.8649C114.205 99.5645 114.105 99.2753 113.953 99.0124C113.77 98.7696 113.543 98.5628 113.285 98.4024C113.285 98.3874 113.4 98.4024 113.558 98.4799C113.761 98.5881 113.933 98.7465 114.058 98.9399C114.185 99.1328 114.261 99.3546 114.28 99.5849C114.305 99.7499 114.273 99.8649 114.25 99.8649Z" fill="#FAFAFA"/>
<path id="Vector_63" d="M111.72 102.823C111.7 102.823 111.708 102.755 111.688 102.668C111.664 102.555 111.603 102.454 111.515 102.38C111.423 102.312 111.31 102.277 111.195 102.283C111.105 102.283 111.048 102.305 111.038 102.283C111.028 102.26 111.075 102.215 111.183 102.185C111.253 102.167 111.327 102.165 111.399 102.18C111.47 102.194 111.538 102.225 111.595 102.27C111.653 102.315 111.699 102.373 111.731 102.439C111.762 102.505 111.778 102.577 111.778 102.65C111.775 102.77 111.735 102.828 111.72 102.823Z" fill="#FAFAFA"/>
<path id="Vector_64" d="M85.71 107.55C85.2431 107.37 84.8188 107.095 84.4641 106.742C84.1095 106.389 83.8322 105.966 83.65 105.5C84.1599 106.343 84.8668 107.05 85.71 107.56V107.55Z" fill="#FAFAFA"/>
<path id="Vector_65" d="M69.7976 45.5C69.3951 41.6975 68.6676 38.12 68.4701 34.3925C68.4779 34.299 68.4662 34.205 68.4356 34.1163C68.405 34.0276 68.3563 33.9463 68.2926 33.8775C68.2382 33.8457 68.1778 33.8253 68.1152 33.8175C68.0527 33.8097 67.9892 33.8148 67.9286 33.8323C67.868 33.8499 67.8117 33.8795 67.7629 33.9195C67.7142 33.9595 67.6741 34.009 67.6451 34.065C67.536 34.299 67.4928 34.5583 67.5201 34.815C67.5244 36.7973 67.1861 38.7654 66.5201 40.6325C66.0926 41.845 65.5201 43.0075 65.2001 44.25C64.8801 45.4925 65.4826 45.915 66.0426 47.0725" fill="#FFBE9D"/>
<path id="Vector_66" d="M66.0501 47.0676C65.5548 46.6877 65.1707 46.1816 64.9381 45.6024C64.7054 45.0232 64.6327 44.392 64.7276 43.7751C64.8551 43.0251 65.2276 42.3451 65.5226 41.6451C65.8176 40.9451 66.0451 40.1676 65.8651 39.4301C65.7656 39.1564 65.6984 38.8719 65.6651 38.5826C65.6651 38.2926 65.8526 37.9676 66.1426 37.9551C66.2522 37.9639 66.3583 37.9981 66.4524 38.0549C66.5466 38.1118 66.6262 38.1897 66.6851 38.2826C67.1726 38.8851 67.5626 40.6451 67.3176 41.9601" fill="#FFBE9D"/>
<path id="Vector_67" d="M67.3176 41.9601C67.3176 41.9601 67.3426 41.7576 67.3576 41.3926C67.3732 40.8777 67.3305 40.3627 67.2301 39.8575C67.1627 39.5096 67.0623 39.1689 66.9301 38.8401C66.8605 38.6612 66.7662 38.4929 66.6501 38.3401C66.5979 38.258 66.5295 38.1876 66.4491 38.133C66.3687 38.0784 66.278 38.0408 66.1826 38.0225C66.0843 38.0272 65.9902 38.064 65.9148 38.1272C65.8394 38.1904 65.7868 38.2766 65.7651 38.3726C65.7115 38.5857 65.7254 38.8102 65.8051 39.0151C65.8891 39.2438 65.9478 39.481 65.9801 39.7226C66.0042 39.9727 65.995 40.2249 65.9526 40.4726C65.7776 41.4876 65.2376 42.3075 64.9526 43.12C64.8121 43.4997 64.7368 43.9003 64.7301 44.3051C64.7286 44.6576 64.7808 45.0083 64.8851 45.3451C65.0365 45.8364 65.2923 46.2893 65.6351 46.6726C65.8851 46.9401 66.0476 47.0576 66.0401 47.0701C65.9954 47.0474 65.9535 47.0197 65.9151 46.9875C65.8022 46.9016 65.696 46.8072 65.5976 46.7051C65.2322 46.3282 64.9584 45.8722 64.7976 45.3726C64.6836 45.0281 64.6246 44.6679 64.6226 44.3051C64.6247 43.8873 64.6983 43.473 64.8401 43.0801C65.1151 42.2501 65.6476 41.4301 65.8126 40.4526C65.8552 40.215 65.8645 39.9727 65.8401 39.7325C65.81 39.4979 65.7539 39.2673 65.6726 39.045C65.5861 38.8154 65.5739 38.5645 65.6376 38.3276C65.6748 38.2093 65.743 38.1031 65.8351 38.0201C65.8811 37.9771 65.9355 37.9441 65.9949 37.923C66.0542 37.9019 66.1172 37.8933 66.1801 37.8975C66.2946 37.9127 66.4046 37.9519 66.5028 38.0127C66.6011 38.0735 66.6854 38.1544 66.7501 38.2501C66.8716 38.4155 66.9692 38.5973 67.0401 38.7901C67.1722 39.1258 67.2694 39.4743 67.3301 39.8301C67.4247 40.3426 67.4541 40.8651 67.4176 41.385C67.4088 41.5261 67.3904 41.6665 67.3626 41.8051C67.355 41.8586 67.3399 41.9108 67.3176 41.9601Z" fill="#EB996E"/>
<path id="Vector_68" d="M100 62.2624C100.082 62.62 100.275 62.9423 100.553 63.1823C100.83 63.4224 101.177 63.5678 101.543 63.5974C101.909 63.6154 102.274 63.5399 102.603 63.3781C102.933 63.2163 103.215 62.9735 103.425 62.6724C103.84 62.0602 104.007 61.3131 103.893 60.5824C103.75 59.5299 103.05 58.5174 102.035 58.2049C101.02 57.8924 99.7576 58.4549 99.4776 59.4749L98.3076 61.1074L100 62.2624Z" fill="#263238"/>
<path id="Vector_69" d="M98.6175 59.0551C98.731 58.1504 98.6616 57.2321 98.4134 56.3548C98.1652 55.4774 97.7434 54.6589 97.1728 53.9477C96.6022 53.2365 95.8946 52.6472 95.0919 52.2147C94.2892 51.7822 93.4078 51.5154 92.5 51.4301C88.8725 51.0851 85.645 53.7876 85.1025 57.3926C84.625 60.5526 84.215 63.7426 84.23 64.8926C84.275 68.3926 86.3175 69.7476 87.1475 70.1426C87.4455 70.25 87.7538 70.3262 88.0675 70.3701C88.0705 70.3707 88.0733 70.3719 88.0759 70.3736C88.0784 70.3753 88.0805 70.3775 88.0822 70.3801C88.0838 70.3827 88.0849 70.3855 88.0854 70.3885C88.0859 70.3916 88.0857 70.3946 88.085 70.3976L87.31 74.3976C86.9575 77.0251 88.425 79.3701 91.0475 79.7526C93.67 80.1351 95.7375 78.1176 96.14 75.4876L98.6175 59.0551Z" fill="#FFBE9D"/>
<path id="Vector_70" d="M85.7051 59.435C85.7626 59.5175 86.2226 59.27 86.8151 59.3575C87.4076 59.445 87.7951 59.805 87.8701 59.74C87.9076 59.7125 87.8551 59.575 87.6876 59.41C87.4576 59.195 87.1669 59.0561 86.8551 59.0125C86.5473 58.9677 86.2333 59.0211 85.9576 59.165C85.7501 59.2775 85.6751 59.3975 85.7051 59.435Z" fill="#263238"/>
<path id="Vector_71" d="M90.9651 60.5749C91.0226 60.6574 91.4851 60.4099 92.0751 60.4974C92.6651 60.5849 93.0576 60.9449 93.1326 60.8799C93.1676 60.8524 93.1176 60.7149 92.9476 60.5474C92.718 60.3337 92.4282 60.1958 92.1176 60.1524C91.8098 60.1075 91.4957 60.1609 91.2201 60.3049C91.0176 60.4174 90.9376 60.5374 90.9651 60.5749Z" fill="#263238"/>
<path id="Vector_72" d="M88.9201 63.3699C88.6226 63.2274 88.3085 63.1225 87.9851 63.0574C87.8351 63.0199 87.6976 62.9674 87.6876 62.8624C87.6974 62.7048 87.755 62.554 87.8526 62.4299L88.4676 61.3449C89.3251 59.7974 89.9676 58.5174 89.9076 58.4824C89.8476 58.4474 89.0976 59.6749 88.2401 61.2324L87.6426 62.3249C87.5229 62.4947 87.4647 62.7001 87.4776 62.9074C87.4934 62.9624 87.5211 63.0133 87.5587 63.0565C87.5962 63.0997 87.6428 63.1341 87.6951 63.1574C87.7752 63.1916 87.8591 63.2159 87.9451 63.2299C88.2628 63.3177 88.5905 63.3647 88.9201 63.3699Z" fill="#263238"/>
<path id="Vector_73" d="M88.0901 70.395C88.0901 70.395 90.3401 70.915 93.4526 69.615C93.4526 69.615 92.1126 72.5025 87.8826 71.475L88.0901 70.395Z" fill="#EB996E"/>
<path id="Vector_74" d="M88.9626 64.8326C89.0951 64.7107 89.2561 64.6239 89.4308 64.5803C89.6054 64.5366 89.7883 64.5374 89.9626 64.5826C90.0913 64.6144 90.2123 64.6714 90.3188 64.7504C90.4252 64.8293 90.5149 64.9287 90.5826 65.0426C90.6475 65.1524 90.6768 65.2796 90.6665 65.4067C90.6562 65.5339 90.6068 65.6547 90.5251 65.7526C90.4152 65.8455 90.2798 65.9031 90.1366 65.9178C89.9934 65.9326 89.8491 65.9037 89.7226 65.8351C89.4572 65.6968 89.2225 65.5064 89.0326 65.2751C88.9716 65.2186 88.9223 65.1507 88.8876 65.0751C88.8703 65.0392 88.8643 64.9989 88.8706 64.9596C88.8768 64.9203 88.895 64.8838 88.9226 64.8551" fill="#EB996E"/>
<path id="Vector_75" d="M90.6001 64.0324C90.5051 64.0124 90.4101 64.6549 89.7951 65.0324C89.1801 65.4099 88.5051 65.2374 88.4876 65.3274C88.4726 65.3674 88.6226 65.4749 88.9101 65.5249C89.2852 65.5843 89.6692 65.51 89.9951 65.3149C90.3078 65.1269 90.5354 64.8249 90.6301 64.4724C90.6926 64.2049 90.6451 64.0349 90.6001 64.0324Z" fill="#263238"/>
<path id="Vector_76" d="M91.3726 58.6499C91.4076 58.8199 92.0101 58.8299 92.6901 59.0149C93.3701 59.1999 93.9076 59.4699 94.0201 59.3399C94.0701 59.2774 93.9951 59.1124 93.7926 58.9224C93.5182 58.6876 93.1939 58.5183 92.8444 58.4273C92.4948 58.3363 92.1292 58.3261 91.7751 58.3974C91.5001 58.4624 91.3601 58.5699 91.3726 58.6499Z" fill="#263238"/>
<path id="Vector_77" d="M86.3025 57.6124C86.385 57.7624 86.815 57.6825 87.3025 57.7475C87.79 57.8125 88.195 57.9674 88.3025 57.8424C88.355 57.7799 88.3025 57.6349 88.145 57.4824C87.9241 57.294 87.6519 57.1757 87.3633 57.1427C87.0747 57.1098 86.7829 57.1636 86.5251 57.2974C86.3426 57.4099 86.265 57.5399 86.3025 57.6124Z" fill="#263238"/>
<path id="Vector_78" d="M84.4176 56.6101C85.1401 57.7126 87.4351 57.0301 88.8201 56.2726C89.5435 56.7341 90.4185 56.8952 91.2589 56.7215C92.0993 56.5478 92.8388 56.0531 93.3201 55.3426C94.1126 56.3426 95.7251 56.0176 96.3201 54.8801C96.9151 53.7426 96.5701 52.1751 95.7701 51.1801C94.97 50.1851 93.7851 49.6801 92.6201 49.4676C89.8576 48.9676 86.8501 50.0276 85.1976 52.5251C84.4351 53.6776 83.9776 55.2301 84.4301 56.6101" fill="#263238"/>
<path id="Vector_79" d="M92.0526 49.8601C92.0526 49.9101 91.4001 49.7851 90.3751 49.9551C89.0436 50.1765 87.8233 50.8333 86.9051 51.8226C86.0407 52.8583 85.4693 54.1065 85.2501 55.4376C85.174 55.9925 85.1448 56.5528 85.1626 57.1126C85.1093 56.9681 85.0781 56.8164 85.0701 56.6626C85.0263 56.2466 85.0331 55.8269 85.0901 55.4126C85.2713 54.0299 85.8457 52.7283 86.7451 51.6626C87.6955 50.6333 88.9762 49.9691 90.3651 49.7851C90.7795 49.7293 91.1991 49.7226 91.6151 49.7651C91.7649 49.7742 91.9124 49.8062 92.0526 49.8601Z" fill="#455A64"/>
<path id="Vector_80" d="M88.3175 54.9999C88.2763 54.8733 88.2577 54.7404 88.2625 54.6074C88.2494 54.2447 88.2873 53.882 88.375 53.5299C88.5088 52.9393 88.762 52.3824 89.119 51.8933C89.4761 51.4043 89.9295 50.9935 90.4512 50.6862C90.973 50.379 91.5522 50.1818 92.153 50.1067C92.7539 50.0317 93.3637 50.0804 93.945 50.2499C94.2959 50.3461 94.6323 50.489 94.945 50.6749C95.0656 50.7376 95.1733 50.8224 95.2625 50.9249C94.8265 50.7185 94.3731 50.5512 93.9075 50.4249C92.7753 50.1365 91.5749 50.3073 90.5681 50.9002C89.5612 51.493 88.8296 52.4599 88.5325 53.5899C88.2875 54.4249 88.365 54.9999 88.3175 54.9999Z" fill="#455A64"/>
<path id="Vector_81" d="M94.945 53.8C94.674 54.7786 94.5179 55.7854 94.48 56.8C94.4426 57.8204 94.7597 58.8222 95.3775 59.635C96.3425 60.7975 97.9525 61.1525 99.4375 61.435C100.232 59.4533 100.471 57.2926 100.13 55.185C99.96 54.1625 99.63 53.12 98.91 52.375C98.3747 51.847 97.6793 51.5114 96.9329 51.4209C96.1864 51.3305 95.431 51.4902 94.785 51.875" fill="#263238"/>
<path id="Vector_82" d="M95.77 58.6399C95.38 59.4849 95.4075 60.4624 95.5425 61.3899C95.6775 62.3174 95.9125 63.2249 95.9025 64.1549C95.8925 65.0849 95.5975 66.0724 94.8675 66.6549C94.6462 66.8025 94.4387 66.9698 94.2475 67.1549C94.1532 67.2488 94.0901 67.3695 94.0668 67.5006C94.0436 67.6317 94.0613 67.7667 94.1175 67.8874C94.2575 68.1124 94.68 68.1074 94.74 67.8499L94.7025 67.9149C94.6657 67.9772 94.6459 68.048 94.6451 68.1204C94.6443 68.1927 94.6625 68.264 94.698 68.3271C94.7335 68.3902 94.7849 68.4428 94.8471 68.4797C94.9094 68.5166 94.9802 68.5365 95.0525 68.5374C95.308 68.5252 95.5583 68.4607 95.7879 68.3481C96.0175 68.2354 96.2215 68.077 96.3875 67.8824C96.865 67.3299 97.055 66.5874 97.18 65.8824C97.565 63.6749 97.49 61.3824 98.1 59.2299" fill="#263238"/>
<path id="Vector_83" d="M87.2926 73.1375C87.4647 73.8895 87.7967 74.5957 88.2659 75.2081C88.7351 75.8204 89.3306 76.3247 90.0119 76.6866C90.6932 77.0484 91.4444 77.2595 92.2145 77.3054C92.9846 77.3513 93.7556 77.2309 94.4751 76.9525C95.7701 76.4525 96.8151 75.4775 97.8226 74.525C98.0029 75.6094 97.9532 76.7195 97.6769 77.7834C97.4005 78.8473 96.9036 79.8412 96.2183 80.7007C95.533 81.5601 94.6747 82.2659 93.6991 82.7723C92.7235 83.2787 91.6523 83.5743 90.5551 83.64C88.8976 83.74 87.1176 83.235 86.0751 81.9425C85.3476 81.0425 85.0551 79.85 85.0751 78.6925C85.1256 77.5332 85.3463 76.3876 85.7301 75.2925C86.0251 74.3475 86.4926 73.2925 87.4476 73.03" fill="#9D0208"/>
<path id="Vector_84" d="M99.1526 61.5C100.153 62.0375 100.688 63.1624 100.88 64.2724C101.073 65.3824 100.975 66.5224 101.023 67.6449C101.07 68.7674 101.285 69.9474 101.998 70.82C102.748 71.75 103.935 72.1899 104.998 72.7575C107.328 74.0075 109.248 76.1399 109.948 78.695C110.648 81.25 110.013 84.195 108.1 86.0325C106.35 87.6975 103.825 88.2825 101.415 88.2825C99.6976 88.2825 97.8101 87.9125 96.7376 86.57C95.6651 85.2274 95.7376 83.345 96.1126 81.69C96.4876 80.035 97.1751 78.4275 97.2026 76.73C96.946 77.7808 96.4985 78.7757 95.8826 79.665C95.7051 79.915 95.4026 80.1899 95.1326 80.0449C94.8626 79.8999 94.9451 79.4325 95.0851 79.12C97.1551 74.5125 96.4351 65.225 97.6626 60.1375" fill="#263238"/>
<path id="Vector_85" d="M97.4476 60.9776C97.5101 60.9576 99.9276 60.5001 99.6151 62.8901C99.3026 65.2801 96.9701 64.4751 96.9751 64.4076C96.9801 64.3401 97.4476 60.9776 97.4476 60.9776Z" fill="#FFBE9D"/>
<path id="Vector_86" d="M97.8226 63.5975C97.8226 63.5975 97.8601 63.63 97.9276 63.6725C98.021 63.7276 98.132 63.7446 98.2376 63.72C98.5026 63.66 98.7676 63.285 98.8351 62.8575C98.8666 62.6529 98.853 62.4438 98.7951 62.245C98.7824 62.1674 98.751 62.094 98.7035 62.0312C98.656 61.9685 98.5939 61.9183 98.5226 61.885C98.4776 61.8691 98.4287 61.8686 98.3835 61.8836C98.3382 61.8985 98.2992 61.928 98.2726 61.9675C98.2326 62.03 98.2401 62.08 98.2276 62.0825C98.2151 62.085 98.1826 62.035 98.2126 61.94C98.2339 61.8823 98.2746 61.8338 98.3276 61.8025C98.3648 61.7802 98.4062 61.7658 98.4492 61.7602C98.4922 61.7546 98.5359 61.758 98.5776 61.77C98.6732 61.8024 98.7591 61.8586 98.8269 61.9334C98.8947 62.0083 98.9423 62.0992 98.9651 62.1975C99.0391 62.4179 99.0588 62.6529 99.0226 62.8825C98.9451 63.3625 98.6401 63.78 98.2726 63.835C98.206 63.8457 98.1379 63.8412 98.0734 63.8217C98.0088 63.8022 97.9496 63.7683 97.9001 63.7225C97.8201 63.655 97.8151 63.6 97.8226 63.5975Z" fill="#EB996E"/>
<path id="Vector_87" d="M84.8225 78.2876C84.9398 78.0324 85.0751 77.786 85.2275 77.5501C85.576 76.9733 85.8649 76.3627 86.09 75.7276C86.3087 75.0919 86.3821 74.4153 86.305 73.7476C86.2563 73.4735 86.1929 73.2023 86.115 72.9351C86.1621 72.9959 86.1985 73.0644 86.2225 73.1376C86.3041 73.3292 86.3628 73.5297 86.3975 73.7351C86.5026 74.4173 86.44 75.1149 86.215 75.7676C85.9881 76.4122 85.6834 77.0268 85.3075 77.5976C85.1675 77.8176 85.0575 77.9926 84.965 78.1101C84.8725 78.2276 84.83 78.2926 84.8225 78.2876Z" fill="#263238"/>
<path id="Vector_88" d="M86.04 75.53C86.005 75.53 85.9375 75.325 85.7225 75.1825C85.5075 75.04 85.2925 75.04 85.2875 75.0025C85.2825 74.965 85.34 74.96 85.4375 74.9575C85.5668 74.9587 85.6925 74.9997 85.7975 75.075C85.9034 75.149 85.9851 75.2524 86.0325 75.3725C86.065 75.465 86.0575 75.525 86.04 75.53Z" fill="#FAFAFA"/>
<path id="Vector_89" d="M87.5851 75.5251C87.3978 75.3146 87.1919 75.1213 86.9701 74.9476C86.7238 74.8098 86.4642 74.6976 86.1951 74.6126C86.344 74.592 86.4955 74.6016 86.6406 74.6406C86.7858 74.6797 86.9216 74.7476 87.0401 74.8401C87.3042 74.9885 87.4998 75.2344 87.5851 75.5251Z" fill="#FAFAFA"/>
<path id="Vector_90" d="M88.5551 80.5974C88.5609 80.2527 88.6096 79.9101 88.7001 79.5774C88.7483 79.2339 88.8399 78.8979 88.9726 78.5774C88.9668 78.9229 88.9181 79.2664 88.8276 79.5999C88.7791 79.9425 88.6875 80.2777 88.5551 80.5974Z" fill="#FAFAFA"/>
<path id="Vector_91" d="M92.4551 81.3625C92.3926 80.6448 92.4152 79.9223 92.5226 79.21C92.5885 79.9275 92.5658 80.6505 92.4551 81.3625Z" fill="#FAFAFA"/>
</g>
<g id="freepik--character-1--inject-41">
<path id="Vector_92" d="M12.8275 92.4724L8.97253 109.26L17.125 109.285L20.89 94.5224L12.8275 92.4724Z" fill="#B78876"/>
<path id="Vector_93" d="M52.8625 71.8475C52.0875 70.81 51.1975 69.8125 50.79 68.5825C50.5925 67.9875 50.515 67.3575 50.305 66.7675C50.095 66.1775 49.7125 65.6025 49.1275 65.38C48.5425 65.1575 48.0975 65.38 47.7175 65.8L44.92 73.9825L46.5325 80.2675C48.1425 79.905 50.1575 79.475 51.6625 78.7975C53.1675 78.12 54.1625 77.035 54.2675 75.3875C54.34 74.095 53.6375 72.8875 52.8625 71.8475Z" fill="#263238"/>
<path id="Vector_94" d="M27.405 70.4024C27.405 70.4024 17.68 74.6349 16.465 76.5449C15.25 78.4549 11.25 92.0724 11.25 92.0724L21.5 95.0724L21.325 109.25H46.45L46.2425 84.2499L43.0925 70.4349C43.0925 70.4349 37.545 70.0774 37.03 69.8249C36.515 69.5724 27.405 70.4024 27.405 70.4024Z" fill="#9D0208"/>
<path id="Vector_95" d="M61.965 35.7501C62.045 35.1776 61.6425 34.5476 61.9325 34.0451C62.1243 33.7861 62.3985 33.6001 62.71 33.5176C62.861 33.4486 63.0241 33.4103 63.19 33.4051C63.2727 33.4038 63.354 33.4267 63.4238 33.4712C63.4936 33.5156 63.5487 33.5796 63.5825 33.6551C63.6005 33.7507 63.5921 33.8494 63.5582 33.9406C63.5243 34.0318 63.4661 34.112 63.39 34.1726C63.2377 34.2923 63.1096 34.4399 63.0125 34.6076C62.9446 35.0191 62.9763 35.4409 63.105 35.8376C63.4381 36.7105 63.7145 37.6041 63.9325 38.5126" fill="#B78876"/>
<path id="Vector_96" d="M59.9126 35.945C59.9476 35.0775 60.6626 31.66 60.6876 30.7925C61.2751 30.9725 61.6151 31.5975 61.7251 32.2025C61.8351 32.8075 61.7776 33.43 61.8826 34.035C62.0226 34.8475 62.4451 35.58 62.8701 36.285C63.2951 36.99 63.7401 37.7075 63.9326 38.5075C64.1251 39.3075 64.8501 41.3875 64.2851 41.9875" fill="#B78876"/>
<path id="Vector_97" d="M59.75 41.7949L56.2725 58.3149C56.15 59.0649 43.0925 70.4524 43.0925 70.4524L45.67 80.7499L62.67 64.1174C63.8975 62.8052 64.5656 61.0665 64.5325 59.2699L64.2425 43.7699L59.75 41.7949Z" fill="#B78876"/>
<path id="Vector_98" d="M59.1551 36.05L59.7501 41.8L64.2501 43.78C64.2501 43.78 64.3051 43.3725 64.5001 41.38C64.7126 39.185 62.3526 38.2425 61.3001 36.63C60.8501 35.9375 60.9676 34.6625 60.6201 33.0825C60.5801 32.9 60.3301 31.795 60.1951 31.2025C60.124 30.8733 59.9311 30.583 59.6551 30.39C59.4501 30.255 59.2201 30.1875 59.0526 30.39C58.8851 30.5925 59.1551 36.05 59.1551 36.05Z" fill="#B78876"/>
<path id="Vector_99" d="M61.965 42.7499C62.465 42.3174 62.585 41.5424 62.3975 40.8999C62.1679 40.2673 61.8056 39.691 61.335 39.2099C60.865 38.7301 60.4697 38.1823 60.1625 37.5849C59.9725 37.1549 59.8825 36.6799 59.6625 36.2574C59.4425 35.8349 59.07 35.4474 58.6 35.4299C58.9775 37.8074 58.9675 39.1799 59.74 41.7849" fill="#B78876"/>
<path id="Vector_100" d="M59.0675 38.145C59.0675 38.145 59.05 38.08 59.0225 37.955C58.995 37.83 58.9475 37.6225 58.9025 37.41C58.795 36.91 58.6525 36.2725 58.505 35.54L58.49 35.47H58.5625C58.7164 35.4644 58.8698 35.4893 59.014 35.5434C59.1582 35.5975 59.2902 35.6796 59.4025 35.785C59.7458 36.1117 59.9901 36.5284 60.1075 36.9875C60.2072 37.3443 60.3386 37.6915 60.5 38.025C60.6223 38.2441 60.77 38.448 60.94 38.6325C61.002 38.7034 61.0526 38.7835 61.09 38.87C61.0216 38.8066 60.958 38.7381 60.9 38.665C60.7139 38.4892 60.5524 38.2891 60.42 38.07C60.2434 37.7355 60.0994 37.3847 59.99 37.0225C59.8737 36.5864 59.6403 36.1904 59.315 35.8775C59.1122 35.6872 58.843 35.584 58.565 35.59L58.625 35.515C58.9275 37.02 59.1225 38.1475 59.0675 38.145Z" fill="#7C5142"/>
<path id="Vector_101" d="M61.0901 36.6824C60.9086 35.909 60.7701 35.1261 60.6751 34.3374C60.5362 33.5549 60.4402 32.7654 60.3876 31.9724C60.5703 32.7464 60.7089 33.5302 60.8026 34.3199C60.9414 35.1016 61.0374 35.8903 61.0901 36.6824Z" fill="#7C5142"/>
<path id="Vector_102" d="M62.5225 36.8776C62.5225 36.8776 62.54 36.9026 62.555 36.9651H62.5175C62.3316 36.4302 62.1796 35.8841 62.0625 35.3301C61.955 34.8476 61.8775 34.4076 61.83 34.0801C61.7914 33.9088 61.7762 33.733 61.785 33.5576C61.8225 33.5576 61.975 34.3351 62.19 35.3076C62.3625 36.0851 62.5225 36.7401 62.555 36.9601H62.5175C62.515 36.9076 62.515 36.8776 62.5225 36.8776Z" fill="#7C5142"/>
<path id="Vector_103" d="M63.41 40.0451C63.39 40.0451 63.3 39.9151 63.12 39.7226C62.6444 39.2174 61.9989 38.9057 61.3075 38.8476C61.1629 38.8489 61.0183 38.8397 60.875 38.8201C61.0134 38.7665 61.162 38.7442 61.31 38.7551C61.6703 38.7597 62.0252 38.8433 62.3497 39.0001C62.6741 39.1569 62.9601 39.3831 63.1875 39.6626C63.2899 39.7715 63.366 39.9023 63.41 40.0451Z" fill="#7C5142"/>
<path id="Vector_104" d="M60.1575 42.25C60.0339 42.0348 59.9341 41.8068 59.86 41.57C59.6545 41.009 59.4826 40.4363 59.345 39.855C59.2052 39.2785 59.1 38.6941 59.03 38.105C58.9891 37.8572 58.9741 37.6059 58.985 37.355C59.0478 37.5939 59.0929 37.837 59.12 38.0825C59.195 38.53 59.31 39.15 59.47 39.8325C59.63 40.515 59.81 41.1125 59.9475 41.5475C60.0338 41.7765 60.1039 42.0112 60.1575 42.25Z" fill="#7C5142"/>
<path id="Vector_105" d="M40.04 70.75C40.2628 70.4089 40.6083 70.1666 41.0049 70.0735C41.4015 69.9804 41.8188 70.0436 42.17 70.25C44.005 68.75 45.8825 67.295 47.7175 65.8025C47.1175 68.8025 46.7175 72.985 48.06 75.73C48.06 75.73 49.7525 78.875 52.4475 78.395L50.0425 80.75L46.25 84.2675" fill="#9D0208"/>
<path id="Vector_106" d="M39.4451 72.15C39.4479 71.7475 39.5706 71.3549 39.7976 71.0225C39.9892 70.6675 40.2814 70.377 40.6376 70.1875C40.0727 70.724 39.6611 71.4015 39.4451 72.15Z" fill="#263238"/>
<path id="Vector_107" d="M41.4275 73.9999C41.3234 73.8333 41.2522 73.6483 41.2175 73.4549C41.1096 72.9913 41.0967 72.5105 41.1796 72.0418C41.2626 71.573 41.4396 71.1259 41.7 70.7274C41.7993 70.557 41.9299 70.4068 42.085 70.2849C42.1025 70.2999 41.9575 70.4699 41.78 70.7849C41.5491 71.1835 41.3892 71.6191 41.3075 72.0724C41.2292 72.5266 41.2292 72.9908 41.3075 73.4449C41.37 73.7699 41.4475 73.9799 41.4275 73.9999Z" fill="#263238"/>
<path id="Vector_108" d="M50.6125 80.4201C50.428 80.5349 50.2263 80.6193 50.015 80.6701C49.4375 80.8094 48.8331 80.7912 48.265 80.6176C47.4236 80.3504 46.6873 79.8257 46.16 79.1176C45.5267 78.2492 45.0992 77.2481 44.91 76.1901C44.5569 74.2849 44.456 72.3416 44.61 70.4101C44.6675 69.6601 44.75 69.0751 44.82 68.6601C44.8525 68.4551 44.8825 68.2976 44.905 68.1901C44.9128 68.1347 44.9262 68.0803 44.945 68.0276C44.9467 68.0838 44.9417 68.1401 44.93 68.1951L44.87 68.6676C44.8175 69.0776 44.7475 69.6676 44.7025 70.4176C44.5746 72.3407 44.6871 74.2723 45.0375 76.1676C45.2247 77.1983 45.6388 78.1743 46.25 79.0251C46.7555 79.7259 47.4681 80.2506 48.2875 80.5251C48.8408 80.7033 49.4308 80.7352 50 80.6176C50.2083 80.5655 50.413 80.4996 50.6125 80.4201Z" fill="#FAFAFA"/>
<path id="Vector_109" d="M21.5475 99.2925C21.5125 99.2925 21.4825 95.7375 21.4825 91.355C21.4825 86.9725 21.5125 83.4175 21.5475 83.4175C21.5825 83.4175 21.6125 86.97 21.6125 91.355C21.6125 95.74 21.585 99.2925 21.5475 99.2925Z" fill="#263238"/>
<path id="Vector_110" d="M21.3475 80.6749C21.32 80.6749 21.3275 80.3199 21.205 79.7674C21.132 79.4446 21.0274 79.1297 20.8925 78.8274C20.7245 78.4597 20.5175 78.111 20.275 77.7874C20.0258 77.4684 19.7434 77.1768 19.4325 76.9174C19.1766 76.7082 18.9011 76.524 18.61 76.3674C18.11 76.1049 17.7625 76.0174 17.77 75.9924C17.8553 75.9968 17.9396 76.0137 18.02 76.0424C18.1148 76.066 18.2075 76.097 18.2975 76.1349C18.4202 76.1772 18.5396 76.2282 18.655 76.2874C18.9553 76.4344 19.2387 76.6138 19.5 76.8224C19.821 77.0845 20.1119 77.3813 20.3675 77.7074C20.617 78.0393 20.8268 78.3992 20.9925 78.7799C21.1287 79.0912 21.2301 79.4165 21.295 79.7499C21.3207 79.877 21.3382 80.0056 21.3475 80.1349C21.3592 80.232 21.3642 80.3297 21.3625 80.4274C21.3671 80.5102 21.362 80.5933 21.3475 80.6749Z" fill="#263238"/>
<path id="Vector_111" d="M38.47 70.2925C38.4908 70.3618 38.505 70.433 38.5125 70.505C38.5462 70.7077 38.5679 70.9122 38.5775 71.1175C38.6074 71.876 38.5015 72.6337 38.265 73.355C37.9127 74.4306 37.2884 75.3969 36.4525 76.16C35.4041 77.0762 34.0875 77.6287 32.6993 77.735C31.3111 77.8414 29.9257 77.4958 28.75 76.75C27.8102 76.1211 27.0489 75.2599 26.54 74.25C26.1991 73.5721 25.9816 72.839 25.8975 72.085C25.8772 71.8806 25.868 71.6753 25.87 71.47C25.864 71.3984 25.864 71.3265 25.87 71.255C25.8817 71.3252 25.8876 71.3963 25.8875 71.4675C25.8939 71.6715 25.9106 71.8751 25.9375 72.0775C26.0399 72.8207 26.2682 73.541 26.6125 74.2075C27.1226 75.197 27.8773 76.0395 28.805 76.655C29.9594 77.3808 31.3161 77.7174 32.6759 77.6153C34.0358 77.5131 35.327 76.9777 36.36 76.0875C37.1867 75.3401 37.8082 74.3933 38.165 73.3375C38.4046 72.6265 38.5229 71.8802 38.515 71.13C38.515 70.865 38.4925 70.66 38.4725 70.52C38.4525 70.38 38.4675 70.295 38.47 70.2925Z" fill="#263238"/>
<path id="Vector_112" d="M21.3326 91.9826C21.3326 92.0176 19.2551 91.3651 16.7201 90.5276C14.1851 89.6901 12.1376 88.9826 12.1501 88.9476C12.1626 88.9126 14.2251 89.5651 16.7626 90.4026C19.3001 91.2401 21.3426 91.9476 21.3326 91.9826Z" fill="#FAFAFA"/>
<path id="Vector_113" d="M46.0001 88.5125C46.0001 88.55 40.4876 88.6025 33.6876 88.63C26.8876 88.6575 21.3726 88.6525 21.3726 88.63C21.3726 88.6075 26.8851 88.54 33.6876 88.5125C40.4901 88.485 46.0001 88.4775 46.0001 88.5125Z" fill="#FAFAFA"/>
<path id="Vector_114" d="M46.1251 90.69C46.1251 90.725 40.5826 90.755 33.7501 90.755C26.9176 90.755 21.3726 90.725 21.3726 90.69C21.3726 90.655 26.9126 90.625 33.7501 90.625C40.5876 90.625 46.1251 90.6525 46.1251 90.69Z" fill="#FAFAFA"/>
<path id="Vector_115" d="M42.73 93.335C42.7131 93.4045 42.6897 93.4723 42.66 93.5375C42.605 93.6775 42.53 93.8675 42.4375 94.1075L42.2725 94.5175C42.2075 94.6675 42.13 94.825 42.05 94.9975C41.885 95.3375 41.715 95.7325 41.4775 96.1475L41.1175 96.8025C40.9925 97.03 40.8425 97.255 40.6975 97.495C40.4125 97.9775 40.0625 98.4625 39.6975 98.98C38.8857 100.08 37.9915 101.116 37.0225 102.08C36.0398 103.031 34.9859 103.905 33.87 104.695C33.345 105.045 32.8525 105.387 32.37 105.662C32.12 105.802 31.9 105.947 31.67 106.07L31 106.415C30.5825 106.642 30.1825 106.807 29.84 106.965C29.6675 107.04 29.5075 107.115 29.3575 107.177L28.9425 107.335L28.37 107.547C28.304 107.576 28.2353 107.598 28.165 107.612C28.2274 107.577 28.2927 107.547 28.36 107.522L28.925 107.287L29.3325 107.12C29.4825 107.055 29.64 106.977 29.81 106.897C30.15 106.735 30.545 106.565 30.9575 106.332L31.615 105.982C31.8425 105.857 32.07 105.71 32.31 105.57C32.7925 105.292 33.28 104.947 33.81 104.597C36.0369 103.026 37.9954 101.106 39.61 98.91C39.9725 98.3975 40.325 97.91 40.61 97.4375C40.7575 97.2 40.91 96.9775 41.0375 96.7525L41.4 96.1025C41.65 95.695 41.8175 95.3025 41.9875 94.965C42.07 94.795 42.1525 94.64 42.22 94.4925C42.2875 94.345 42.3425 94.21 42.395 94.0875C42.4975 93.8525 42.58 93.6675 42.645 93.5275C42.6701 93.4619 42.6984 93.3976 42.73 93.335Z" fill="#263238"/>
<g id="Group_3" opacity="0.3">
<path id="Vector_116" d="M41.7151 95.5C40.0351 97.545 38.2751 99.0275 35.8076 99.9825C34.6251 100.437 33.3876 100.75 32.2426 101.293C31.0976 101.835 30.0176 102.652 29.4926 103.81C29.0951 104.705 29.2876 106.06 30.2426 106.255C30.6136 106.3 30.9899 106.243 31.3301 106.088C36.2176 104.315 39.4301 99.8375 41.7001 95.5" fill="black"/>
</g>
<path id="Vector_117" d="M24.2325 51.02C23.1775 51.8475 23.1075 53.395 23.16 54.735C23.2125 56.075 23.2275 57.6 22.25 58.525C21.45 59.2875 20.05 59.57 19.82 60.6525C19.7618 60.9076 19.7851 61.1744 19.8866 61.4156C19.9881 61.6567 20.1626 61.8599 20.3857 61.9966C20.6088 62.1332 20.8691 62.1964 21.13 62.1773C21.3909 62.1582 21.6393 62.0577 21.84 61.89C21.5 62.7375 21.655 63.8225 22.3775 64.39C23.1 64.9575 24.3625 64.6875 24.6275 63.8175C24.5866 63.9615 24.5753 64.1122 24.5943 64.2606C24.6134 64.4091 24.6624 64.5521 24.7383 64.681C24.8143 64.8099 24.9157 64.9221 25.0363 65.0106C25.1569 65.0992 25.2943 65.1624 25.44 65.1962C25.5858 65.2301 25.7369 65.2341 25.8842 65.2078C26.0316 65.1816 26.172 65.1257 26.2971 65.0435C26.4222 64.9613 26.5292 64.8546 26.6118 64.7298C26.6944 64.605 26.7508 64.4648 26.7775 64.3175" fill="#263238"/>
<path id="Vector_118" d="M39.5426 60.7226C39.5929 60.8982 39.6787 61.0616 39.7948 61.2026C39.9109 61.3436 40.0548 61.4593 40.2174 61.5424C40.3801 61.6255 40.5581 61.6742 40.7404 61.6856C40.9227 61.697 41.1054 61.6708 41.2772 61.6087C41.4489 61.5465 41.6061 61.4497 41.7388 61.3242C41.8716 61.1987 41.9771 61.0473 42.0489 60.8794C42.1207 60.7114 42.1572 60.5305 42.1561 60.3478C42.155 60.1652 42.1164 59.9847 42.0426 59.8176C41.8351 59.2976 41.2926 58.9051 41.2801 58.3476C41.2476 57.6726 41.9576 57.2251 42.5801 56.9626C43.2026 56.7001 43.9326 56.3501 44.0301 55.6826C44.1276 55.0151 43.5701 54.5026 43.1051 54.0451C42.6401 53.5876 42.1926 52.8926 42.5201 52.3276C42.6876 52.0401 43.0201 51.8851 43.2351 51.6326C43.7201 51.0726 43.5251 50.1326 42.9651 49.6551C42.4051 49.1776 41.6026 49.0676 40.8701 49.1551C40.1376 49.2426 39.4376 49.5176 38.7201 49.6951C37.5303 49.9822 36.2939 50.0194 35.089 49.8042C33.8841 49.5891 32.737 49.1263 31.7201 48.4451" fill="#263238"/>
<path id="Vector_119" d="M24.95 56.175L27.5225 71.085C27.6291 71.7091 27.8582 72.3058 28.1965 72.8409C28.5348 73.376 28.9756 73.8389 29.4936 74.2028C30.0116 74.5668 30.5965 74.8246 31.2146 74.9614C31.8328 75.0982 32.4718 75.1114 33.095 75C34.2758 74.7886 35.3347 74.1427 36.063 73.1895C36.7913 72.2363 37.1363 71.0449 37.03 69.85C36.9125 68.5275 36.8125 67.4326 36.8125 67.4326C36.8125 67.4326 40.5475 66.4725 40.225 62.6825C40.0675 60.8475 39.44 57.095 38.83 53.705C38.5138 51.9505 37.5485 50.3793 36.1264 49.3041C34.7042 48.2289 32.9294 47.7285 31.155 47.9025L30.79 47.9375C29.8602 48.0833 28.969 48.4138 28.169 48.9095C27.3689 49.4053 26.6763 50.0563 26.132 50.8241C25.5877 51.5919 25.2026 52.461 24.9996 53.38C24.7966 54.299 24.7798 55.2494 24.95 56.175Z" fill="#B78876"/>
<path id="Vector_120" d="M38.0325 56.1526C38.0488 56.2937 38.0088 56.4355 37.9213 56.5473C37.8338 56.6591 37.7058 56.732 37.565 56.7501C37.4967 56.7626 37.4267 56.7613 37.359 56.7461C37.2913 56.731 37.2273 56.7024 37.1708 56.6621C37.1144 56.6217 37.0666 56.5704 37.0304 56.5113C36.9942 56.4521 36.9702 56.3862 36.96 56.3176C36.9437 56.1766 36.9836 56.0348 37.0711 55.923C37.1586 55.8111 37.2867 55.7383 37.4275 55.7201C37.4957 55.7076 37.5658 55.709 37.6335 55.7241C37.7012 55.7392 37.7652 55.7678 37.8216 55.8082C37.8781 55.8485 37.9258 55.8998 37.962 55.959C37.9983 56.0182 38.0222 56.084 38.0325 56.1526Z" fill="#263238"/>
<path id="Vector_121" d="M38.1976 55.635C38.1376 55.71 37.6976 55.4475 37.1151 55.505C36.5326 55.5625 36.1326 55.8975 36.0626 55.8325C36.0301 55.8025 36.0851 55.67 36.2576 55.515C36.493 55.3152 36.7849 55.1937 37.0926 55.1675C37.3954 55.1373 37.6999 55.2038 37.9626 55.3575C38.1551 55.4775 38.2276 55.6 38.1976 55.635Z" fill="#263238"/>
<path id="Vector_122" d="M32.3326 56.82C32.3468 56.9607 32.3057 57.1015 32.218 57.2126C32.1303 57.3236 32.0028 57.3962 31.8626 57.415C31.7944 57.4271 31.7244 57.4255 31.6568 57.4102C31.5893 57.3949 31.5254 57.3663 31.4691 57.326C31.4127 57.2857 31.365 57.2346 31.3286 57.1756C31.2923 57.1166 31.2682 57.0509 31.2576 56.9825C31.2426 56.8416 31.283 56.7005 31.3703 56.589C31.4576 56.4775 31.5848 56.4043 31.7251 56.385C31.7936 56.3728 31.8639 56.3745 31.9318 56.3899C31.9996 56.4053 32.0638 56.4341 32.1203 56.4746C32.1769 56.5152 32.2249 56.5666 32.2613 56.6259C32.2978 56.6852 32.322 56.7512 32.3326 56.82Z" fill="#263238"/>
<path id="Vector_123" d="M32.4801 56.3C32.4201 56.3775 31.9801 56.115 31.3976 56.1725C30.8151 56.23 30.4176 56.565 30.3451 56.5C30.3126 56.47 30.3676 56.3375 30.5401 56.1825C30.776 55.9835 31.0676 55.8621 31.3751 55.835C31.6779 55.8036 31.9829 55.8702 32.2451 56.025C32.4376 56.145 32.5001 56.2675 32.4801 56.3Z" fill="#263238"/>
<path id="Vector_124" d="M35.0175 60.4174C35.0175 60.3824 35.3675 60.2849 35.945 60.1524C36.0925 60.1224 36.2325 60.0799 36.2475 59.9749C36.2433 59.8207 36.1937 59.6712 36.105 59.5449L35.5525 58.4549C34.785 56.8999 34.215 55.6174 34.2775 55.5874C34.34 55.5574 35.0125 56.7924 35.7775 58.3374L36.31 59.4374C36.4208 59.6074 36.4678 59.8111 36.4425 60.0124C36.4275 60.0686 36.3996 60.1204 36.3609 60.1638C36.3223 60.2073 36.274 60.241 36.22 60.2624C36.1393 60.292 36.0554 60.3121 35.97 60.3224C35.6576 60.3927 35.3377 60.4246 35.0175 60.4174Z" fill="#263238"/>
<path id="Vector_125" d="M32.4075 54C32.365 54.165 31.7775 54.145 31.1025 54.295C30.4275 54.445 29.89 54.685 29.7875 54.545C29.74 54.4825 29.82 54.3225 30.0375 54.1475C30.3152 53.9281 30.6406 53.7774 30.9875 53.7075C31.3335 53.6313 31.6926 53.639 32.035 53.73C32.2875 53.8125 32.425 53.925 32.4075 54Z" fill="#263238"/>
<path id="Vector_126" d="M37.82 53.9676C37.73 54.1101 37.32 54.0126 36.82 54.0526C36.32 54.0926 35.9375 54.2301 35.82 54.1001C35.7725 54.0376 35.82 53.8976 35.99 53.7551C36.214 53.578 36.4874 53.475 36.7725 53.4601C37.0566 53.4369 37.3407 53.5033 37.585 53.6501C37.7875 53.7701 37.8575 53.9001 37.82 53.9676Z" fill="#263238"/>
<path id="Vector_127" d="M28.6601 51.6151L28.6401 51.6351C28.0829 52.1697 27.7534 52.8986 27.7201 53.6701C27.7201 53.6976 27.7201 53.7251 27.7201 53.7476C27.6776 54.8451 27.8101 55.9426 27.7576 57.0376C27.7051 58.1326 27.4376 59.2676 26.7101 60.0901C26.4126 60.4276 25.8526 60.6951 25.5476 60.3626C25.4415 60.2225 25.3773 60.0552 25.3626 59.8801C24.9076 57.2901 23.9676 55.0426 23.7076 52.3101C23.6703 51.9447 23.7209 51.5756 23.8553 51.2338C23.9897 50.892 24.2039 50.5872 24.4801 50.3451C25.0101 49.8776 25.6676 49.3851 26.3326 49.6251C26.9976 49.8651 27.9351 50.9726 28.4776 51.4276" fill="#263238"/>
<path id="Vector_128" d="M26.395 57.765C26.3275 57.745 23.715 57.25 24.05 59.8325C24.385 62.415 26.91 61.5475 26.905 61.4725C26.9 61.3975 26.395 57.765 26.395 57.765Z" fill="#B78876"/>
<path id="Vector_129" d="M26 60.5976C26 60.5976 25.96 60.6351 25.8875 60.6776C25.8379 60.7079 25.7828 60.7282 25.7253 60.7372C25.6678 60.7462 25.6091 60.7438 25.5525 60.7301C25.2675 60.6651 24.98 60.2601 24.9075 59.7976C24.8721 59.5764 24.8866 59.35 24.95 59.1351C24.9643 59.0512 24.9985 58.9719 25.0499 58.904C25.1012 58.8361 25.1682 58.7816 25.245 58.7451C25.2949 58.7255 25.3501 58.7238 25.4011 58.7402C25.4521 58.7566 25.4959 58.7901 25.525 58.8351C25.57 58.9026 25.56 58.9576 25.575 58.9601C25.59 58.9626 25.625 58.9101 25.59 58.8051C25.5674 58.7426 25.5242 58.6897 25.4675 58.6551C25.3913 58.6131 25.302 58.6015 25.2175 58.6226C25.114 58.6576 25.021 58.7184 24.9475 58.7993C24.874 58.8803 24.8224 58.9786 24.7975 59.0851C24.7163 59.3263 24.6949 59.5837 24.735 59.8351C24.82 60.3526 25.15 60.8051 25.5375 60.8651C25.6095 60.8768 25.6832 60.8718 25.753 60.8506C25.8228 60.8293 25.8868 60.7924 25.94 60.7426C26 60.6601 26 60.6001 26 60.5976Z" fill="#7C5142"/>
<path id="Vector_130" d="M26.28 50.0351C25.53 49.0601 27.145 47.4001 28.385 46.8726C29.625 46.3451 31.3725 46.8026 32.6875 47.1001C33.515 47.2901 34.3525 47.5826 35.1875 47.4651C35.7474 47.3532 36.2875 47.1586 36.79 46.8876C37.292 46.6121 37.845 46.4419 38.415 46.3876C38.7005 46.3659 38.9866 46.4226 39.2421 46.5517C39.4977 46.6808 39.7131 46.8774 39.865 47.1201C40.13 47.6201 39.8925 48.3701 39.3375 48.5076C39.5082 48.3901 39.7049 48.3159 39.9106 48.2912C40.1163 48.2665 40.325 48.2921 40.5186 48.3659C40.7123 48.4396 40.8851 48.5593 41.0223 48.7145C41.1595 48.8698 41.257 49.0561 41.3063 49.2573C41.3556 49.4585 41.3554 49.6688 41.3055 49.8699C41.2557 50.071 41.1578 50.257 41.0202 50.412C40.8827 50.5669 40.7095 50.6861 40.5157 50.7594C40.3219 50.8326 40.1132 50.8578 39.9075 50.8326C40.25 50.5176 40.86 50.9251 40.86 51.3876C40.86 51.8501 40.4725 52.2301 40.0675 52.4576C39.0325 53.0376 37.7575 53.0076 36.6025 52.7401C35.4475 52.4726 34.3525 51.9901 33.2025 51.6901C32.0525 51.3901 30.125 50.8501 29.05 51.3526C28.26 51.7201 27.785 52.7626 27.3 52.6026C27.0705 52.5073 26.8666 52.3595 26.7046 52.1711C26.5427 51.9826 26.4272 51.7588 26.3675 51.5176C26.2558 51.0327 26.2238 50.5328 26.2725 50.0376" fill="#263238"/>
<path id="Vector_131" d="M26.4275 58.2074C26.4597 59.5806 26.617 60.9479 26.8975 62.2924C27.1778 63.6417 27.8179 64.89 28.75 65.9049C30 67.1874 31.64 68.4049 33.415 68.7074C35.3525 69.0274 37.7225 68.6224 39.3 67.4574C40.05 66.9049 40.5925 65.7074 40.36 64.8024C40.6775 64.6526 40.9493 64.4207 41.1471 64.1306C41.3449 63.8405 41.4615 63.5028 41.485 63.1524C41.525 62.4524 41.0975 61.5774 40.545 61.4849C40.96 61.4149 41.08 60.7549 40.9225 60.3824C40.765 60.0099 40.2175 59.8974 39.8025 59.9774C39.3923 60.0848 39.0108 60.2811 38.685 60.5524C38.3611 60.8241 37.9956 61.0419 37.6025 61.1974C36.2625 61.6324 34.905 60.4474 33.4975 60.5049C32.225 60.5549 31.0925 61.6124 29.83 61.4349C29.4795 61.3681 29.147 61.2283 28.8541 61.0246C28.5613 60.8209 28.3145 60.5578 28.13 60.2524C27.74 59.6549 27.91 57.4474 27.7575 56.7524" fill="#263238"/>
<g id="Group_4" opacity="0.6">
<path id="Vector_132" d="M36.64 64.1601C36.5346 64.1355 36.4311 64.1037 36.33 64.0651C36.0852 63.9951 35.8275 63.9823 35.5769 64.0278C35.3263 64.0734 35.0896 64.1759 34.885 64.3276C34.725 64.4426 34.635 64.5351 34.635 64.5226C34.635 64.5101 34.685 64.4001 34.8375 64.2726C35.0428 64.0918 35.2937 63.9706 35.5629 63.9222C35.8322 63.8737 36.1095 63.8998 36.365 63.9976C36.55 64.0601 36.6475 64.1476 36.64 64.1601Z" fill="#455A64"/>
</g>
<path id="Vector_133" d="M33.9025 61.2876C33.9975 61.2726 34.06 61.9051 34.6525 62.2876C35.245 62.6701 35.9025 62.5501 35.9175 62.6376C35.93 62.6751 35.78 62.7751 35.495 62.8101C35.1257 62.8534 34.7529 62.7649 34.4425 62.5601C34.1452 62.3615 33.9371 62.0548 33.8625 61.7051C33.805 61.4501 33.86 61.2876 33.9025 61.2876Z" fill="white"/>
<path id="Vector_134" d="M32.0226 68.2849C32.0791 68.2978 32.1337 68.318 32.1851 68.3449C32.2926 68.3849 32.4501 68.4399 32.6576 68.4974C33.2456 68.6564 33.8491 68.7511 34.4576 68.7799C34.8743 68.8045 35.2922 68.7961 35.7076 68.7549C36.1866 68.712 36.6599 68.6199 37.1201 68.4799C37.6281 68.3282 38.1127 68.107 38.5601 67.8224C39.0466 67.529 39.4712 67.1434 39.8101 66.6874C40.2127 66.1505 40.3919 65.4786 40.3101 64.8124V64.7599L40.3551 64.7399C40.6661 64.5954 40.9353 64.3743 41.1376 64.0974C41.2357 63.9668 41.3195 63.826 41.3876 63.6774C41.4473 63.5332 41.4844 63.3805 41.4976 63.2249C41.5248 62.9433 41.4846 62.6592 41.3802 62.3962C41.2759 62.1332 41.1105 61.8988 40.8976 61.7124L40.8601 61.6824L40.8901 61.6449C41.0028 61.5018 41.0764 61.3319 41.1036 61.1517C41.1308 60.9716 41.1106 60.7874 41.0451 60.6174C40.9937 60.4885 40.916 60.3717 40.817 60.2744C40.718 60.1772 40.5999 60.1016 40.4701 60.0524C40.3044 59.9863 40.1251 59.9614 39.9476 59.9799C39.8251 59.9949 39.7651 60.0174 39.7626 60.0099C39.8203 59.9825 39.8818 59.964 39.9451 59.9549C40.1826 59.9165 40.4261 59.9577 40.6377 60.0721C40.8494 60.1865 41.0172 60.3677 41.1151 60.5874C41.1891 60.7707 41.2142 60.9701 41.1879 61.166C41.1616 61.362 41.0848 61.5477 40.9651 61.7049V61.6374C41.1935 61.8324 41.372 62.0791 41.4859 62.3569C41.5999 62.6348 41.6459 62.9358 41.6201 63.2349C41.6073 63.4067 41.5676 63.5754 41.5026 63.7349C41.4301 63.8916 41.3422 64.0407 41.2401 64.1799C41.0273 64.4768 40.7414 64.7136 40.4101 64.8674L40.4476 64.7924C40.5479 65.4925 40.3683 66.2039 39.9476 66.7724C39.5986 67.2418 39.1613 67.6385 38.6601 67.9399C38.2036 68.2304 37.7077 68.4535 37.1876 68.6024C36.7193 68.7432 36.2375 68.8337 35.7501 68.8724C35.3266 68.906 34.9011 68.906 34.4776 68.8724C33.8644 68.8341 33.2578 68.7242 32.6701 68.5449C32.5108 68.4954 32.3546 68.4361 32.2026 68.3674C32.1398 68.3465 32.0795 68.3188 32.0226 68.2849Z" fill="#455A64"/>
<path id="Vector_135" d="M20.6901 61.6875C20.6422 61.6743 20.5973 61.6523 20.5576 61.6225C20.4449 61.5381 20.3583 61.4238 20.3076 61.2925C20.2231 61.0813 20.2048 60.8494 20.2551 60.6275C20.3339 60.3337 20.5102 60.0755 20.7551 59.895C21.0427 59.6782 21.3635 59.5093 21.7051 59.395C22.0878 59.2747 22.4579 59.1173 22.8101 58.925C23.1806 58.6904 23.471 58.3486 23.6426 57.945C23.8308 57.5107 23.931 57.0433 23.9376 56.57C23.9576 55.5925 23.7326 54.665 23.7076 53.8025C23.6826 52.94 23.8326 52.135 24.2251 51.595C24.519 51.1621 24.9654 50.8559 25.4751 50.7375C25.6133 50.7099 25.7549 50.7032 25.8951 50.7175C25.944 50.7232 25.9925 50.7324 26.0401 50.745C25.8549 50.7362 25.6693 50.7504 25.4876 50.7875C24.9963 50.9173 24.57 51.2234 24.2901 51.6475C23.9251 52.1725 23.7726 52.9525 23.8176 53.7975C23.8626 54.6425 24.0676 55.57 24.0676 56.575C24.0572 57.0663 23.9492 57.5507 23.7501 58C23.5663 58.4259 23.2566 58.7853 22.8626 59.03C22.5008 59.2258 22.1196 59.3833 21.7251 59.5C21.3932 59.6049 21.0802 59.7619 20.7976 59.965C20.5654 60.1294 20.3954 60.3671 20.3151 60.64C20.2606 60.848 20.2702 61.0676 20.3426 61.27C20.4085 61.4441 20.5308 61.5911 20.6901 61.6875Z" fill="#455A64"/>
<path id="Vector_136" d="M39.4326 48.4651C39.4681 48.4436 39.5058 48.426 39.5451 48.4126C39.5926 48.3914 39.642 48.3747 39.6926 48.3626C39.7604 48.3426 39.8298 48.3284 39.9001 48.3201C40.1334 48.2947 40.3694 48.3227 40.5903 48.402C40.8112 48.4812 41.0112 48.6097 41.1751 48.7776C41.339 48.9975 41.4577 49.2477 41.5242 49.5138C41.5907 49.7799 41.6038 50.0565 41.5626 50.3276C41.5135 50.6639 41.3975 50.987 41.2215 51.2777C41.0454 51.5684 40.8129 51.8208 40.5376 52.0201C39.9037 52.4816 39.1462 52.7428 38.3626 52.7701C37.5131 52.8036 36.6633 52.7126 35.8401 52.5001C34.5325 52.1792 33.2917 51.6299 32.1751 50.8776C31.6977 50.5495 31.1963 50.2578 30.6751 50.0051C30.2185 49.7939 29.727 49.6685 29.2251 49.6351C28.4939 49.5846 27.7619 49.7205 27.0976 50.0301C26.6301 50.2501 26.4076 50.4401 26.3976 50.4251C26.6029 50.2484 26.8307 50.0996 27.0751 49.9826C27.7433 49.6522 28.4858 49.5006 29.2301 49.5426C29.7483 49.5692 30.257 49.6921 30.7301 49.9051C31.2588 50.1572 31.7678 50.4489 32.2526 50.7776C33.3613 51.5151 34.5895 52.0547 35.8826 52.3726C36.6931 52.5854 37.5301 52.6797 38.3676 52.6526C39.1273 52.626 39.8622 52.3755 40.4801 51.9326C40.7453 51.743 40.9702 51.5025 41.1419 51.2253C41.3135 50.9481 41.4285 50.6396 41.4801 50.3176C41.5241 50.0571 41.5161 49.7903 41.4565 49.5329C41.3968 49.2754 41.2867 49.0323 41.1326 48.8176C40.9775 48.6551 40.7883 48.5289 40.5787 48.448C40.3691 48.3672 40.1442 48.3338 39.9201 48.3501C39.7549 48.3759 39.5919 48.4143 39.4326 48.4651Z" fill="#455A64"/>
<path id="Vector_137" d="M38.1075 46.2625C38.1072 46.4592 38.0673 46.654 37.99 46.8349C37.7732 47.3324 37.3966 47.7432 36.92 48.0024C36.5981 48.1897 36.2449 48.3168 35.8775 48.3774C35.4564 48.4388 35.0286 48.4388 34.6075 48.3774C33.715 48.2649 32.7925 47.9149 31.8225 47.6124C30.8525 47.3099 29.875 47.1299 29.015 47.3149C28.2529 47.4814 27.5627 47.8838 27.0425 48.465C26.6881 48.8526 26.4167 49.3086 26.245 49.805C26.13 50.16 26.1075 50.3675 26.0925 50.365C26.0864 50.3151 26.0864 50.2648 26.0925 50.215C26.1125 50.0711 26.1434 49.9291 26.185 49.79C26.3403 49.2765 26.6056 48.803 26.9625 48.4025C27.4879 47.7955 28.1941 47.3731 28.9775 47.1974C29.8675 46.9999 30.8725 47.1824 31.8475 47.4874C32.8225 47.7924 33.7375 48.1425 34.61 48.2575C35.0203 48.3174 35.4372 48.3174 35.8475 48.2575C36.2039 48.2035 36.5478 48.0858 36.8625 47.91C37.3284 47.6655 37.7029 47.2771 37.93 46.8025C38.0034 46.6275 38.0628 46.4469 38.1075 46.2625Z" fill="#455A64"/>
</g>
<g id="freepik--Lines--inject-41">
<path id="Vector_138" d="M57.0301 30.4399C57.0076 30.4674 55.6026 29.3249 53.8901 27.8874C52.1776 26.4499 50.8101 25.2499 50.8351 25.2324C50.8601 25.2149 52.2626 26.3474 53.9751 27.7874C55.6876 29.2274 57.0551 30.4124 57.0301 30.4399Z" fill="#263238"/>
<path id="Vector_139" d="M64.16 28.7274C64.125 28.7274 63.9825 26.5074 63.845 23.7649C63.7075 21.0224 63.6225 18.7974 63.6575 18.7949C63.6925 18.7924 63.835 21.0149 63.975 23.7599C64.115 26.5049 64.195 28.7274 64.16 28.7274Z" fill="#263238"/>
<path id="Vector_140" d="M59.6199 27.1398C59.5849 27.1398 59.1474 25.8898 58.6399 24.3073C58.1324 22.7248 57.7499 21.4473 57.7849 21.4373C57.8199 21.4273 58.2574 22.6873 58.7649 24.2673C59.2724 25.8473 59.6524 27.1298 59.6199 27.1398Z" fill="#263238"/>
<path id="Vector_141" d="M55.5725 32.785C54.9142 32.5534 54.2705 32.2821 53.645 31.9725C53.0012 31.7011 52.375 31.3897 51.77 31.04C52.4284 31.2716 53.072 31.543 53.6975 31.8525C54.3411 32.1245 54.9673 32.436 55.5725 32.785Z" fill="#263238"/>
<path id="Vector_142" d="M49 29.9123C49 29.9473 48.7875 29.9523 48.535 29.9123C48.2825 29.8723 48.0825 29.8273 48.0875 29.7923C48.0925 29.7573 48.3 29.7523 48.55 29.7923C48.8 29.8323 49 29.8773 49 29.9123Z" fill="#263238"/>
<path id="Vector_143" d="M57.9474 19.8224C57.9099 19.8224 57.8824 19.6199 57.8824 19.3674C57.8824 19.1149 57.9099 18.9099 57.9474 18.9099C57.9849 18.9099 58.0124 19.1149 58.0124 19.3674C58.0124 19.6199 57.9824 19.8224 57.9474 19.8224Z" fill="#263238"/>
<path id="Vector_144" d="M73.0001 23.3523C73.0276 23.3773 71.8726 24.6998 70.4251 26.3073C68.9776 27.9148 67.7826 29.1998 67.7501 29.1748C67.7176 29.1498 68.8776 27.8298 70.3251 26.2198C71.7726 24.6098 72.9751 23.3298 73.0001 23.3523Z" fill="#263238"/>
<path id="Vector_145" d="M74.8374 21.535C74.8624 21.56 74.7299 21.735 74.5399 21.925C74.3499 22.115 74.1774 22.245 74.1524 22.22C74.1274 22.195 74.2599 22.02 74.4499 21.8325C74.6399 21.645 74.8124 21.5 74.8374 21.535Z" fill="#263238"/>
<path id="Vector_146" d="M79.2925 27.9348C79.1853 28.012 79.0715 28.0798 78.9525 28.1373C78.73 28.2598 78.405 28.4323 78 28.6373C77.1875 29.0473 76.05 29.5823 74.77 30.1148C73.49 30.6473 72.3075 31.0723 71.4425 31.3648C71.0125 31.5073 70.6625 31.6148 70.4175 31.6873C70.2936 31.7323 70.1654 31.765 70.035 31.7848C70.1533 31.7263 70.2762 31.6778 70.4025 31.6398L71.4025 31.2773C72.2575 30.9698 73.43 30.5273 74.71 30.0023C75.99 29.4773 77.1275 28.9498 77.96 28.5623L78.93 28.1023C79.0466 28.0376 79.1677 27.9816 79.2925 27.9348Z" fill="#263238"/>
<path id="Vector_147" d="M75.6375 34.0898C75.4239 34.185 75.2011 34.2579 74.9725 34.3073C74.5575 34.4223 73.9725 34.5573 73.3275 34.6698C72.6825 34.7823 72.0775 34.8448 71.655 34.8748C71.4237 34.9043 71.1898 34.9085 70.9575 34.8873C71.1845 34.835 71.4152 34.7999 71.6475 34.7823C72.0725 34.7298 72.66 34.6498 73.305 34.5323C73.95 34.4148 74.5325 34.3023 74.9525 34.2123C75.1766 34.1505 75.4059 34.1095 75.6375 34.0898Z" fill="#263238"/>
<path id="Vector_148" d="M78.96 33.4749C78.4839 33.5616 77.9961 33.5616 77.52 33.4749C77.9961 33.3882 78.4839 33.3882 78.96 33.4749Z" fill="#263238"/>
</g>
<g id="freepik--Plant--inject-41">
<path id="Vector_149" d="M60.17 95.5C60.5219 95.5599 60.8582 95.6898 61.1588 95.8822C61.4594 96.0747 61.7183 96.3255 61.92 96.62C62.3183 97.2148 62.5748 97.893 62.67 98.6025C62.8975 99.9625 62.53 101.508 62.025 102.793C60.6375 102.14 59.8975 100.525 59.575 99.68C59.075 98.3475 58.9475 95.625 60.1575 95.5" fill="#9D0208"/>
<path id="Vector_150" d="M64.0826 104.715C63.8736 104.374 63.7587 103.984 63.7495 103.585C63.7403 103.185 63.8371 102.79 64.0301 102.44C64.228 102.093 64.4931 101.789 64.8099 101.546C65.1267 101.303 65.4889 101.126 65.8751 101.025C66.0478 100.959 66.2327 100.932 66.4171 100.945C66.6015 100.957 66.7808 101.011 66.9426 101.1C67.0773 101.208 67.1807 101.35 67.2423 101.511C67.3038 101.672 67.3212 101.847 67.2926 102.017C67.2306 102.358 67.0807 102.676 66.8576 102.94C66.1326 103.875 65.2626 104.645 64.0826 104.715Z" fill="#9D0208"/>
<path id="Vector_151" d="M63.7325 109.025C63.7036 108.933 63.6877 108.837 63.685 108.74C63.6675 108.555 63.6425 108.285 63.625 107.953C63.5619 107.083 63.6148 106.208 63.7825 105.353C63.962 104.488 64.3704 103.688 64.965 103.035C65.1484 102.843 65.355 102.675 65.58 102.535C65.6552 102.478 65.7398 102.434 65.83 102.405C65.5458 102.618 65.2799 102.855 65.035 103.113C64.4805 103.766 64.0988 104.548 63.925 105.388C63.7595 106.232 63.6924 107.093 63.725 107.953C63.7491 108.31 63.7516 108.668 63.7325 109.025Z" fill="#263238"/>
<path id="Vector_152" d="M60.5 97.5725C60.5701 97.716 60.6286 97.8648 60.675 98.0175C60.7775 98.3075 60.925 98.7275 61.09 99.25C61.4325 100.295 61.88 101.75 62.34 103.363C62.8 104.975 63.17 106.45 63.425 107.52C63.5525 108.055 63.65 108.488 63.7125 108.79C63.7541 108.944 63.7826 109.101 63.7975 109.26C63.7364 109.113 63.6887 108.961 63.655 108.805C63.5675 108.48 63.455 108.055 63.32 107.555C63.0375 106.493 62.645 105.025 62.19 103.413C61.735 101.8 61.305 100.343 60.99 99.29L60.6225 98.04C60.5688 97.8878 60.5278 97.7315 60.5 97.5725Z" fill="#263238"/>
<path id="Vector_153" d="M62.235 106C61.8861 105.235 61.3605 104.565 60.7016 104.043C60.0426 103.522 59.2692 103.164 58.445 103C58.025 102.92 57.5075 102.93 57.2725 103.29C57.0375 103.65 57.24 104.13 57.4925 104.475C58.0313 105.19 58.7702 105.73 59.6157 106.026C60.4612 106.321 61.3754 106.359 62.2425 106.135" fill="#9D0208"/>
<path id="Vector_154" d="M58.9051 104.197C58.9985 104.194 59.092 104.204 59.1826 104.227C59.2899 104.242 59.396 104.265 59.5001 104.295C59.6406 104.328 59.7792 104.369 59.9151 104.417C60.2703 104.542 60.612 104.702 60.9351 104.895C61.7327 105.367 62.4076 106.021 62.9051 106.802C63.1049 107.118 63.2724 107.453 63.4051 107.802C63.4591 107.936 63.505 108.073 63.5426 108.212C63.5772 108.316 63.6039 108.422 63.6226 108.53C63.6489 108.619 63.6607 108.712 63.6576 108.805C63.6301 108.805 63.5526 108.422 63.3051 107.845C63.1581 107.508 62.9816 107.184 62.7776 106.877C62.5251 106.505 62.2362 106.158 61.9151 105.842C61.5897 105.532 61.2346 105.254 60.8551 105.012C60.5419 104.818 60.2123 104.65 59.8701 104.512C59.2901 104.292 58.9001 104.227 58.9051 104.197Z" fill="#263238"/>
</g>
</g>
</svg>
