<svg width="24" height="37" viewBox="0 0 24 37" fill="none" xmlns="http://www.w3.org/2000/svg">
<mask id="mask0_266_241" style="mask-type:luminance" maskUnits="userSpaceOnUse" x="0" y="24" width="24" height="13">
<path d="M0 24.4708H23.2554V36.1245H0V24.4708Z" fill="white"/>
</mask>
<g mask="url(#mask0_266_241)">
<path d="M22.7945 25.9291H22.7319C22.4287 25.9803 22.1434 26.0835 21.8768 26.2372C21.5971 26.4046 21.3549 26.6152 21.15 26.8688C21.0338 27.0078 20.9265 27.1533 20.8297 27.3053C20.9078 28.1304 20.9858 28.9531 21.0614 29.7782C21.45 32.946 18.5935 35.5522 15.693 35.9497C12.9812 36.1822 10.2694 36.1822 7.55753 35.9497C4.4303 35.7847 2.08509 32.7761 2.18914 29.7782C2.26717 28.9401 2.34846 28.102 2.4265 27.2639C2.33708 27.1265 2.23954 26.9948 2.13467 26.8688C1.92738 26.616 1.68433 26.4054 1.40469 26.2372C1.13399 26.0819 0.8446 25.9787 0.537323 25.9291H0.521065C0.438963 25.9144 0.361737 25.8844 0.291015 25.8388C0.220292 25.7933 0.160951 25.7364 0.11299 25.6673C0.0650284 25.5982 0.0316995 25.5226 0.0138158 25.4405C-0.00488098 25.3584 -0.00650683 25.2755 0.00812548 25.1926C0.0235706 25.1097 0.052835 25.0333 0.0983574 24.9617C0.14388 24.891 0.200783 24.8317 0.269066 24.7829C0.338163 24.7349 0.413763 24.7016 0.495865 24.6837C0.577968 24.665 0.660071 24.6634 0.742987 24.678L0.80558 24.691C1.2543 24.8178 1.66563 25.0211 2.03794 25.3023C2.22816 25.4413 2.40212 25.599 2.55901 25.7746L2.6533 24.7959H20.5875L20.681 25.8063C20.8444 25.6185 21.0257 25.4503 21.2256 25.3023C21.5988 25.0243 22.0093 24.8227 22.458 24.6992C22.5393 24.6764 22.6222 24.6707 22.7059 24.6813C22.7896 24.6918 22.8677 24.7178 22.9417 24.7601C23.0148 24.8016 23.0774 24.856 23.1286 24.9227C23.1807 24.9902 23.218 25.0641 23.24 25.1454C23.2619 25.2275 23.2684 25.3096 23.2579 25.3934C23.2473 25.4779 23.2205 25.5559 23.179 25.6299C23.1376 25.7031 23.0831 25.7657 23.0164 25.8177C22.9498 25.8697 22.8758 25.9063 22.7945 25.9291Z" fill="#212121"/>
</g>
<path d="M16.0792 21.0923C16.5815 20.7119 17.1416 20.4591 17.7594 20.3355C17.7399 20.5387 17.7042 20.7395 17.6505 20.9362C17.5977 21.1338 17.5294 21.3256 17.444 21.5118C17.3595 21.6979 17.2595 21.8751 17.1457 22.0442C17.0311 22.2141 16.9034 22.3726 16.7628 22.5206C16.6222 22.6685 16.4702 22.8035 16.3068 22.9262C16.1434 23.049 15.971 23.1571 15.7898 23.2506C15.6085 23.3449 15.4207 23.4229 15.2264 23.4855C15.0321 23.5481 14.8346 23.5936 14.6322 23.6229C14.9639 23.3619 15.2915 23.101 15.6044 22.8165C16.1198 22.3702 16.5734 21.8678 16.9652 21.3094C16.5474 21.8426 16.0718 22.3174 15.537 22.7328C15.2264 22.9937 14.9037 23.2156 14.5777 23.4457C14.685 22.9783 14.8679 22.5425 15.1256 22.1393C15.3833 21.7353 15.7012 21.3866 16.0792 21.0923ZM4.69125 20.3875C5.04892 20.1128 5.44237 19.9055 5.87158 19.7657C6.1317 19.6722 6.39265 19.599 6.66903 19.5283C6.51539 19.4633 6.35688 19.4178 6.19186 19.3917C6.02765 19.3657 5.86263 19.3608 5.6968 19.3763C5.53097 19.3917 5.37002 19.4267 5.21313 19.482C5.05542 19.5372 4.90748 19.6112 4.76928 19.7031C4.38641 19.9908 4.12547 20.3648 3.98727 20.8233C4.4051 20.968 4.83025 20.9923 5.2619 20.8964C5.57649 20.8127 5.85776 20.6656 6.1065 20.4542C6.35525 20.2437 6.5471 19.99 6.68204 19.6925C6.4211 19.7397 6.16097 19.7949 5.90003 19.8624C5.46838 19.9713 5.06518 20.1461 4.69125 20.3875ZM19.2031 7.47381C16.358 7.73475 16.0345 9.56296 16.0109 10.7246C16.2718 10.3775 16.5319 10.0353 16.7929 9.70603C17.2221 9.17684 17.7082 8.70698 18.252 8.29647C17.7342 8.73055 17.2766 9.22155 16.8791 9.76944C16.6441 10.106 16.4173 10.4458 16.1938 10.7823C17.353 10.5921 19.4064 9.91495 19.2031 7.47381ZM12.3471 13.2186C12.2732 13.1828 12.1951 13.1722 12.1138 13.1861C12.0334 13.2007 11.9643 13.2381 11.9065 13.2974C11.7968 13.4185 11.7188 13.5584 11.6724 13.7153C11.5911 13.4998 11.4635 13.3169 11.2887 13.1665C11.2448 13.1316 11.1969 13.1048 11.1432 13.0877C11.0896 13.0698 11.0343 13.0633 10.9782 13.0658C10.9221 13.069 10.8685 13.0812 10.8164 13.104C10.7652 13.1267 10.7197 13.1584 10.6791 13.1983C10.6262 13.2925 10.5994 13.3933 10.5994 13.5023C10.5994 13.6104 10.6262 13.712 10.6791 13.8063C10.8823 14.2949 11.1863 14.7078 11.5911 15.0468C12 14.7224 12.2854 14.3119 12.4463 13.8144C12.5089 13.6128 12.5325 13.3413 12.3471 13.2243V13.2186ZM6.49182 7.21206C6.45361 7.0194 6.45361 6.82593 6.49182 6.63246C6.52515 6.3894 6.66903 5.7342 6.2073 6.11058C5.99676 6.28291 6.06667 6.95681 6.34306 7.34781C6.18292 7.55835 6.09594 7.79491 6.08212 8.05829C6.18942 7.80629 6.36257 7.61444 6.604 7.48438C6.79747 7.3787 7.00395 7.32993 7.22343 7.33806C7.15189 7.26002 7.06491 7.20637 6.9633 7.17548C6.7991 7.12914 6.64221 7.1454 6.49182 7.22506V7.21206Z" fill="#157A2C"/>
<mask id="mask1_266_241" style="mask-type:luminance" maskUnits="userSpaceOnUse" x="5" y="0" width="9" height="24">
<path d="M5.94229 0H13.434V23.4302H5.94229V0Z" fill="white"/>
</mask>
<g mask="url(#mask1_266_241)">
<path d="M13.0535 20.0347C12.9096 20.0063 12.7276 19.9697 12.5528 19.925C12.578 20.1152 12.591 20.3054 12.5918 20.4973V20.8159L12.3731 20.5834C12.2 20.4013 12.0374 20.2111 11.8862 20.0111C11.722 20.1672 11.548 20.3119 11.3643 20.4452L11.1741 20.5834V20.3452C11.1668 20.0957 11.1774 19.8469 11.2058 19.599C10.9554 19.6014 10.7067 19.5909 10.4579 19.5673L10.1401 19.5389L10.4002 19.3429C10.5506 19.2243 10.7091 19.117 10.875 19.0218C10.614 18.8129 10.3376 18.5674 10.288 18.5227C10.0799 18.5235 9.8759 18.5528 9.67593 18.6097C9.47514 18.6658 9.28655 18.7487 9.10852 18.8568C8.9305 18.9658 8.77035 19.0958 8.62728 19.2478C8.48503 19.3998 8.36553 19.5681 8.2688 19.7526C7.69814 20.9257 8.33627 22.4141 9.69462 23.0798C11.0522 23.7456 12.6154 23.3408 13.186 22.1605C13.2633 21.9914 13.3185 21.8158 13.3527 21.6329C13.386 21.4508 13.3974 21.2663 13.386 21.0809C13.3738 20.8956 13.3405 20.7143 13.2844 20.5371C13.2275 20.3607 13.1511 20.1932 13.0535 20.0347ZM9.0947 19.964C9.02479 20.0583 8.96383 20.1575 8.91261 20.2623C8.81994 20.4526 8.76223 20.6533 8.73865 20.8639C8.71426 21.0744 8.72646 21.2833 8.77442 21.4898C8.91749 22.1629 8.73784 22.1792 8.47446 21.3955C8.38748 21.1549 8.35009 20.907 8.36228 20.6517C8.37529 20.3965 8.43707 20.1534 8.54762 19.9225C8.59314 19.8315 8.64517 19.7445 8.7037 19.6616C8.75166 19.5958 8.81506 19.5535 8.89392 19.534C8.97277 19.5153 9.04837 19.5234 9.12072 19.5592C9.24102 19.6429 9.21501 19.8104 9.0947 19.964ZM9.2459 19.4137C9.11584 19.3795 9.19144 19.1682 9.47758 18.9958C9.70113 18.8503 9.94337 18.8024 10.2051 18.852C10.2986 18.9064 10.1425 19.0218 9.8946 19.173C9.70356 19.3202 9.48733 19.4007 9.2459 19.4137ZM9.50684 1.01286C9.43693 0.891735 9.40198 0.760858 9.40198 0.62104C9.40198 0.481221 9.43693 0.350344 9.50684 0.229222C9.55806 0.178009 9.61658 0.137364 9.68243 0.108099C9.74909 0.0788348 9.81818 0.0625773 9.89053 0.0593254C9.96288 0.0560741 10.0336 0.0658284 10.1019 0.0885898C10.1702 0.111351 10.2328 0.146306 10.288 0.192641C10.51 0.381234 10.6709 0.612098 10.7733 0.884419C10.8343 0.68851 10.9335 0.514549 11.07 0.362537C11.1416 0.291815 11.2269 0.247918 11.3261 0.230034C11.4261 0.212964 11.5212 0.22597 11.6123 0.268241C11.8439 0.414563 11.8236 0.759233 11.7399 1.02343C11.5367 1.65424 11.1757 2.17612 10.6587 2.58988C10.1433 2.15986 9.75884 1.63391 9.5044 1.01286H9.50684ZM6.60072 10.2604C6.07966 9.6044 5.7488 8.12655 6.66332 7.64856C7.88023 7.00312 8.43056 8.72484 8.89717 9.47677C9.28817 10.1011 9.81493 10.5718 10.4783 10.8896C10.7051 11.0018 11.4269 11.1188 11.4789 11.3204C11.5887 11.7171 10.6977 11.7927 10.4604 11.8163C9.04512 11.9179 7.40062 11.2521 6.60072 10.2604Z" fill="#F64B31"/>
</g>
<path d="M18.9325 14.2217C18.674 13.9657 18.3659 13.8071 18.0074 13.7462C18.0033 13.6275 17.9838 13.5112 17.9488 13.3966C17.9147 13.2828 17.8659 13.1755 17.8025 13.0747C17.7399 12.9731 17.6651 12.8821 17.5782 12.8008C17.4912 12.7195 17.3953 12.6512 17.2904 12.5951C16.6783 12.2163 15.967 12.2634 15.6987 12.6967V12.7203L15.6069 12.6992C15.0468 12.6284 14.5469 12.9341 14.4867 13.3836C14.4867 13.4178 14.4867 13.4535 14.4867 13.4877C14.1217 13.4226 13.7827 13.5844 13.7234 13.8584C13.6632 14.1331 13.9209 14.4388 14.2965 14.5192C14.3672 14.5412 14.4387 14.5501 14.5127 14.5485C14.5867 14.5461 14.6574 14.5314 14.7265 14.5054C14.7956 14.4794 14.859 14.4436 14.9159 14.3965C14.9728 14.3493 15.0208 14.2949 15.0598 14.2323C15.1687 14.2803 15.2809 14.3128 15.3988 14.329C15.4752 14.3355 15.5516 14.3355 15.628 14.329C15.6353 14.4599 15.6735 14.5818 15.7426 14.694C15.8117 14.8054 15.9028 14.8948 16.0166 14.9606C16.1206 15.033 16.2361 15.0769 16.3629 15.0923C16.4889 15.1078 16.6108 15.094 16.7303 15.0493C16.801 15.4102 16.9701 15.7166 17.2359 15.9686C17.305 16.0369 17.3798 16.0987 17.4603 16.154C17.4359 16.3328 17.4554 16.5068 17.5172 16.6767C17.6944 17.1514 18.1456 17.4237 18.526 17.2823C18.613 17.2392 18.6894 17.1823 18.7561 17.1116C18.8219 17.0417 18.8739 16.9612 18.9113 16.8718C18.9495 16.7824 18.9698 16.6889 18.9739 16.5921C18.978 16.4954 18.965 16.4003 18.9349 16.3084C19.0219 16.2613 19.0999 16.2028 19.1698 16.1337C19.6389 15.6662 19.5446 14.8013 18.9325 14.2217ZM14.8257 13.582L14.8541 13.6551C14.8712 13.7072 14.8964 13.7551 14.9297 13.799C14.833 13.7519 14.7647 13.6771 14.7265 13.5763L14.7078 13.5194C14.7037 13.4511 14.7135 13.3852 14.7346 13.3202C14.7566 13.256 14.7899 13.1983 14.8346 13.1463C14.8793 13.095 14.9322 13.0536 14.9923 13.0227C15.0533 12.9918 15.1175 12.9739 15.185 12.9682C15.2216 12.9601 15.259 12.9552 15.2972 12.9552C15.2248 12.9674 15.1582 12.9918 15.0956 13.03C15.033 13.0674 14.9801 13.1154 14.9362 13.1739C14.8923 13.2324 14.8606 13.2966 14.8419 13.3674C14.8224 13.4381 14.8167 13.5096 14.8257 13.582ZM16.1572 14.0494C16.0637 14.099 15.9946 14.1721 15.9515 14.2689C15.9117 14.3615 15.902 14.4575 15.9223 14.5558C15.9377 14.6265 15.9662 14.6908 16.0085 14.7493C15.9077 14.69 15.8426 14.6022 15.8158 14.4884C15.7995 14.4274 15.7995 14.3664 15.8158 14.3055C15.8402 14.2372 15.8784 14.1778 15.9312 14.1291C15.9841 14.0795 16.0458 14.0453 16.1149 14.0258L16.1775 14.0104C16.2084 14.0079 16.2385 14.0079 16.2694 14.0104C16.2304 14.0185 16.193 14.0315 16.1572 14.0494ZM16.0865 12.8715C16.0117 12.9609 15.9597 13.0625 15.9288 13.1747C15.8987 13.2877 15.893 13.4015 15.9117 13.5169C15.9353 13.6372 15.9849 13.7462 16.0605 13.8429C15.9727 13.8006 15.8987 13.7421 15.8377 13.6649C15.7776 13.5885 15.7369 13.5023 15.7166 13.4072C15.702 13.2918 15.7158 13.1804 15.7589 13.0723C15.802 12.9642 15.8686 12.8739 15.9589 12.8008C16.1019 12.6731 16.2686 12.5919 16.4564 12.5553C16.5124 12.5439 16.5694 12.5366 16.6263 12.535C16.4084 12.5862 16.2287 12.6983 16.0865 12.8715ZM17.9814 15.8849C17.918 15.9182 17.8619 15.9621 17.8147 16.0158C17.848 15.9028 17.9171 15.8199 18.0228 15.7679C18.0757 15.7443 18.1301 15.7321 18.1878 15.7321C18.2456 15.7313 18.3 15.7427 18.3529 15.7654C18.4065 15.7874 18.452 15.8199 18.4919 15.8613C18.5317 15.9036 18.561 15.9516 18.5805 16.0052C18.5927 16.0337 18.6016 16.0621 18.6089 16.0914C18.5821 16.0353 18.5447 15.9873 18.4976 15.9459C18.4504 15.9052 18.3976 15.8752 18.339 15.8557C18.2797 15.8361 18.2187 15.8288 18.1569 15.8345C18.0952 15.8394 18.0366 15.8565 17.9814 15.8849ZM17.2725 14.6347C17.1628 14.7485 17.0855 14.8818 17.0408 15.0338C17.0099 14.8078 17.0628 14.603 17.1994 14.4201C17.2156 14.3957 17.2327 14.3721 17.2514 14.3493C17.3327 14.2705 17.427 14.2103 17.5335 14.1705C17.6399 14.1307 17.7505 14.1136 17.8643 14.1201C18.1797 14.1347 18.4504 14.2534 18.674 14.4778C18.726 14.5298 18.7731 14.5843 18.8178 14.642C18.7666 14.5924 18.7113 14.5485 18.652 14.5095C18.5927 14.4705 18.5301 14.438 18.4642 14.4111C18.3984 14.3843 18.3309 14.3632 18.261 14.3493C18.1919 14.3355 18.1212 14.329 18.0505 14.3282C17.9797 14.3282 17.909 14.3347 17.8391 14.3477C17.77 14.3607 17.7017 14.3802 17.6359 14.4063C17.57 14.4331 17.5066 14.4648 17.4473 14.503C17.3871 14.542 17.3319 14.5851 17.2798 14.6347H17.2725ZM17.3636 16.645C16.9717 16.8019 16.6246 17.0262 16.3206 17.3197C16.0166 17.6123 15.7784 17.9513 15.6069 18.3374L14.2103 17.4733C14.7078 17.0791 15.2264 15.7386 14.6769 14.642C14.781 14.6184 14.8769 14.5745 14.9639 14.5119C15.2061 14.9932 15.2931 15.5012 15.224 16.0369C15.4037 15.65 15.5703 15.2817 15.7247 14.9029C15.7873 14.9696 15.8581 15.0273 15.9353 15.0761C15.9954 15.1118 16.0572 15.1411 16.1231 15.1647C16.067 15.7866 15.8613 16.354 15.5053 16.8669C15.7467 16.6247 16.0255 16.4393 16.3426 16.3117C16.6588 16.1841 16.988 16.1239 17.3294 16.1304C17.305 16.3052 17.3188 16.4767 17.3717 16.645H17.3636ZM13.3373 19.9567C13.0178 19.9063 12.7024 19.8372 12.391 19.7503C12.4398 19.9966 12.465 20.2461 12.4666 20.4973C12.2642 20.2819 12.0765 20.0535 11.9041 19.8129C11.7172 20.0055 11.5147 20.1795 11.2969 20.3355C11.2888 20.0405 11.3083 19.7486 11.357 19.4576C11.0603 19.469 10.7636 19.4617 10.4685 19.434C10.6677 19.2804 10.8799 19.1463 11.1042 19.0325C10.8433 18.8406 10.5953 18.6341 10.3588 18.413C10.6848 18.4821 11.0067 18.5691 11.3229 18.674C11.2709 18.4366 11.2408 18.1968 11.2319 17.9537C11.4554 18.1805 11.6611 18.4228 11.8497 18.6797C12.0114 18.5464 12.1854 18.4301 12.3707 18.3326C12.3626 18.5325 12.3358 18.7301 12.2894 18.9252C12.5748 18.9244 12.8585 18.9398 13.1422 18.9723C12.9454 19.1138 12.7373 19.2373 12.5195 19.343C12.804 19.5308 13.0771 19.7356 13.3373 19.9567ZM15.1899 6.73735C15.2029 6.42926 15.1785 6.12524 15.1159 5.82365C15.0525 5.52206 14.9541 5.23267 14.82 4.95547C14.6859 4.67909 14.5192 4.42302 14.3217 4.18728C14.1233 3.95154 13.8998 3.74425 13.6502 3.56379H13.6372V3.57761C13.6299 3.47437 13.6006 3.37845 13.5494 3.28903C13.4974 3.20042 13.4283 3.12726 13.343 3.07036C13.1828 2.97118 13.0089 2.92729 12.8211 2.93704C12.7755 2.86957 12.7195 2.81186 12.6536 2.76227C12.5886 2.71349 12.5162 2.67691 12.439 2.65171C12.361 2.62651 12.2813 2.61513 12.1992 2.61595C12.1179 2.61757 12.0382 2.63302 11.9618 2.66066C12.0334 2.64196 12.1065 2.63464 12.1805 2.63871C12.2545 2.64196 12.3268 2.65659 12.3959 2.68179C12.4658 2.70699 12.5301 2.74276 12.5894 2.78747C12.6487 2.83218 12.6999 2.88502 12.743 2.94517C12.6203 2.9598 12.5105 3.00533 12.4138 3.08255C12.3171 3.15978 12.248 3.25651 12.2065 3.37357C12.2065 3.63451 12.5634 3.80685 12.7276 3.61663C12.8007 3.55485 12.8544 3.47925 12.8877 3.38901C12.9219 3.2996 12.9308 3.20692 12.9154 3.11263C13.0357 3.10856 13.143 3.14352 13.2381 3.21668C13.3226 3.27521 13.386 3.35162 13.4275 3.4451C13.4698 3.5394 13.4852 3.63695 13.473 3.73937C13.2674 4.18322 12.7065 5.35542 12.1203 6.43983C11.6253 7.34865 11.0026 8.15911 10.2523 8.8704C10.6238 8.94356 10.9937 8.93543 11.3619 8.84764C11.6944 8.76554 12.0065 8.63547 12.2984 8.45745C12.591 8.27942 12.8495 8.06075 13.0739 7.80225C13.1552 8.58589 13.3088 9.27848 13.356 9.589C13.3649 9.57925 13.3722 9.56868 13.3787 9.5573C13.4779 9.41342 13.5649 9.2614 13.6397 9.10289C13.5933 9.08663 13.5527 9.06224 13.5161 9.02973C13.4795 8.99721 13.4503 8.95901 13.4283 8.91511C13.4064 8.87203 13.3934 8.82569 13.3885 8.77692C13.3844 8.72814 13.3901 8.68018 13.4039 8.63303C13.4186 8.58589 13.4405 8.54361 13.4714 8.50541C13.5015 8.4672 13.538 8.43631 13.5811 8.41192C13.6234 8.38835 13.6689 8.37291 13.7177 8.3664C13.7657 8.3599 13.8136 8.36234 13.8616 8.37453C13.8933 8.38266 13.9234 8.39485 13.9526 8.41111L14.0071 8.26723C13.9673 8.27129 13.9274 8.27129 13.8876 8.26723C13.8234 8.25666 13.7632 8.2339 13.7079 8.19976C13.6535 8.1648 13.6063 8.12172 13.5689 8.06807C13.5315 8.01523 13.5047 7.95751 13.4901 7.89329C13.4755 7.82989 13.4738 7.76648 13.4844 7.70226C13.495 7.63804 13.5177 7.57789 13.5519 7.52261C13.5868 7.46733 13.6299 7.421 13.6836 7.38279C13.7364 7.3454 13.7941 7.31939 13.8575 7.30475C13.9209 7.29012 13.9843 7.28768 14.0485 7.29825C14.1282 7.30882 14.2006 7.33564 14.268 7.37954C14.281 7.30882 14.2908 7.23891 14.3014 7.16819C14.2241 7.20152 14.1428 7.21371 14.0591 7.20477C13.9916 7.20477 13.9274 7.19176 13.8656 7.16494C13.8039 7.13892 13.7502 7.10072 13.7039 7.05194C13.6575 7.00317 13.6226 6.94789 13.599 6.88449C13.5754 6.82108 13.5657 6.75605 13.5689 6.68858C13.5722 6.62192 13.5893 6.5577 13.6185 6.49754C13.6478 6.43658 13.6884 6.38455 13.7396 6.34065C13.7909 6.29676 13.8478 6.26506 13.912 6.24473C13.9762 6.22522 14.042 6.21872 14.1087 6.22522C14.1876 6.2236 14.2623 6.24067 14.3331 6.27725C14.3331 6.21222 14.3331 6.14718 14.3144 6.0789C14.2501 6.11223 14.1811 6.12849 14.1087 6.12849C14.0437 6.13337 13.9803 6.12605 13.9185 6.10573C13.8575 6.0854 13.8014 6.0537 13.7527 6.01143C13.7031 5.96835 13.664 5.91876 13.6348 5.86023C13.6055 5.80252 13.5884 5.74073 13.5836 5.6757C13.5787 5.61067 13.586 5.54726 13.6063 5.48548C13.6267 5.4237 13.6584 5.36761 13.7006 5.31884C13.7429 5.26925 13.7933 5.23023 13.8518 5.20016C13.9095 5.17089 13.9713 5.15382 14.0355 5.14894C14.0664 5.1465 14.0965 5.1465 14.1266 5.14894C14.1111 5.0896 14.0933 5.03189 14.0746 4.97417C14.0526 4.98149 14.0299 4.98636 14.0071 4.99043C13.9559 4.99937 13.9047 4.99856 13.8535 4.98799C13.8022 4.97661 13.7559 4.95629 13.7128 4.92621C13.6697 4.89613 13.6348 4.85955 13.6063 4.81484C13.5787 4.77095 13.56 4.72298 13.5511 4.67177C13.5421 4.62544 13.5421 4.5791 13.5502 4.53277C13.5584 4.48643 13.5746 4.44335 13.599 4.4027C13.6226 4.36206 13.6535 4.32791 13.6901 4.29865C13.7266 4.26939 13.7673 4.24744 13.812 4.2328C13.7283 4.03202 13.6551 3.87513 13.6031 3.77595C13.6031 3.74669 13.6031 3.72068 13.6031 3.69223L13.6242 3.59305C13.7673 3.78327 14.5493 5.48386 14.4265 6.72678C14.4631 7.96727 13.4283 9.82637 13.3218 9.72964C13.3584 9.86539 15.0964 8.77448 15.1899 6.73735ZM12.339 3.37357C12.3902 3.29065 12.4577 3.22562 12.5431 3.17929C12.6284 3.13214 12.7195 3.11019 12.8162 3.11263C12.9048 3.41015 12.3967 3.78083 12.339 3.37357ZM4.07833 16.1231C4.65142 16.4824 5.17249 16.9051 5.64235 17.392C5.92361 17.6765 6.18943 17.9716 6.45281 18.2724C5.97808 18.2139 5.52773 18.0781 5.10014 17.8635C4.67337 17.6497 4.29456 17.3693 3.96371 17.0238C3.53125 16.5645 3.22072 16.0337 3.03375 15.4305C3.70683 15.4256 4.33439 15.5915 4.91724 15.9296C5.33914 16.1792 5.69763 16.5003 5.99352 16.8921C6.28942 17.2831 6.49915 17.7164 6.62433 18.1911C6.3325 17.8879 6.03579 17.5904 5.72283 17.3083C5.22452 16.8417 4.67662 16.4442 4.07833 16.115V16.1231ZM9.74099 4.37913C9.85398 4.54496 9.94503 4.72217 10.0133 4.91076C10.0824 5.10017 10.1279 5.29445 10.1483 5.49361C10.1694 5.69359 10.1653 5.89275 10.1377 6.09191C10.1092 6.29107 10.0572 6.48291 9.9808 6.66907C9.89463 6.34553 9.80115 6.02444 9.68409 5.71066C9.50769 5.1969 9.25325 4.72461 8.91996 4.2954C9.21992 4.74249 9.43859 5.22698 9.57679 5.74724C9.66539 6.05289 9.73368 6.36342 9.79627 6.67963C9.61824 6.60241 9.45241 6.50567 9.29634 6.39105C9.14026 6.27644 8.99881 6.14556 8.872 5.99924C8.74519 5.85291 8.63545 5.6944 8.5444 5.52369C8.45254 5.35298 8.38101 5.17414 8.32898 4.98718C8.20705 4.47668 8.22575 3.97105 8.38345 3.4703C8.65171 3.5459 8.90208 3.66215 9.13376 3.81741C9.36624 3.97268 9.56866 4.15964 9.74099 4.37913ZM4.03931 14.0177C4.4165 13.7722 4.82701 13.6145 5.27167 13.5454C4.91074 13.3787 4.53193 13.3105 4.13604 13.3414L4.0889 13.0438C4.54331 13.0056 4.9774 13.0812 5.39198 13.2714C5.00747 12.9829 4.65468 12.6601 4.33358 12.3025L4.55794 12.1009C4.95057 12.5471 5.39685 12.9292 5.8976 13.2479L5.92117 13.2633C5.92036 13.269 5.92036 13.2755 5.92117 13.2812C5.87403 13.3552 5.84151 13.434 5.82444 13.5194C5.82444 13.5194 5.82444 13.5348 5.82444 13.5405C5.80818 13.6104 5.80168 13.682 5.8033 13.7543C5.80249 13.7763 5.80249 13.7974 5.8033 13.8193C5.23102 13.8039 4.70345 13.9518 4.2214 14.2632L4.03931 14.0177ZM4.98309 11.8399L5.26923 11.7594C5.4123 12.1635 5.63097 12.5211 5.92605 12.8325C5.88215 12.7487 5.84232 12.665 5.80655 12.5715C5.62121 12.1781 5.57325 11.7692 5.66267 11.3441L5.94963 11.4302C5.88215 11.7863 5.92605 12.1285 6.08213 12.4561C6.1496 12.6162 6.2317 12.7674 6.33006 12.9105C6.2569 12.9382 6.18862 12.9755 6.12684 13.0227L6.07481 13.0674C6.01872 13.1211 5.96913 13.1804 5.92605 13.2446C5.49278 12.8569 5.179 12.3886 4.98309 11.8399Z" fill="#57A52C"/>
<path d="M6.43655 14.7444C6.37964 14.6996 6.3325 14.6574 6.28291 14.6135C6.32843 14.659 6.37964 14.7021 6.43655 14.7444ZM7.7632 13.2242C7.14296 12.8536 6.66579 12.7877 6.33006 12.921C6.2569 12.9487 6.18861 12.9861 6.12683 13.0332L6.07481 13.0779C6.01872 13.1316 5.96913 13.1909 5.92605 13.2551C5.92523 13.2616 5.92523 13.2673 5.92605 13.2738C5.8789 13.347 5.8472 13.4258 5.82931 13.5112C5.82931 13.5112 5.82931 13.5266 5.82931 13.5323C5.81387 13.603 5.80655 13.6738 5.80899 13.7461C5.80736 13.7681 5.80736 13.79 5.80899 13.812C5.87321 14.1347 6.0366 14.3956 6.29836 14.5948C6.49426 14.2656 6.73976 13.9786 7.03647 13.7355C6.81536 14.0575 6.61864 14.3932 6.44712 14.7444C6.54385 14.8167 6.64302 14.8834 6.74708 14.9451L6.62433 14.8663C6.82186 14.5208 7.07386 14.2217 7.38033 13.968C7.15515 14.2851 6.95355 14.6159 6.77553 14.9606L6.96575 15.0679C7.16165 14.7322 7.40796 14.4395 7.7063 14.19C7.49657 14.5013 7.30635 14.8232 7.13483 15.1565L7.33562 15.2581C7.52909 14.9443 7.76889 14.6704 8.05503 14.4387C7.8575 14.7338 7.67459 15.0386 7.50795 15.3524L7.7193 15.4516C7.90221 15.1524 8.12901 14.8915 8.39889 14.6679C8.27126 14.8874 8.0339 15.2085 7.87782 15.5199L8.09974 15.6215C8.27451 15.3475 8.48831 15.1085 8.74031 14.9029C8.62081 15.1045 8.40946 15.3971 8.25582 15.6865L8.48993 15.7857C8.65495 15.5394 8.85249 15.3231 9.08172 15.1354C8.97523 15.3207 8.78989 15.5825 8.64113 15.8458L8.88907 15.9426C9.04189 15.728 9.22154 15.5369 9.42558 15.3711C9.32966 15.5353 9.16545 15.7621 9.03214 15.9946L9.29308 16.0913C9.43127 15.9092 9.58897 15.7467 9.767 15.6028C9.68408 15.7467 9.55077 15.9344 9.42883 16.1255L9.71497 16.2165C9.83284 16.0718 9.96453 15.9409 10.1109 15.8255C10.0409 15.9426 9.93933 16.0865 9.85073 16.2507C10.4214 16.4157 10.8669 16.4677 10.9685 16.2978C11.2449 15.8385 8.71186 13.7933 7.7632 13.2242Z" fill="#F68302"/>
</svg>
