<svg
      width="45"
      height="70"
      viewBox="0 0 45 70"
      fill="none"
      xmlns="http://www.w3.org/2000/svg"
    >
      <mask
        id="mask0_226_933"
        style="mask-type:luminance"
        maskUnits="userSpaceOnUse"
        x="0"
        y="47"
        width="45"
        height="23"
      >
        <path d="M0 47.3516H45V69.902H0V47.3516Z" fill="white" />
      </mask>
      <g mask="url(#mask0_226_933)">
        <path
          d="M44.1082 50.1735H43.9871C43.4003 50.2726 42.8482 50.4724 42.3323 50.7697C41.7912 51.0937 41.3224 51.5011 40.926 51.9919C40.7011 52.2609 40.4935 52.5425 40.3063 52.8366C40.4573 54.4332 40.6083 56.0251 40.7546 57.6216C41.5065 63.7516 35.979 68.7946 30.3666 69.5638C25.1191 70.0136 19.8716 70.0136 14.6241 69.5638C8.57284 69.2444 4.03478 63.4228 4.23612 57.6216C4.38713 55.9999 4.54443 54.3781 4.69543 52.7564C4.5224 52.4906 4.33365 52.2357 4.13073 51.9919C3.72962 51.5027 3.2593 51.0953 2.71819 50.7697C2.19438 50.4693 1.6344 50.2695 1.03981 50.1735H1.00835C0.84948 50.1452 0.700046 50.087 0.563196 49.9989C0.426347 49.9109 0.311519 49.8007 0.218712 49.667C0.125906 49.5333 0.0614135 49.3871 0.026808 49.2282C-0.00937078 49.0693 -0.0125169 48.9089 0.0157971 48.7484C0.045684 48.588 0.102311 48.4401 0.190399 48.3017C0.278486 48.1648 0.388595 48.05 0.520726 47.9556C0.65443 47.8628 0.800717 47.7983 0.959589 47.7637C1.11846 47.7276 1.27733 47.7244 1.43778 47.7527L1.5589 47.7779C2.42719 48.0233 3.22312 48.4165 3.94354 48.9608C4.31162 49.2298 4.64824 49.5349 4.95183 49.8747L5.1343 47.9808H39.8375L40.0184 49.936C40.3346 49.5727 40.6854 49.2471 41.0723 48.9608C41.7943 48.4228 42.5887 48.0327 43.457 47.7936C43.6143 47.7496 43.7747 47.7386 43.9367 47.759C44.0987 47.7795 44.2498 47.8298 44.3929 47.9116C44.5345 47.9918 44.6556 48.0972 44.7547 48.2262C44.8554 48.3567 44.9277 48.4999 44.9702 48.6572C45.0127 48.8161 45.0252 48.9749 45.0048 49.1369C44.9843 49.3005 44.9324 49.4515 44.8522 49.5947C44.772 49.7363 44.6666 49.8574 44.5376 49.958C44.4086 50.0587 44.2655 50.1295 44.1082 50.1735Z"
          fill="#212121"
        />
      </g>
      <path
        d="M31.1138 40.8143C32.0859 40.0781 33.1696 39.5889 34.3651 39.3498C34.3274 39.7431 34.2582 40.1316 34.1543 40.5123C34.0521 40.8945 33.92 41.2657 33.7548 41.626C33.5912 41.9862 33.3977 42.3291 33.1775 42.6563C32.9557 42.985 32.7088 43.2917 32.4366 43.578C32.1645 43.8643 31.8704 44.1254 31.5542 44.363C31.238 44.6005 30.9045 44.8097 30.5538 44.9906C30.203 45.173 29.8396 45.324 29.4637 45.4452C29.0877 45.5663 28.7055 45.6544 28.3138 45.711C28.9556 45.2061 29.5895 44.7011 30.1951 44.1506C31.1924 43.287 32.0701 42.3149 32.8283 41.2343C32.0198 42.2662 31.0996 43.1848 30.0646 43.9886C29.4637 44.4935 28.8392 44.9229 28.2084 45.3681C28.4161 44.4636 28.77 43.6205 29.2686 42.8403C29.7673 42.0585 30.3823 41.3837 31.1138 40.8143ZM9.07778 39.4505C9.7699 38.9188 10.5312 38.5177 11.3618 38.2472C11.8651 38.0663 12.37 37.9247 12.9049 37.7879C12.6076 37.662 12.3008 37.5739 11.9815 37.5236C11.6638 37.4733 11.3445 37.4638 11.0236 37.4937C10.7027 37.5236 10.3912 37.5912 10.0876 37.6982C9.78248 37.8052 9.4962 37.9483 9.22879 38.1261C8.48791 38.6829 7.98298 39.4065 7.71558 40.2936C8.52409 40.5736 9.34676 40.6208 10.182 40.4352C10.7908 40.2732 11.335 39.9885 11.8164 39.5795C12.2977 39.1721 12.6689 38.6813 12.93 38.1056C12.4251 38.1968 11.9217 38.3038 11.4168 38.4344C10.5816 38.6451 9.80136 38.9833 9.07778 39.4505ZM37.1587 14.4621C31.6533 14.967 31.0272 18.5046 30.9816 20.7524C31.4865 20.0808 31.9899 19.4185 32.4948 18.7815C33.3254 17.7575 34.266 16.8483 35.3183 16.0539C34.3164 16.8939 33.4308 17.844 32.6616 18.9042C32.207 19.5554 31.7681 20.2129 31.3355 20.8641C33.5786 20.496 37.552 19.1857 37.1587 14.4621ZM23.8922 25.5784C23.749 25.5091 23.598 25.4887 23.4407 25.5154C23.285 25.5437 23.1513 25.6161 23.0396 25.7309C22.8273 25.9653 22.6763 26.2359 22.5866 26.5394C22.4293 26.1226 22.1823 25.7687 21.8441 25.4777C21.7592 25.41 21.6664 25.3581 21.5626 25.3251C21.4588 25.2905 21.3518 25.2779 21.2433 25.2826C21.1347 25.2889 21.0309 25.3125 20.9302 25.3566C20.8311 25.4006 20.743 25.4619 20.6644 25.539C20.5622 25.7215 20.5102 25.9165 20.5102 26.1273C20.5102 26.3365 20.5622 26.5332 20.6644 26.7156C21.0576 27.661 21.6459 28.4601 22.4293 29.116C23.2205 28.4884 23.7726 27.694 24.0841 26.7313C24.2052 26.3412 24.2508 25.8159 23.8922 25.5894V25.5784ZM12.5619 13.9556C12.488 13.5828 12.488 13.2084 12.5619 12.834C12.6264 12.3637 12.9049 11.0959 12.0114 11.8242C11.604 12.1576 11.7393 13.4616 12.2741 14.2182C11.9642 14.6256 11.7959 15.0834 11.7692 15.593C11.9768 15.1054 12.3118 14.7342 12.779 14.4825C13.1534 14.278 13.5529 14.1836 13.9776 14.1994C13.8392 14.0484 13.6709 13.9445 13.4743 13.8848C13.1565 13.7951 12.853 13.8266 12.5619 13.9807V13.9556Z"
        fill="#157A2C"
      />
      <mask
        id="mask1_226_933"
        style="mask-type:luminance"
        maskUnits="userSpaceOnUse"
        x="11"
        y="0"
        width="15"
        height="46"
      >
        <path d="M11.4985 0H25.9951V45.3382H11.4985V0Z" fill="white" />
      </mask>
      <g mask="url(#mask1_226_933)">
        <path
          d="M25.2589 38.7678C24.9805 38.7128 24.6282 38.642 24.29 38.5555C24.3387 38.9235 24.3639 39.2916 24.3655 39.6628V40.2795L23.9424 39.8296C23.6073 39.4772 23.2927 39.1091 23.0001 38.7222C22.6824 39.0242 22.3458 39.3042 21.9903 39.5622L21.6222 39.8296V39.3687C21.608 38.8858 21.6285 38.4045 21.6835 37.9247C21.1991 37.9294 20.7177 37.909 20.2364 37.8633L19.6214 37.8083L20.1247 37.4292C20.4157 37.1995 20.7225 36.9919 21.0433 36.8079C20.5384 36.4036 20.0036 35.9286 19.9076 35.8421C19.505 35.8436 19.1101 35.9003 18.7232 36.0104C18.3347 36.1189 17.9697 36.2793 17.6252 36.4886C17.2808 36.6993 16.9709 36.951 16.694 37.2452C16.4188 37.5393 16.1875 37.8649 16.0003 38.222C14.8961 40.4918 16.1309 43.3719 18.7594 44.6602C21.3863 45.9485 24.4111 45.1651 25.5153 42.8812C25.6648 42.554 25.7717 42.2142 25.8378 41.8603C25.9023 41.508 25.9243 41.1509 25.9023 40.7922C25.8787 40.4336 25.8142 40.0828 25.7057 39.7399C25.5956 39.3986 25.4477 39.0745 25.2589 38.7678ZM17.5985 38.631C17.4632 38.8134 17.3452 39.0053 17.2462 39.2082C17.0668 39.5763 16.9551 39.9649 16.9095 40.3723C16.8623 40.7797 16.8859 41.1839 16.9787 41.5835C17.2556 42.8859 16.908 42.9174 16.3983 41.401C16.23 40.9354 16.1576 40.4556 16.1812 39.9617C16.2064 39.4678 16.326 38.9975 16.5399 38.5507C16.628 38.3746 16.7286 38.2063 16.8419 38.0458C16.9347 37.9184 17.0574 37.8366 17.21 37.7989C17.3626 37.7627 17.5088 37.7784 17.6488 37.8476C17.8816 38.0096 17.8313 38.3337 17.5985 38.631ZM17.8911 37.5661C17.6394 37.5 17.7857 37.091 18.3394 36.7575C18.7719 36.476 19.2407 36.3832 19.7472 36.4791C19.9281 36.5845 19.6261 36.8079 19.1463 37.1004C18.7767 37.3852 18.3583 37.5409 17.8911 37.5661ZM18.396 1.95993C18.2607 1.72555 18.1931 1.4723 18.1931 1.20175C18.1931 0.931192 18.2607 0.677941 18.396 0.443566C18.4951 0.344468 18.6084 0.265818 18.7358 0.209191C18.8648 0.152563 18.9985 0.121104 19.1385 0.114812C19.2785 0.10852 19.4153 0.127395 19.5474 0.171439C19.6796 0.215483 19.8007 0.283121 19.9076 0.372782C20.3371 0.737715 20.6485 1.18444 20.8467 1.71139C20.9647 1.3323 21.1566 0.995684 21.4209 0.701536C21.5593 0.564686 21.7244 0.479745 21.9163 0.445139C22.1098 0.412106 22.2939 0.437274 22.47 0.519069C22.9183 0.802207 22.879 1.46915 22.717 1.98037C22.3238 3.20101 21.6253 4.21087 20.6249 5.01152C19.6277 4.17941 18.8836 3.16169 18.3913 1.95993H18.396ZM12.7726 19.8542C11.7643 18.5848 11.1241 15.7251 12.8937 14.8002C15.2485 13.5513 16.3134 16.8828 17.2163 18.3379C17.9729 19.5459 18.9922 20.4567 20.2757 21.0717C20.7146 21.2888 22.1114 21.5153 22.2121 21.9054C22.4244 22.673 20.7004 22.8193 20.2411 22.8649C17.5025 23.0615 14.3204 21.7733 12.7726 19.8542Z"
          fill="#F64B31"
        />
      </g>
      <path
        d="M36.6349 27.5194C36.1347 27.0239 35.5385 26.7172 34.8448 26.5992C34.837 26.3696 34.7992 26.1446 34.7316 25.9228C34.6655 25.7026 34.5711 25.495 34.4484 25.2999C34.3273 25.1033 34.1826 24.9271 34.0143 24.7698C33.846 24.6125 33.6604 24.4804 33.4575 24.3719C32.273 23.6388 30.8966 23.7301 30.3776 24.5685V24.6141L30.1998 24.5732C29.116 24.4364 28.1486 25.0278 28.0322 25.8977C28.0322 25.9637 28.0322 26.0329 28.0322 26.099C27.326 25.9732 26.67 26.2862 26.5552 26.8163C26.4388 27.3479 26.9374 27.9394 27.6642 28.0951C27.801 28.1376 27.9394 28.1549 28.0826 28.1517C28.2257 28.147 28.3626 28.1187 28.4963 28.0684C28.63 28.018 28.7527 27.9488 28.8628 27.8576C28.9729 27.7664 29.0657 27.661 29.1412 27.5399C29.352 27.6327 29.569 27.6956 29.7971 27.727C29.945 27.7396 30.0928 27.7396 30.2407 27.727C30.2549 27.9803 30.3288 28.2162 30.4625 28.4333C30.5962 28.6488 30.7724 28.8218 30.9926 28.9493C31.1939 29.0892 31.4173 29.1742 31.6627 29.2041C31.9065 29.234 32.1424 29.2072 32.3737 29.1207C32.5105 29.8191 32.8377 30.4121 33.3521 30.8998C33.4858 31.0319 33.6305 31.1514 33.7862 31.2584C33.739 31.6045 33.7768 31.9411 33.8963 32.2698C34.2392 33.1885 35.1122 33.7154 35.8484 33.4417C36.0167 33.3583 36.1646 33.2482 36.2936 33.1114C36.421 32.9761 36.5216 32.8204 36.594 32.6473C36.6679 32.4743 36.7073 32.2934 36.7151 32.1062C36.723 31.9191 36.6978 31.735 36.6396 31.5573C36.8079 31.466 36.9589 31.3528 37.0942 31.2191C38.0018 30.3146 37.8194 28.6409 36.6349 27.5194ZM28.6882 26.2815L28.7432 26.423C28.7763 26.5237 28.825 26.6165 28.8895 26.7015C28.7023 26.6102 28.5702 26.4655 28.4963 26.2705L28.4601 26.1603C28.4522 26.0282 28.4711 25.9008 28.512 25.775C28.5545 25.6507 28.619 25.539 28.7055 25.4383C28.792 25.3392 28.8942 25.259 29.0106 25.1993C29.1286 25.1395 29.2529 25.1049 29.3834 25.0939C29.4542 25.0781 29.5266 25.0687 29.6005 25.0687C29.4605 25.0923 29.3315 25.1395 29.2104 25.2134C29.0893 25.2858 28.987 25.3786 28.9021 25.4918C28.8172 25.6051 28.7558 25.7293 28.7196 25.8662C28.6819 26.003 28.6709 26.1415 28.6882 26.2815ZM31.2647 27.1859C31.0838 27.2819 30.9501 27.4235 30.8668 27.6106C30.7897 27.79 30.7708 27.9756 30.8101 28.1659C30.84 28.3028 30.8951 28.427 30.9769 28.5403C30.7818 28.4254 30.656 28.2556 30.6041 28.0353C30.5726 27.9174 30.5726 27.7994 30.6041 27.6814C30.6513 27.5493 30.7252 27.4345 30.8274 27.3401C30.9297 27.2441 31.0492 27.1781 31.1829 27.1403L31.304 27.1104C31.3638 27.1057 31.422 27.1057 31.4818 27.1104C31.4063 27.1262 31.3339 27.1513 31.2647 27.1859ZM31.1279 24.9067C30.9832 25.0797 30.8825 25.2763 30.8227 25.4934C30.7645 25.712 30.7535 25.9323 30.7897 26.1556C30.8353 26.3884 30.9312 26.5992 31.0775 26.7864C30.9077 26.7046 30.7645 26.5913 30.6465 26.4419C30.5301 26.2941 30.4515 26.1273 30.4122 25.9433C30.3838 25.7199 30.4106 25.5044 30.494 25.2952C30.5773 25.086 30.7063 24.9114 30.8809 24.7698C31.1578 24.5229 31.4802 24.3656 31.8436 24.2948C31.9521 24.2728 32.0622 24.2586 32.1723 24.2555C31.7508 24.3546 31.4031 24.5716 31.1279 24.9067ZM34.7945 30.7377C34.6718 30.8022 34.5633 30.8872 34.472 30.991C34.5365 30.7723 34.6702 30.6119 34.8747 30.5112C34.977 30.4656 35.0824 30.442 35.194 30.442C35.3057 30.4404 35.4111 30.4625 35.5134 30.5065C35.6172 30.549 35.7053 30.6119 35.7823 30.6921C35.8594 30.7739 35.916 30.8667 35.9538 30.9705C35.9774 31.0256 35.9947 31.0806 36.0088 31.1373C35.9569 31.0287 35.8846 30.9359 35.7933 30.8557C35.7021 30.7771 35.5999 30.7189 35.4866 30.6811C35.3718 30.6434 35.2538 30.6292 35.1343 30.6402C35.0147 30.6497 34.9015 30.6827 34.7945 30.7377ZM33.4229 28.3185C33.2105 28.5387 33.0611 28.7967 32.9746 29.0908C32.9148 28.6535 33.017 28.2571 33.2813 27.9032C33.3127 27.856 33.3458 27.8104 33.382 27.7664C33.5393 27.6138 33.7217 27.4974 33.9278 27.4203C34.1338 27.3432 34.3478 27.3102 34.568 27.3228C35.1783 27.3511 35.7021 27.5808 36.1347 28.0149C36.2354 28.1156 36.3266 28.221 36.4131 28.3326C36.314 28.2367 36.207 28.1517 36.0922 28.0762C35.9774 28.0007 35.8563 27.9378 35.7289 27.8859C35.6014 27.834 35.4709 27.7931 35.3356 27.7664C35.2019 27.7396 35.0651 27.727 34.9282 27.7255C34.7914 27.7255 34.6545 27.7381 34.5192 27.7632C34.3855 27.7884 34.2534 27.8261 34.126 27.8765C33.9986 27.9284 33.8759 27.9897 33.761 28.0637C33.6446 28.1392 33.5377 28.2225 33.437 28.3185H33.4229ZM33.599 32.2085C32.8409 32.5121 32.1692 32.9462 31.5809 33.5141C30.9926 34.0803 30.5317 34.7363 30.1998 35.4834L27.4974 33.8114C28.4601 33.0485 29.4636 30.4546 28.4003 28.3326C28.6017 28.287 28.7873 28.2021 28.9556 28.081C29.4243 29.0122 29.5926 29.9953 29.4589 31.0319C29.8066 30.2831 30.129 29.5706 30.4279 28.8376C30.549 28.9666 30.6859 29.0782 30.8353 29.1726C30.9517 29.2418 31.0712 29.2985 31.1987 29.3441C31.0901 30.5474 30.6922 31.6454 30.0032 32.6379C30.4704 32.1692 31.0099 31.8105 31.6234 31.5636C32.2353 31.3166 32.8723 31.2002 33.533 31.2128C33.4858 31.551 33.5125 31.8829 33.6148 32.2085H33.599ZM25.808 38.6168C25.1898 38.5193 24.5795 38.3856 23.9771 38.2173C24.0715 38.6939 24.1202 39.1768 24.1234 39.6629C23.7317 39.246 23.3683 38.804 23.0349 38.3384C22.6731 38.7112 22.2814 39.0478 21.8598 39.3498C21.8441 38.7788 21.8819 38.2141 21.9762 37.651C21.4021 37.673 20.828 37.6589 20.257 37.6054C20.6423 37.3081 21.0529 37.0486 21.487 36.8283C20.9821 36.4571 20.5023 36.0576 20.0446 35.6297C20.6754 35.7634 21.2983 35.9317 21.9102 36.1347C21.8095 35.6753 21.7513 35.2113 21.734 34.741C22.1666 35.1799 22.5645 35.6486 22.9295 36.1457C23.2425 35.8877 23.5791 35.6628 23.9377 35.474C23.922 35.861 23.8701 36.2432 23.7804 36.6207C24.3326 36.6191 24.8815 36.649 25.4305 36.7119C25.0499 36.9856 24.6472 37.2247 24.2256 37.4292C24.7761 37.7926 25.3047 38.189 25.808 38.6168ZM29.3929 13.0369C29.418 12.4408 29.3708 11.8525 29.2497 11.2689C29.127 10.6853 28.9367 10.1253 28.6772 9.58893C28.4176 9.05412 28.0952 8.55863 27.7129 8.10246C27.3291 7.64629 26.8965 7.24518 26.4136 6.89598H26.3885V6.92272C26.3743 6.72295 26.3177 6.53734 26.2186 6.36431C26.1179 6.19285 25.9842 6.05129 25.819 5.94118C25.5092 5.74927 25.1725 5.66433 24.8092 5.68321C24.7211 5.55265 24.6126 5.44097 24.4851 5.34501C24.3593 5.25064 24.2193 5.17985 24.0699 5.13109C23.9189 5.08233 23.7647 5.0603 23.6058 5.06188C23.4485 5.06502 23.2944 5.09491 23.1465 5.14839C23.285 5.11221 23.4265 5.09806 23.5697 5.10592C23.7128 5.11221 23.8528 5.14053 23.9865 5.18929C24.1218 5.23805 24.2461 5.30726 24.3609 5.39378C24.4757 5.48029 24.5748 5.58254 24.6582 5.69894C24.4207 5.72725 24.2083 5.81534 24.0211 5.96477C23.8339 6.1142 23.7002 6.30139 23.62 6.5279C23.62 7.03283 24.3105 7.3663 24.6283 6.99822C24.7699 6.87868 24.8737 6.73239 24.9382 6.55779C25.0042 6.38476 25.0215 6.20544 24.9916 6.02297C25.2245 6.01511 25.4321 6.08274 25.6161 6.22431C25.7797 6.33757 25.9024 6.48543 25.9826 6.66632C26.0644 6.84879 26.0943 7.03755 26.0707 7.23574C25.6728 8.09459 24.5874 10.3628 23.4533 12.4612C22.4953 14.2198 21.2904 15.7881 19.8385 17.1644C20.5574 17.306 21.2731 17.2903 21.9857 17.1204C22.629 16.9615 23.233 16.7098 23.7978 16.3654C24.364 16.0209 24.8642 15.5977 25.2984 15.0975C25.4557 16.6139 25.753 17.9541 25.8442 18.555C25.8615 18.5361 25.8757 18.5156 25.8883 18.4936C26.0802 18.2152 26.2485 17.921 26.3932 17.6143C26.3035 17.5828 26.2249 17.5357 26.1541 17.4727C26.0833 17.4098 26.0267 17.3359 25.9842 17.2509C25.9417 17.1676 25.9166 17.0779 25.9071 16.9835C25.8993 16.8892 25.9103 16.7964 25.937 16.7051C25.9653 16.6139 26.0078 16.5321 26.0676 16.4582C26.1258 16.3842 26.1966 16.3245 26.2799 16.2773C26.3617 16.2317 26.4498 16.2018 26.5442 16.1892C26.637 16.1766 26.7298 16.1813 26.8226 16.2049C26.884 16.2206 26.9422 16.2442 26.9988 16.2757L27.1042 15.9973C27.0271 16.0051 26.95 16.0051 26.8729 15.9973C26.7487 15.9768 26.6323 15.9328 26.5253 15.8667C26.4199 15.7991 26.3287 15.7157 26.2563 15.6119C26.184 15.5097 26.1321 15.398 26.1038 15.2737C26.0754 15.151 26.0723 15.0283 26.0927 14.9041C26.1132 14.7798 26.1572 14.6634 26.2233 14.5564C26.2909 14.4495 26.3743 14.3598 26.4781 14.2859C26.5804 14.2135 26.692 14.1632 26.8147 14.1349C26.9374 14.1065 27.0601 14.1018 27.1844 14.1223C27.3385 14.1427 27.4785 14.1946 27.6091 14.2796C27.6343 14.1427 27.6531 14.0075 27.6736 13.8706C27.5242 13.9351 27.3669 13.9587 27.2048 13.9414C27.0743 13.9414 26.95 13.9162 26.8305 13.8643C26.7109 13.814 26.6071 13.74 26.5174 13.6457C26.4278 13.5513 26.3601 13.4443 26.3145 13.3216C26.2689 13.1989 26.25 13.0731 26.2563 12.9425C26.2626 12.8136 26.2957 12.6893 26.3523 12.5729C26.4089 12.4549 26.4876 12.3542 26.5867 12.2693C26.6858 12.1844 26.7959 12.123 26.9201 12.0837C27.0444 12.0459 27.1718 12.0334 27.3008 12.0459C27.4534 12.0428 27.5981 12.0758 27.7349 12.1466C27.7349 12.0208 27.7349 11.8949 27.6988 11.7628C27.5745 11.8273 27.4408 11.8588 27.3008 11.8588C27.175 11.8682 27.0523 11.854 26.9327 11.8147C26.8147 11.7754 26.7062 11.714 26.6118 11.6322C26.5159 11.5489 26.4404 11.4529 26.3837 11.3397C26.3271 11.228 26.2941 11.1084 26.2846 10.9826C26.2752 10.8568 26.2894 10.7341 26.3287 10.6145C26.368 10.495 26.4294 10.3864 26.5112 10.2921C26.5929 10.1961 26.6905 10.1206 26.8037 10.0624C26.9154 10.0058 27.035 9.97274 27.1592 9.9633C27.219 9.95858 27.2772 9.95858 27.3354 9.9633C27.3055 9.84847 27.2709 9.73679 27.2347 9.62511C27.1923 9.63927 27.1482 9.64871 27.1042 9.65657C27.0051 9.67387 26.906 9.6723 26.8069 9.65185C26.7078 9.62983 26.6181 9.59051 26.5347 9.5323C26.4514 9.4741 26.3837 9.40332 26.3287 9.31681C26.2752 9.23186 26.239 9.13906 26.2217 9.03996C26.2044 8.9503 26.2044 8.86064 26.2202 8.77098C26.2359 8.68132 26.2673 8.59795 26.3145 8.5193C26.3601 8.44065 26.4199 8.37459 26.4907 8.31796C26.5615 8.26133 26.6401 8.21886 26.7267 8.19055C26.5646 7.80202 26.4231 7.49843 26.3224 7.30653C26.3224 7.2499 26.3224 7.19957 26.3224 7.14451L26.3633 6.95261C26.6401 7.32069 28.1534 10.6114 27.9158 13.0165C27.9866 15.4168 25.9842 19.0143 25.7781 18.8271C25.8489 19.0898 29.212 16.9788 29.3929 13.0369ZM23.8764 6.5279C23.9755 6.36746 24.1061 6.24162 24.2712 6.15196C24.4364 6.06072 24.6126 6.01825 24.7997 6.02297C24.9712 6.59868 23.9881 7.31597 23.8764 6.5279ZM7.89171 31.1986C9.00067 31.8939 10.009 32.7118 10.9181 33.6541C11.4624 34.2046 11.9768 34.7756 12.4864 35.3576C11.5678 35.2443 10.6963 34.9817 9.86895 34.5664C9.04314 34.1527 8.31012 33.61 7.66992 32.9415C6.83309 32.0528 6.23221 31.0256 5.87042 29.8584C7.17286 29.849 8.3872 30.1699 9.51503 30.8243C10.3314 31.3072 11.0251 31.9285 11.5977 32.6867C12.1702 33.4433 12.5761 34.2817 12.8183 35.2003C12.2536 34.6136 11.6795 34.0379 11.0739 33.492C10.1096 32.5891 9.04943 31.82 7.89171 31.1829V31.1986ZM18.8491 8.47368C19.0678 8.79457 19.244 9.13749 19.3761 9.50242C19.5098 9.86892 19.5979 10.2449 19.6372 10.6302C19.6781 11.0172 19.6702 11.4026 19.6168 11.788C19.5617 12.1733 19.461 12.5446 19.3132 12.9048C19.1464 12.2787 18.9655 11.6574 18.739 11.0502C18.3977 10.0561 17.9053 9.1422 17.2604 8.31167C17.8409 9.17681 18.264 10.1143 18.5314 11.121C18.7028 11.7125 18.835 12.3133 18.9561 12.9252C18.6116 12.7758 18.2907 12.5886 17.9887 12.3668C17.6867 12.145 17.413 11.8918 17.1676 11.6086C16.9222 11.3255 16.7099 11.0188 16.5337 10.6884C16.356 10.3581 16.2175 10.0121 16.1169 9.65028C15.8809 8.66244 15.9171 7.68405 16.2222 6.71509C16.7413 6.86137 17.2258 7.08631 17.6741 7.38675C18.124 7.68719 18.5157 8.04898 18.8491 8.47368ZM7.81621 27.1246C8.54607 26.6495 9.34043 26.3444 10.2009 26.2107C9.50245 25.8882 8.76944 25.7561 8.00339 25.8159L7.91216 25.2401C8.79146 25.1662 9.63143 25.3125 10.4337 25.6806C9.68963 25.1222 9.00696 24.4977 8.38563 23.8056L8.81977 23.4155C9.57953 24.2791 10.4431 25.0184 11.4121 25.635L11.4577 25.6649C11.4561 25.6759 11.4561 25.6884 11.4577 25.6995C11.3664 25.8426 11.3035 25.9952 11.2705 26.1603C11.2705 26.1603 11.2705 26.1902 11.2705 26.2012C11.239 26.3365 11.2264 26.4749 11.2296 26.6149C11.228 26.6574 11.228 26.6983 11.2296 26.7408C10.1222 26.7109 9.10134 26.9972 8.16856 27.5996L7.81621 27.1246ZM9.64244 22.9106L10.1961 22.7548C10.473 23.5366 10.8961 24.2287 11.4671 24.8312C11.3822 24.6692 11.3051 24.5071 11.2359 24.3262C10.8772 23.5649 10.7844 22.7737 10.9575 21.951L11.5127 22.1178C11.3822 22.8067 11.4671 23.469 11.7691 24.1029C11.8997 24.4128 12.0586 24.7053 12.2489 24.9822C12.1073 25.0357 11.9752 25.108 11.8556 25.1993L11.755 25.2858C11.6464 25.3896 11.5505 25.5044 11.4671 25.6287C10.6287 24.8784 10.0215 23.9723 9.64244 22.9106Z"
        fill="#57A52C"
      />
      <path
        d="M12.455 28.5308C12.3449 28.4443 12.2536 28.3625 12.1577 28.2775C12.2458 28.3656 12.3449 28.449 12.455 28.5308ZM15.0221 25.5893C13.8219 24.872 12.8986 24.7446 12.2489 25.0026C12.1074 25.056 11.9752 25.1284 11.8557 25.2196L11.755 25.3062C11.6465 25.41 11.5505 25.5248 11.4672 25.6491C11.4656 25.6616 11.4656 25.6727 11.4672 25.6852C11.3759 25.8268 11.3146 25.9794 11.28 26.1446C11.28 26.1446 11.28 26.1744 11.28 26.1855C11.2501 26.3223 11.2359 26.4592 11.2406 26.5991C11.2375 26.6416 11.2375 26.6841 11.2406 26.7266C11.3649 27.351 11.6811 27.856 12.1876 28.2413C12.5667 27.6043 13.0417 27.049 13.6159 26.5787C13.188 27.2016 12.8073 27.8512 12.4754 28.5308C12.6626 28.6708 12.8545 28.7998 13.0559 28.9193L12.8183 28.7667C13.2006 28.0982 13.6882 27.5193 14.2812 27.0286C13.8455 27.642 13.4554 28.2822 13.1109 28.9492L13.479 29.1568C13.8581 28.5072 14.3347 27.9409 14.912 27.458C14.5062 28.0605 14.1381 28.6834 13.8062 29.3283L14.1947 29.5249C14.5691 28.9177 15.0331 28.3876 15.5868 27.9393C15.2046 28.5103 14.8506 29.1002 14.5282 29.7074L14.9372 29.8993C15.2911 29.3204 15.7299 28.8155 16.2522 28.3829C16.0052 28.8076 15.5459 29.429 15.2439 30.0314L15.6733 30.228C16.0115 29.6979 16.4252 29.2355 16.9128 28.8375C16.6816 29.2276 16.2726 29.7939 15.9753 30.3539L16.4283 30.5458C16.7477 30.0692 17.1299 29.6507 17.5735 29.2874C17.3674 29.646 17.0088 30.1525 16.7209 30.6622L17.2007 30.8494C17.4964 30.4341 17.844 30.0644 18.2389 29.7435C18.0532 30.0613 17.7355 30.5002 17.4775 30.95L17.9825 31.1372C18.2499 30.7849 18.555 30.4703 18.8995 30.1918C18.7391 30.4703 18.4811 30.8336 18.2451 31.2033L18.7988 31.3795C19.0269 31.0995 19.2817 30.8462 19.5649 30.6228C19.4296 30.8494 19.233 31.1278 19.0615 31.4455C20.1658 31.7648 21.0278 31.8655 21.2244 31.5368C21.7592 30.648 16.8578 26.6904 15.0221 25.5893Z"
        fill="#F68302"
      />
    </svg>