w<svg width="24" height="24" viewBox="0 0 24 24" fill="none" xmlns="http://www.w3.org/2000/svg">
<g id="manufacturing">
<mask id="mask0_574_1091" style="mask-type:alpha" maskUnits="userSpaceOnUse" x="0" y="0" width="24" height="24">
<rect id="Bounding box" width="24" height="24" fill="#D9D9D9"/>
</mask>
<g mask="url(#mask0_574_1091)">
<path id="manufacturing_2" d="M5.55003 10.5C5.35003 10.4167 5.16253 10.3292 4.98753 10.2375C4.81253 10.1458 4.63336 10.0333 4.45003 9.9L3.72503 10.125C3.50836 10.1917 3.29586 10.1833 3.08753 10.1C2.87919 10.0167 2.71669 9.88333 2.60003 9.7L2.40003 9.35C2.28336 9.15 2.24169 8.93333 2.27503 8.7C2.30836 8.46667 2.41669 8.275 2.60003 8.125L3.15003 7.65C3.11669 7.43333 3.10003 7.21667 3.10003 7C3.10003 6.78333 3.11669 6.56667 3.15003 6.35L2.60003 5.875C2.41669 5.725 2.30836 5.5375 2.27503 5.3125C2.24169 5.0875 2.28336 4.875 2.40003 4.675L2.62503 4.3C2.74169 4.11667 2.90003 3.98333 3.10003 3.9C3.30003 3.81667 3.50836 3.80833 3.72503 3.875L4.45003 4.1C4.63336 3.96667 4.81253 3.85417 4.98753 3.7625C5.16253 3.67083 5.35003 3.58333 5.55003 3.5L5.70003 2.775C5.75003 2.54167 5.86253 2.35417 6.03753 2.2125C6.21253 2.07083 6.41669 2 6.65003 2H7.05003C7.28336 2 7.48753 2.075 7.66253 2.225C7.83753 2.375 7.95003 2.56667 8.00003 2.8L8.15003 3.5C8.35003 3.58333 8.53753 3.67083 8.71253 3.7625C8.88753 3.85417 9.06669 3.96667 9.25003 4.1L9.97503 3.875C10.1917 3.80833 10.4042 3.81667 10.6125 3.9C10.8209 3.98333 10.9834 4.11667 11.1 4.3L11.3 4.65C11.4167 4.85 11.4584 5.06667 11.425 5.3C11.3917 5.53333 11.2834 5.725 11.1 5.875L10.55 6.35C10.5834 6.56667 10.6 6.78333 10.6 7C10.6 7.21667 10.5834 7.43333 10.55 7.65L11.1 8.125C11.2834 8.275 11.3917 8.4625 11.425 8.6875C11.4584 8.9125 11.4167 9.125 11.3 9.325L11.075 9.7C10.9584 9.88333 10.8 10.0167 10.6 10.1C10.4 10.1833 10.1917 10.1917 9.97503 10.125L9.25003 9.9C9.06669 10.0333 8.88753 10.1458 8.71253 10.2375C8.53753 10.3292 8.35003 10.4167 8.15003 10.5L8.00003 11.225C7.95003 11.4583 7.83753 11.6458 7.66253 11.7875C7.48753 11.9292 7.28336 12 7.05003 12H6.65003C6.41669 12 6.21253 11.925 6.03753 11.775C5.86253 11.625 5.75003 11.4333 5.70003 11.2L5.55003 10.5ZM6.85003 9C7.40003 9 7.87086 8.80417 8.26253 8.4125C8.65419 8.02083 8.85003 7.55 8.85003 7C8.85003 6.45 8.65419 5.97917 8.26253 5.5875C7.87086 5.19583 7.40003 5 6.85003 5C6.30003 5 5.82919 5.19583 5.43753 5.5875C5.04586 5.97917 4.85003 6.45 4.85003 7C4.85003 7.55 5.04586 8.02083 5.43753 8.4125C5.82919 8.80417 6.30003 9 6.85003 9ZM14.35 20.9C14.0667 20.8 13.8042 20.6792 13.5625 20.5375C13.3209 20.3958 13.0834 20.2333 12.85 20.05L11.9 20.35C11.6 20.45 11.3 20.4458 11 20.3375C10.7 20.2292 10.4667 20.0333 10.3 19.75L10.025 19.275C9.85836 18.9917 9.80003 18.6875 9.85003 18.3625C9.90003 18.0375 10.05 17.7667 10.3 17.55L11.05 16.9C11.0167 16.6 11 16.3 11 16C11 15.7 11.0167 15.4 11.05 15.1L10.3 14.425C10.05 14.2083 9.90003 13.9417 9.85003 13.625C9.80003 13.3083 9.85836 13.0083 10.025 12.725L10.3 12.25C10.4667 11.9667 10.7 11.7708 11 11.6625C11.3 11.5542 11.6 11.55 11.9 11.65L12.85 11.95C13.0834 11.7667 13.3209 11.6042 13.5625 11.4625C13.8042 11.3208 14.0667 11.2 14.35 11.1L14.575 10.075C14.6417 9.75833 14.7959 9.5 15.0375 9.3C15.2792 9.1 15.5667 9 15.9 9H16.5C16.8334 9 17.1209 9.1 17.3625 9.3C17.6042 9.5 17.7584 9.75833 17.825 10.075L18.05 11.1C18.3334 11.2 18.5959 11.3208 18.8375 11.4625C19.0792 11.6042 19.3167 11.7667 19.55 11.95L20.5 11.65C20.8 11.55 21.1 11.5542 21.4 11.6625C21.7 11.7708 21.9334 11.9667 22.1 12.25L22.375 12.725C22.5417 13.0083 22.6 13.3125 22.55 13.6375C22.5 13.9625 22.35 14.2333 22.1 14.45L21.35 15.1C21.3834 15.4 21.4 15.7 21.4 16C21.4 16.3 21.3834 16.6 21.35 16.9L22.1 17.575C22.35 17.7917 22.5 18.0583 22.55 18.375C22.6 18.6917 22.5417 18.9917 22.375 19.275L22.1 19.75C21.9334 20.0333 21.7 20.2292 21.4 20.3375C21.1 20.4458 20.8 20.45 20.5 20.35L19.55 20.05C19.3167 20.2333 19.0792 20.3958 18.8375 20.5375C18.5959 20.6792 18.3334 20.8 18.05 20.9L17.825 21.925C17.7584 22.2417 17.6042 22.5 17.3625 22.7C17.1209 22.9 16.8334 23 16.5 23H15.9C15.5667 23 15.2792 22.9 15.0375 22.7C14.7959 22.5 14.6417 22.2417 14.575 21.925L14.35 20.9ZM16.2 19C17.0334 19 17.7417 18.7083 18.325 18.125C18.9084 17.5417 19.2 16.8333 19.2 16C19.2 15.1667 18.9084 14.4583 18.325 13.875C17.7417 13.2917 17.0334 13 16.2 13C15.3667 13 14.6584 13.2917 14.075 13.875C13.4917 14.4583 13.2 15.1667 13.2 16C13.2 16.8333 13.4917 17.5417 14.075 18.125C14.6584 18.7083 15.3667 19 16.2 19Z" fill="#1C1B1F"/>
</g>
</g>
</svg>
