<svg width="30" height="30" viewBox="0 0 30 30" fill="none" xmlns="http://www.w3.org/2000/svg">
<g id="waving-hand-skin-4_svgrepo.com">
<path id="Vector" d="M16.8357 13.9962C17.1478 14.342 17.4279 14.7934 17.3095 14.9119C17.1911 15.0303 16.8245 14.8142 16.5444 14.534C16.2643 14.2539 15.5953 17.2299 15.5313 17.3804C15.4832 17.494 14.7054 18.3857 14.2972 19.2342C14.1612 19.5175 14.182 20.3708 14.1308 20.422C13.9259 20.6269 13.6666 20.6045 13.1064 20.1098C12.5462 19.6136 12.2549 22.5656 12.9239 23.0314C14.0667 23.8286 16.3523 26.9983 19.3694 26.9983C22.8618 26.9983 26.095 23.3548 26.095 20.6798C26.095 18.0047 25.3107 16.9914 25.362 14.7502C25.4052 12.8531 26.7849 11.9471 26.7849 10.9978C26.7849 10.2005 25.5988 10.0052 25.2115 10.0052C24.5216 10.0052 22.753 10.8889 22.753 13.2182C22.753 14.1242 22.4937 14.9439 21.567 14.9439C20.6403 14.9439 19.6047 13.6712 18.9805 12.6803" fill="url(#paint0_linear_403_7661)"/>
<path id="Vector_2" d="M26.7848 10.9994C26.7848 10.5656 26.4343 10.311 26.0518 10.1686C26.5111 11.6894 24.1823 11.7566 24.1823 16.9418C24.1823 22.127 21.1636 23.6366 19.9136 23.8943C18.6635 24.1536 16.4596 24.2289 14.7822 22.1686C14.2668 21.5363 13.5689 20.8495 12.7926 20.2011C12.4645 20.7502 12.3941 22.6632 12.9223 23.0315C14.0651 23.8287 16.3507 26.9984 19.3678 26.9984C22.8602 26.9984 26.0934 23.3548 26.0934 20.6798C26.0934 18.0048 25.3091 16.9914 25.3603 14.7502C25.4051 12.8548 26.7848 11.9487 26.7848 10.9994Z" fill="url(#paint1_linear_403_7661)"/>
<path id="Vector_3" d="M13.1064 20.1098C12.5462 19.6136 11.2193 18.2016 10.3582 17.5116C9.49548 16.8216 8.74158 16.8297 8.22461 17.5917C7.70763 18.3537 9.21697 19.6904 9.56111 20.0346C10.0893 20.5629 12.2565 22.5656 12.9239 23.0314" fill="url(#paint2_linear_403_7661)"/>
<path id="Vector_4" d="M15.5313 17.3821C15.4672 17.5326 15.0271 17.6367 14.1516 16.6858C13.4826 15.959 11.6931 13.8682 10.6368 12.919C9.58038 11.9697 8.76086 11.5822 8.07105 12.0785C7.3812 12.5748 7.77333 13.6073 8.54478 14.4718C9.49875 15.5395 10.5967 16.6281 11.6499 17.6735C12.4726 18.4899 14.334 20.2173 14.1292 20.4222" fill="url(#paint3_linear_403_7661)"/>
<path id="Vector_5" d="M18.9804 12.6821C18.3546 11.6895 15.7905 8.499 15.1647 7.59289C14.5389 6.68682 13.6986 6.68682 13.116 7.09662C12.5334 7.50645 12.3621 8.32609 13.6714 10.0662C14.4972 11.1644 15.1855 12.1746 16.8357 13.9964L18.7548 13.8635L18.9804 12.6821Z" fill="url(#paint4_linear_403_7661)"/>
<path id="Vector_6" d="M16.5444 14.5358C16.2643 14.2557 13.785 11.3165 13.2248 10.6874C12.1732 9.50755 10.8432 6.97822 9.25221 8.1052C8.41671 8.69752 8.86968 9.55555 9.10656 9.89977C9.34345 10.2455 12.4261 13.8026 12.7287 14.1052C13.0311 14.4078 15.5953 17.2316 15.5312 17.3821" fill="url(#paint5_linear_403_7661)"/>
<path id="Vector_7" d="M11.6499 17.6734C12.4261 18.445 14.1259 20.025 14.1435 20.3724C14.3884 19.9898 13.9403 18.8516 13.4665 18.453C10.7279 16.1461 8.08219 12.4273 7.74607 12.5378C7.602 13.0789 7.96695 13.8217 8.54636 14.47C9.50029 15.5378 10.5983 16.628 11.6499 17.6734Z" fill="url(#paint6_linear_403_7661)"/>
<path id="Vector_8" d="M16.8357 13.9963C17.1366 14.3277 17.4055 14.7584 17.3207 14.896C18.321 14.0908 16.2051 11.728 15.0078 10.308C14.0811 9.20984 13.8282 7.81229 13.164 7.06311C13.148 7.07271 13.132 7.08392 13.1176 7.0951C12.535 7.50494 12.3637 8.32457 13.673 10.0647C14.4973 11.1661 15.1855 12.1762 16.8357 13.9963Z" fill="url(#paint7_linear_403_7661)"/>
<path id="Vector_9" d="M12.7287 14.1051C13.0312 14.4077 15.5953 17.2316 15.5313 17.3821C16.3236 16.3143 13.252 13.1766 11.7651 11.5918C10.4751 10.2182 10.2542 9.01437 8.99613 8.33881C8.52715 8.90393 8.90009 9.59708 9.10814 9.89967C9.34345 10.2454 12.4261 13.8026 12.7287 14.1051Z" fill="url(#paint8_linear_403_7661)"/>
<path id="Vector_10" d="M15.4737 17.4459C15.384 17.502 15.1983 17.5068 14.9134 17.3403C15.1247 17.5132 15.3216 17.5772 15.4737 17.4459Z" fill="url(#paint9_linear_403_7661)"/>
<path id="Vector_11" d="M9.93725 23.1065C9.91805 23.1065 9.89881 23.1033 9.88122 23.0985C7.91412 22.4982 5.78217 20.3467 5.31965 18.4945C5.29403 18.3904 5.35643 18.2848 5.46046 18.2592C5.56452 18.2335 5.67016 18.296 5.69577 18.4C6.12312 20.1081 8.17182 22.17 9.99485 22.7255C10.0973 22.7575 10.1549 22.8648 10.1245 22.9672C10.0957 23.0537 10.0188 23.1065 9.93725 23.1065Z" fill="#955500"/>
<path id="Vector_12" d="M10.8752 25.5495C10.8608 25.5495 10.8463 25.5479 10.8303 25.5447C9.20254 25.1653 7.30909 23.9487 5.6397 22.2069C4.07752 20.5773 3.06597 18.8451 3.00035 17.6845C2.99395 17.5773 3.07558 17.486 3.18282 17.4796C3.29005 17.4732 3.38128 17.5548 3.38769 17.6621C3.44691 18.7171 4.44086 20.3964 5.91979 21.938C7.53956 23.6269 9.36259 24.8035 10.9184 25.1669C11.0224 25.191 11.088 25.295 11.064 25.4007C11.0416 25.4887 10.9632 25.5495 10.8752 25.5495Z" fill="#955500"/>
<path id="Vector_13" d="M19.2173 8.5629C19.1308 8.5629 19.0524 8.5053 19.03 8.41883C18.7563 7.38308 17.5175 5.89587 16.3875 5.60292C16.2835 5.57569 16.221 5.47005 16.2482 5.36599C16.2754 5.26193 16.3811 5.19949 16.4851 5.22672C17.7576 5.55649 19.0989 7.15898 19.4046 8.3196C19.4318 8.42363 19.3693 8.5293 19.2669 8.55653C19.2509 8.56133 19.2333 8.5629 19.2173 8.5629Z" fill="#955500"/>
<path id="Vector_14" d="M21.6646 8.90873C21.5782 8.90873 21.4998 8.84948 21.4774 8.76304C20.7491 5.89909 18.0297 3.66591 16.4788 3.38576C16.3731 3.36655 16.3027 3.2657 16.3219 3.16004C16.3411 3.05438 16.442 2.98395 16.5476 3.00316C18.2394 3.30732 21.0772 5.60936 21.8535 8.667C21.8791 8.77103 21.8167 8.8767 21.7126 8.90231C21.6967 8.9055 21.6807 8.90873 21.6646 8.90873Z" fill="#955500"/>
<path id="Vector_15" d="M25.394 10.3319C26.0518 10.2135 26.1686 10.2887 26.0502 10.1686C25.7301 10.0486 25.386 10.0086 25.2099 10.0086C24.5201 10.0086 22.7514 10.8922 22.7514 13.2215C22.7514 14.1276 22.4921 14.9472 21.5654 14.9472C21.2004 14.9472 20.8179 14.7487 20.4498 14.4493C22.0776 16.2519 23.3548 14.5534 23.5485 13.3896C23.7422 12.2257 23.4621 10.6793 25.394 10.3319Z" fill="url(#paint10_linear_403_7661)"/>
<path id="Vector_16" d="M12.9175 7.27274C12.5141 7.729 12.5285 8.54541 13.6714 10.0662C14.4973 11.1644 15.1855 12.1745 16.8357 13.9963C17.1478 14.3421 17.4279 14.7935 17.3095 14.912C17.5848 13.0246 14.9006 11.1708 14.0283 9.74766C13.3369 8.62229 13.1976 7.95632 12.9175 7.27274Z" fill="url(#paint11_linear_403_7661)"/>
<path id="Vector_17" d="M12.7287 14.1051C13.0312 14.4077 15.5953 17.2316 15.5313 17.3821C16.0979 16.9771 15.7121 16.3495 14.8366 15.4739C13.044 13.6809 10.5471 11.2716 9.54353 9.28655C9.4491 9.09923 9.27304 8.95996 9.06495 8.93274C8.52398 8.86231 8.92572 9.63552 9.10658 9.89967C9.34347 10.2455 12.4262 13.8026 12.7287 14.1051Z" fill="url(#paint12_linear_403_7661)"/>
<path id="Vector_18" d="M8.54636 14.4717C9.50032 15.5394 10.5983 16.628 11.6515 17.6734C12.4742 18.4899 14.3356 20.2172 14.1308 20.4221C15.2848 19.452 9.92606 15.9412 7.74769 12.5394C7.60204 13.0805 7.96695 13.8233 8.54636 14.4717Z" fill="url(#paint13_linear_403_7661)"/>
<path id="Vector_19" opacity="0.5" d="M13.8922 20.6174C14.0011 20.5741 14.0587 20.5229 14.0779 20.4685C13.881 20.6205 13.6201 20.5661 13.1063 20.1115C12.5462 19.6152 11.2193 18.2033 10.3582 17.5133C9.97885 17.2107 9.62192 17.0426 9.29541 17.0138C9.76277 17.3052 9.5467 17.4124 10.5854 18.2096C11.1409 18.6339 13.1816 20.8975 13.8922 20.6174Z" fill="url(#paint14_radial_403_7661)"/>
<path id="Vector_20" d="M12.535 15.4418C13.292 16.3639 14.7678 17.8863 15.432 17.4652C15.2495 17.5277 14.8318 17.4268 14.1516 16.6856C13.4825 15.9588 11.6931 13.8681 10.6367 12.9188C9.78199 12.1504 9.08096 11.7502 8.47913 11.8894C10.2318 12.4658 11.8179 14.5709 12.535 15.4418Z" fill="url(#paint15_radial_403_7661)"/>
<path id="Vector_21" d="M13.3529 11.4734C14.5613 12.7877 16.3523 15.3939 17.2631 14.9392C17.1142 14.9856 16.7941 14.7871 16.5444 14.5358C16.2643 14.2557 13.785 11.3165 13.2248 10.6873C12.4965 9.86932 11.6339 8.40454 10.6447 7.9563C11.6418 8.74391 12.3749 10.4088 13.3529 11.4734Z" fill="url(#paint16_radial_403_7661)"/>
<path id="Vector_22" d="M20.453 14.4476C19.8896 13.9865 19.3598 13.2822 18.9805 12.6818C18.3546 11.6893 15.7905 8.4988 15.1647 7.59269C14.9742 7.31736 14.763 7.12525 14.5469 7.0036C14.8382 7.42143 15.003 8.01854 15.6609 8.75654C16.7173 9.94278 18.097 12.0767 18.5707 12.8099C19.0445 13.5447 19.8096 15.0895 20.453 14.4476Z" fill="url(#paint17_linear_403_7661)"/>
<path id="Vector_23" d="M23.9102 24.9718C23.5165 24.0177 22.9451 23.4366 22.116 23.9824C19.856 25.4712 17.2551 24.9686 13.9947 22.332C11.0865 19.9803 9.58354 18.2994 8.16863 17.6911C7.82929 18.4643 9.22819 19.705 9.55793 20.0364C10.0861 20.5646 12.2533 22.5673 12.9207 23.0331C14.0635 23.8304 16.3491 27.0001 19.3662 27.0001C21.0548 26.9985 22.6794 26.15 23.9102 24.9718Z" fill="url(#paint18_linear_403_7661)"/>
<path id="Vector_24" d="M25.362 14.7518C25.4052 12.8547 26.7849 11.9487 26.7849 10.9994C26.7849 10.7208 26.6392 10.5143 26.4344 10.3654C26.6872 11.105 26.0854 11.7598 25.1907 12.874C24.2208 14.081 24.0047 15.9572 24.6737 17.8334C25.3428 19.7096 24.5009 22.2966 23.1436 23.1162C21.7847 23.9359 19.9809 27.5362 14.8142 23.4684C14.8126 23.4668 14.8126 23.4668 14.811 23.4652C14.4957 23.1723 14.1836 22.9129 13.8683 22.7176C11.6867 21.3649 10.4431 20.1498 9.50356 19.1269C9.3179 18.9268 8.8217 18.1552 8.23111 18.4081C8.5256 19.0773 9.3227 19.7928 9.56277 20.0314C10.091 20.5597 12.2581 22.5623 12.9256 23.0282C13.012 23.089 13.1064 23.1642 13.2072 23.2491C13.2329 23.2715 13.2601 23.2939 13.2873 23.318C13.2937 23.3243 13.3017 23.3307 13.3081 23.3372C13.3257 23.3516 13.3417 23.3676 13.3593 23.3836C13.3625 23.3868 13.3673 23.39 13.3705 23.3948C14.0492 24.0111 14.9823 25.0308 16.1267 25.8281C16.1267 25.8281 16.1283 25.8281 16.1283 25.8297C16.2291 25.9001 16.3316 25.9674 16.434 26.0346C16.4356 26.0362 16.4372 26.0362 16.4388 26.0378C16.5413 26.1034 16.6453 26.1675 16.7525 26.2283C16.7541 26.2283 16.7541 26.2299 16.7557 26.2299C17.5464 26.6846 18.4235 26.9983 19.3727 26.9983C22.8651 26.9983 26.0982 23.3547 26.0982 20.6797C26.0982 18.0047 25.3107 16.993 25.362 14.7518Z" fill="url(#paint19_radial_403_7661)"/>
</g>
<defs>
<linearGradient id="paint0_linear_403_7661" x1="24.3972" y1="27.6902" x2="21.5183" y2="20.9465" gradientUnits="userSpaceOnUse">
<stop offset="0.00132565" stop-color="#99643E"/>
<stop offset="1" stop-color="#AE7246"/>
</linearGradient>
<linearGradient id="paint1_linear_403_7661" x1="26.4652" y1="24.7836" x2="20.4275" y2="17.5828" gradientUnits="userSpaceOnUse">
<stop offset="0.00132565" stop-color="#99643E"/>
<stop offset="1" stop-color="#AE7246"/>
</linearGradient>
<linearGradient id="paint2_linear_403_7661" x1="8.83515" y1="18.2048" x2="12.3928" y2="20.8241" gradientUnits="userSpaceOnUse">
<stop offset="0.00132565" stop-color="#99643E"/>
<stop offset="1" stop-color="#AE7246"/>
</linearGradient>
<linearGradient id="paint3_linear_403_7661" x1="7.53997" y1="11.2708" x2="13.7824" y2="17.8032" gradientUnits="userSpaceOnUse">
<stop offset="0.00132565" stop-color="#99643E"/>
<stop offset="1" stop-color="#AE7246"/>
</linearGradient>
<linearGradient id="paint4_linear_403_7661" x1="14.2811" y1="8.18835" x2="17.9039" y2="13.8803" gradientUnits="userSpaceOnUse">
<stop offset="0.00132565" stop-color="#99643E"/>
<stop offset="1" stop-color="#AE7246"/>
</linearGradient>
<linearGradient id="paint5_linear_403_7661" x1="10.5424" y1="9.13402" x2="15.459" y2="15.7744" gradientUnits="userSpaceOnUse">
<stop offset="0.00132565" stop-color="#99643E"/>
<stop offset="1" stop-color="#AE7246"/>
</linearGradient>
<linearGradient id="paint6_linear_403_7661" x1="12.3311" y1="15.1504" x2="10.2676" y2="17.0939" gradientUnits="userSpaceOnUse">
<stop stop-color="#8D562E" stop-opacity="0"/>
<stop offset="1" stop-color="#804B24"/>
</linearGradient>
<linearGradient id="paint7_linear_403_7661" x1="16.3883" y1="9.93546" x2="13.2834" y2="12.738" gradientUnits="userSpaceOnUse">
<stop stop-color="#8D562E" stop-opacity="0"/>
<stop offset="1" stop-color="#804B24"/>
</linearGradient>
<linearGradient id="paint8_linear_403_7661" x1="13.5327" y1="11.9324" x2="9.26354" y2="15.0528" gradientUnits="userSpaceOnUse">
<stop stop-color="#8D562E" stop-opacity="0"/>
<stop offset="1" stop-color="#804B24"/>
</linearGradient>
<linearGradient id="paint9_linear_403_7661" x1="16.7127" y1="16.2825" x2="12.4431" y2="19.4031" gradientUnits="userSpaceOnUse">
<stop stop-color="#8D562E" stop-opacity="0"/>
<stop offset="1" stop-color="#804B24"/>
</linearGradient>
<linearGradient id="paint10_linear_403_7661" x1="21.839" y1="10.0093" x2="26.8419" y2="18.116" gradientUnits="userSpaceOnUse">
<stop stop-color="#8D562E" stop-opacity="0"/>
<stop offset="1" stop-color="#804B24"/>
</linearGradient>
<linearGradient id="paint11_linear_403_7661" x1="16.9565" y1="9.38489" x2="14.3043" y2="11.8426" gradientUnits="userSpaceOnUse">
<stop offset="0.3072" stop-color="#8D562E" stop-opacity="0"/>
<stop offset="1" stop-color="#804B24"/>
</linearGradient>
<linearGradient id="paint12_linear_403_7661" x1="14.9259" y1="10.7171" x2="11.4328" y2="13.8647" gradientUnits="userSpaceOnUse">
<stop offset="0.3072" stop-color="#8D562E" stop-opacity="0"/>
<stop offset="1" stop-color="#804B24"/>
</linearGradient>
<linearGradient id="paint13_linear_403_7661" x1="12.268" y1="15.0892" x2="8.22491" y2="19.3255" gradientUnits="userSpaceOnUse">
<stop offset="0.3072" stop-color="#8D562E" stop-opacity="0"/>
<stop offset="1" stop-color="#804B24"/>
</linearGradient>
<radialGradient id="paint14_radial_403_7661" cx="0" cy="0" r="1" gradientUnits="userSpaceOnUse" gradientTransform="translate(13.3122 14.4506) scale(4.51222 4.51305)">
<stop stop-color="#AE7246" stop-opacity="0"/>
<stop offset="1" stop-color="#8D562E"/>
</radialGradient>
<radialGradient id="paint15_radial_403_7661" cx="0" cy="0" r="1" gradientUnits="userSpaceOnUse" gradientTransform="translate(11.005 12.793) rotate(46.9669) scale(5.21985 3.31278)">
<stop stop-color="#AE7246" stop-opacity="0"/>
<stop offset="1" stop-color="#8D562E"/>
</radialGradient>
<radialGradient id="paint16_radial_403_7661" cx="0" cy="0" r="1" gradientUnits="userSpaceOnUse" gradientTransform="translate(13.9574 11.4771) scale(3.41521 3.41581)">
<stop stop-color="#AE7246" stop-opacity="0"/>
<stop offset="1" stop-color="#8D562E"/>
</radialGradient>
<linearGradient id="paint17_linear_403_7661" x1="17.6048" y1="10.1629" x2="15.5776" y2="20.9872" gradientUnits="userSpaceOnUse">
<stop offset="0.3118" stop-color="#DEBA94" stop-opacity="0"/>
<stop offset="1" stop-color="#D2A374"/>
</linearGradient>
<linearGradient id="paint18_linear_403_7661" x1="15.1443" y1="22.1549" x2="12.9449" y2="24.176" gradientUnits="userSpaceOnUse">
<stop offset="0.3118" stop-color="#B37E53" stop-opacity="0"/>
<stop offset="1" stop-color="#804B24"/>
</linearGradient>
<radialGradient id="paint19_radial_403_7661" cx="0" cy="0" r="1" gradientUnits="userSpaceOnUse" gradientTransform="translate(17.6171 15.3297) rotate(48.1448) scale(14.8549 13.4842)">
<stop offset="0.6147" stop-color="#8D562E" stop-opacity="0"/>
<stop offset="1" stop-color="#804B24"/>
</radialGradient>
</defs>
</svg>
