<svg width="32" height="32" viewBox="0 0 32 32" fill="none" xmlns="http://www.w3.org/2000/svg">
<g id="image-plus">
<path id="Icon" d="M16.6667 4H10.4C8.15979 4 7.03969 4 6.18404 4.43597C5.43139 4.81947 4.81947 5.43139 4.43597 6.18404C4 7.03968 4 8.15979 4 10.4V21.6C4 23.8402 4 24.9603 4.43597 25.816C4.81947 26.5686 5.43139 27.1805 6.18404 27.564C7.03969 28 8.15979 28 10.4 28H22.6667C23.9066 28 24.5266 28 25.0353 27.8637C26.4156 27.4938 27.4938 26.4156 27.8637 25.0353C28 24.5266 28 23.9066 28 22.6667M25.3333 10.6667V2.66666M21.3333 6.66666H29.3333M14 11.3333C14 12.8061 12.8061 14 11.3333 14C9.86057 14 8.66667 12.8061 8.66667 11.3333C8.66667 9.86057 9.86057 8.66666 11.3333 8.66666C12.8061 8.66666 14 9.86057 14 11.3333ZM19.9867 15.8909L8.7082 26.1441C8.07382 26.7208 7.75663 27.0091 7.72857 27.2589C7.70425 27.4754 7.78727 27.6902 7.95091 27.834C8.13971 28 8.56837 28 9.42571 28H21.9413C23.8602 28 24.8196 28 25.5732 27.6776C26.5193 27.2729 27.2729 26.5193 27.6776 25.5732C28 24.8196 28 23.8602 28 21.9413C28 21.2957 28 20.9728 27.9294 20.6722C27.8407 20.2944 27.6706 19.9405 27.431 19.6352C27.2403 19.3923 26.9883 19.1906 26.4841 18.7873L22.7544 15.8035C22.2499 15.3999 21.9976 15.198 21.7197 15.1268C21.4748 15.064 21.2172 15.0722 20.9767 15.1503C20.7039 15.2389 20.4648 15.4562 19.9867 15.8909Z" stroke="#475467" stroke-width="2.66667" stroke-linecap="round" stroke-linejoin="round"/>
</g>
</svg>
